<svg xmlns="http://www.w3.org/2000/svg" viewBox="0 0 420 107"><title>adm</title><polygon points="377.204 106.875 119.645 106.875 162.175 0.344 419.733 0.344 377.204 106.875" style="fill:#f4b606"/><polygon points="149.575 0.344 107.054 106.875 119.965 106.875 162.486 0.344 149.575 0.344" style="fill:#aa7705"/><polygon points="137.749 0.344 42.166 0.344 -0.355 106.875 95.228 106.875 107.054 106.875 149.575 0.344 137.749 0.344" style="fill:#f4f4f4"/><path d="M103.2553,65.8056a11.5676,11.5676,0,0,0,0-4.2l2.5437-1.4691a.7139.7139,0,0,0,.3254-.8381,14.7953,14.7953,0,0,0-3.2734-5.6593.719.719,0,0,0-.8873-.1381L99.42,54.97a11.5767,11.5767,0,0,0-3.6382-2.1V49.9318a.7178.7178,0,0,0-.562-.7,14.8748,14.8748,0,0,0-6.527,0,.7179.7179,0,0,0-.562.7V52.87a11.5773,11.5773,0,0,0-3.6381,2.1l-2.5438-1.4691a.721.721,0,0,0-.8873.1381,14.7953,14.7953,0,0,0-3.2734,5.6593.7261.7261,0,0,0,.3254.8381l2.5437,1.4691a11.5676,11.5676,0,0,0,0,4.2l-2.5437,1.4691a.7139.7139,0,0,0-.3254.8381,14.8692,14.8692,0,0,0,3.2734,5.6593.719.719,0,0,0,.8873.1381l2.5438-1.4691a11.5773,11.5773,0,0,0,3.6381,2.1v2.9381a.7179.7179,0,0,0,.562.7,14.8748,14.8748,0,0,0,6.527,0,.7178.7178,0,0,0,.562-.7V74.5412a11.5767,11.5767,0,0,0,3.6382-2.1l2.5438,1.4691a.721.721,0,0,0,.8873-.1381,14.7953,14.7953,0,0,0,3.2734-5.6593.7263.7263,0,0,0-.3254-.8381ZM91.9661,68.4874a4.7819,4.7819,0,1,1,4.7819-4.7819A4.7865,4.7865,0,0,1,91.9661,68.4874ZM65.1482,54.24a12.62,12.62,0,1,0-12.62-12.62A12.6192,12.6192,0,0,0,65.1482,54.24ZM84.9856,76.5722c-.2268-.1183-.4536-.2563-.6705-.3845l-.7789.4535a3.868,3.868,0,0,1-4.7819-.72,17.9779,17.9779,0,0,1-3.9635-6.8622,3.8564,3.8564,0,0,1,1.7649-4.5058l.7789-.4536q-.0148-.3845,0-.769l-.7789-.4536a3.8516,3.8516,0,0,1-1.7649-4.5058c.0887-.2859.2169-.5718.3155-.8577-.3746-.03-.7394-.1184-1.124-.1184H72.3358a17.1623,17.1623,0,0,1-14.3752,0H56.3141A13.2547,13.2547,0,0,0,43.0628,70.6467v4.1015a4.7338,4.7338,0,0,0,4.7326,4.7326H82.501a4.7269,4.7269,0,0,0,2.6818-.8381,3.837,3.837,0,0,1-.1972-1.1634Z" style="fill:#f4b606"/><path d="M198.7354,62.2939H186.2246l-3.4648,8.55H178.44L192.66,36.959h.2695L207.15,70.8438h-5.04Zm-1.4854-3.78-4.6348-11.88L187.8,58.5137Z" style="fill:#f4f4f4"/><path d="M231.18,35.9688v34.875h-4.23V67.9189a9.55,9.55,0,0,1-3.3076,2.4747,10.1752,10.1752,0,0,1-4.2979.9,9.0628,9.0628,0,0,1-4.7246-1.26,8.728,8.728,0,0,1-3.3076-3.5332,11.1073,11.1073,0,0,1-1.1924-5.2422,10.4618,10.4618,0,0,1,1.26-5.2422,8.4822,8.4822,0,0,1,3.4648-3.3975,10.4877,10.4877,0,0,1,4.9951-1.17,9.8508,9.8508,0,0,1,4.0723.877,7.584,7.584,0,0,1,3.083,2.4072V35.9688Zm-6.4121,30.42a5.9313,5.9313,0,0,0,2.1826-3.51v-3.51a5.8736,5.8736,0,0,0-2.2959-3.3076,6.6117,6.6117,0,0,0-4.0049-1.2832,6.2438,6.2438,0,0,0-5.4443,3.128,6.7783,6.7783,0,0,0,0,6.5927,6.35,6.35,0,0,0,2.2949,2.34,6.0508,6.0508,0,0,0,3.1494.8545A6.53,6.53,0,0,0,224.7676,66.3887Z" style="fill:#f4f4f4"/><path d="M266.6172,52.9785a5.6509,5.6509,0,0,1,1.6875,4.05V70.8438h-4.1856V58.5586q-.1347-3.2842-2.97-3.4648a4.6914,4.6914,0,0,0-2.9023.9677,6.4993,6.4993,0,0,0-2.003,2.542,8.5317,8.5317,0,0,0-.7646,3.375v8.8653H251.249V58.5586q-.1347-3.2842-3.0595-3.4648a4.6253,4.6253,0,0,0-2.8575.9677,6.47,6.47,0,0,0-2.0029,2.5645,8.1688,8.1688,0,0,0-.72,3.3974v8.82h-4.1856v-18.63h3.78l.3154,3.51a7.9655,7.9655,0,0,1,2.9473-3.1494,8.0757,8.0757,0,0,1,4.2529-1.125,6.494,6.494,0,0,1,3.7793,1.0567,4.7959,4.7959,0,0,1,1.9805,2.9033,8.7147,8.7147,0,0,1,2.97-2.9033,7.5175,7.5175,0,0,1,3.87-1.0567A5.9573,5.9573,0,0,1,266.6172,52.9785Z" style="fill:#f4f4f4"/><path d="M275.999,43.8438a2.574,2.574,0,0,1,1.7549-.6749,2.4915,2.4915,0,0,1,1.7324.6749,2.2367,2.2367,0,0,1,0,3.33,2.4914,2.4914,0,0,1-1.7324.6748,2.5739,2.5739,0,0,1-1.7549-.6748,2.1952,2.1952,0,0,1,0-3.33Zm3.7354,8.37v18.63h-4.1856v-18.63Z" style="fill:#f4f4f4"/><path d="M302.9092,53.0459a5.3315,5.3315,0,0,1,1.7549,4.0283v13.77h-4.2305v-12.33a3.7834,3.7834,0,0,0-.9443-2.4746,3.5184,3.5184,0,0,0-2.5655-.9453,5.0684,5.0684,0,0,0-4.0947,1.98,7.698,7.698,0,0,0-1.62,5.0391v8.7305h-4.1856v-18.63h3.78l.2705,3.6a7.2978,7.2978,0,0,1,2.97-3.1719,8.8906,8.8906,0,0,1,4.545-1.1475A6.1884,6.1884,0,0,1,302.9092,53.0459Z" style="fill:#f4f4f4"/></svg>