<?xml version="1.0" encoding="utf-8"?>
<!-- Generator: Adobe Illustrator 22.1.0, SVG Export Plug-In . SVG Version: 6.00 Build 0)  -->
<svg version="1.1" id="Layer_1" xmlns="http://www.w3.org/2000/svg" xmlns:xlink="http://www.w3.org/1999/xlink" x="0px" y="0px"
	 viewBox="0 0 2002.5 1030" style="enable-background:new 0 0 2002.5 1030;" xml:space="preserve">
<style type="text/css">
	.st0{fill:#222C36;}
	.st1{opacity:0.5;}
	.st2{fill:#14384C;}
</style>
<path class="st0" d="M1,959.1h2009v13.2H1V959.1z"/>
<g>
	<g class="st1">
		<path class="st2" d="M16.1,912.6l10.7,0v0h36.3v-0.1l10.2,0v-3.3c0-2.6-2.1-4.7-4.7-4.7h0v-1.6h-4.2v1.6h-1.2v-55.3
			c0-7.9,6.4-14.3,14.3-14.3h24.3v0.3c0,6.2,5,11.2,11.2,11.2c6.2,0,11.1-5,11.2-11.2v-0.3h102.5v0.3c0,6.2,5,11.2,11.2,11.2
			c6.2,0,11.2-5,11.2-11.2v-0.3h102.5v0.3c0,6.2,5,11.2,11.2,11.2c6.2,0,11.2-5,11.2-11.2v-0.3h102.5v0.3c0,6.2,5,11.2,11.2,11.2
			c6.2,0,11.2-5,11.2-11.2v-0.3H601v0.3c0,6.2,5,11.2,11.2,11.2c6.2,0,11.2-5,11.2-11.2v-0.3h101.7c1.3,6.6,7.7,11,14.4,9.7
			c4.9-0.9,8.8-4.8,9.7-9.7h101.5v0.3c0,6.2,5.1,11.2,11.3,11.1c6.1,0,11.1-5,11.1-11.1v-0.3h102.5v0.3c0,6.2,5,11.2,11.2,11.2
			c6.2,0,11.2-5,11.2-11.2v-0.3h102.5v0.3c0,6.2,5,11.2,11.2,11.2c6.2,0,11.2-5,11.2-11.2v-0.3h102.5v0.3c0,6.2,5,11.2,11.2,11.2
			c6.2,0,11.1-5,11.2-11.2v-0.3H1350v0.3c0,6.2,5,11.2,11.2,11.2c6.2,0,11.1-5,11.2-11.2v-0.3h35.4c7.9,0,14.3,6.4,14.3,14.3v55.3
			h-1.2v-1.6h-4.2v1.6h-0.1c-2.6,0-4.7,2.1-4.7,4.7c0,0,0,0,0,0v3.3l10.2,0v0.1h36.3v0l10.7,0v-3.4c0-2.6-2.1-4.7-4.7-4.7h-0.1v-1.6
			h-4.2v1.6h-1.7v-55.3c0-27.9-22.6-50.5-50.6-50.5c0,0,0,0,0,0h-35.4v-1.4c0-6.2-5-11.2-11.2-11.2c-6.2,0-11.1,5-11.2,11.2v1.4
			h-102.5v-1.4c0-6.2-5-11.2-11.2-11.2c-6.2,0-11.1,5-11.2,11.2v1.4h-102.5v-1.4c0-6.2-5-11.2-11.2-11.2c-6.2,0-11.2,5-11.2,11.2
			v1.4H997.9v-1.4c0-6.2-5-11.2-11.2-11.2c-6.2,0-11.2,5-11.2,11.2l0,0v1.4H873.1v-1.4c0-6.2-5.1-11.2-11.3-11.1
			c-6.1,0-11.1,5-11.1,11.1v1.4h-98.8l0.4-0.4v-4.7h-7.5v-2.8h-0.1l9.4-17.3h4.7c2.3,0,4.2-1.9,4.2-4.2c0-2.3-1.9-4.2-4.2-4.2
			c0,0,0,0,0,0h-43.4c-2.3,0-4.2,1.9-4.2,4.2c0,2.3,1.9,4.2,4.2,4.2h4.8l9.4,17.3h-0.1v2.8h-7.3v4.7l0.4,0.4h-99.1v-1.4
			c0-6.2-5-11.2-11.2-11.2c-6.2,0-11.2,5-11.2,11.2l0,0v1.4H498.5v-1.4c0-6.2-5-11.2-11.2-11.2c-6.2,0-11.2,5-11.2,11.2l0,0v1.4
			H373.7v-1.4c0-6.2-5-11.2-11.2-11.2c-6.2,0-11.2,5-11.2,11.2l0,0v1.4H248.9v-1.4c0-6.2-5-11.2-11.2-11.2c-6.2,0-11.2,5-11.2,11.2
			l0,0v1.4H124v-1.4c0-6.2-5-11.2-11.2-11.2c-6.2,0-11.1,5-11.2,11.2v1.4H77.4c-27.9,0-50.6,22.6-50.6,50.5c0,0,0,0,0,0v55.3h-1.7
			v-1.6h-4.2v1.6h0c-2.6,0-4.7,2.1-4.7,4.7c0,0,0,0,0,0V912.6z M721.5,773.4h14.8v17.3h-5.4L721.5,773.4z M743.2,790.7h-5.5v-17.3
			h14.9L743.2,790.7z"/>
		<path class="st2" d="M1705.5,708.7c13-2.1,23.2-8.8,26.5-17.2l0,0h0.9l86.5,160.5l0.5-0.3l-86.3-160.2h1.2v-2.7h0v-21.8h-14.5
			l-10-18.5h9.8v-66.8l0,0c5.7-3.1,9.9-7.3,11.8-12.2l0,0h2.8v-2.7h0v-21.8h-29.4v-16.6l7.3-4.8h-0.1v-1.8l0.2-0.1l4-2.6l11.8-7.7
			v-15.6h4.7c6.6,0,12.6-3.7,15.5-9.7h7.3c6.6,0,12.6-3.8,15.5-9.7h2.2c9.6,0,17.4-7.8,17.4-17.4v-5.7c2.4-2.8,4.3-6.1,5.3-9.7
			l6.4-19.9l-3.6,2c0.1-1.3,0.1-2.5,0-3.8c0-0.6,10.1-16.1,11-16.8c0,0,6.3-15.7,4-10.7c-2.3,5-11.3,6.1-11.3,6.1l-11.2,4
			c-3.1,1.4-17.6,8.5-18.9,20.3c-0.3,0.5-0.6,0.9-0.9,1.4l-1.5-11.4c0,0-13.5,7.3-18.7,14c-3.7-1.1-7.6-1.7-11.5-1.7
			c-7.8,0-13,7.1-16.3,16.2h-1.1c-3,0-14,1.3-31.7,17c-8.1,1.7-13.8,8.8-13.8,17.1v1.1c0,1.8,0.3,3.6,0.9,5.3h-1V481h-5.7v30.3
			l1.5,1.7v2.3l-6.1-4V481h-5.6v30.3l11.8,7.7l4.1,2.7l0.2,0.1v1.8l7.2,4.7v16.7h-29.4v21.8h0v2.7h2.8v0c2.3,6,8.1,11.1,15.9,14.2
			v66.8l-8.8,16.4h-6.7v12.5l-47.3,87.9v-9l3,0.9l2.9-10.1l3.2-11.1l-202.3-58.8l0.7-2.1l2.8,0.9v0l0.2-0.6l0.8-2.9l-10.5-64.9l0,0
			l0,0l-0.5-0.5l-3.2-3.2h0l0,0c0,0-7.3,4-17.2,14.6v0c-1.4,1.5-2.9,3.1-4.4,4.9c-2,2.3-3.8,4.6-5.7,6.9c-0.6,0.7-1.2,1.5-1.8,2.3
			c-0.4,0.5-0.8,1-1.1,1.5c-0.7,0.8-1.3,1.7-1.9,2.6c-0.6,0.8-1.2,1.6-1.7,2.5c-0.2,0.2-0.4,0.5-0.5,0.7c-1.2,1.7-2.3,3.5-3.5,5.4
			c-0.8,1.2-1.5,2.5-2.3,3.8c-0.1,0.2-0.2,0.3-0.2,0.4c-3.3,5.8-6.8,12.5-10.6,20.9c-1.6,3.4-3.2,7.2-5,11.2
			c-1.6,3.7-2.9,7.6-3.9,11.5c-0.4,1.5-0.8,3-1.1,4.5c-0.5,2.4-1,4.8-1.4,7.2c-0.2,1.5-0.5,3-0.7,4.5c-2.7,19.3-2,39.1-1.3,49.9
			c0.2,2.5,0.3,4.5,0.5,5.9c0.1,1.2,0.2,2,0.3,2.3v0.1l3.7,3.7l9.8,0.9l-0.6-7l1.1-1.4l5.7-6.9l5.4-6.4l8.8,77.4v1.1h1.9v5.2h-2.9
			V853h7.1v-16.7h-2.9v-5.2h1.9v-1.3h0l-9-83.1l0,0l38.5-45.9l-2.3-0.6l0,0l0.6-1.9l54.3,16.3l-0.7,3.9l-2.7,15.3L1433.2,853h-126.9
			l0.8-1.3l0.7-1.3v-0.1l-1.9-16.8l-0.2-2.1l-6.1-55.2l-0.2-2.6h0.1l-0.5-4.4h-0.1l-0.1-1.1l-0.4-3.4l-0.3-2.6l-0.3-2.5l-0.7-6.1
			L1292,707l-0.5-4.2l-0.4-3.5l-0.3-3.2h0.1v0l-0.5-4.2l0-0.2h-0.2l-0.5-5.7l-5.2-47.2l-1.3-12l-0.7-7l-0.9-8l-0.8-8.1l-4.6-41.5
			h-7.3l4,36.9l0.9,8.1l1.3,12.5h-8.8v-57.5h30.4v-12.6h-141.3v12.6h63.9v57.5H1177l1.3-12.5l0.9-8.1l4-36.9h-7.3l-4.6,41.5
			l-0.8,8.1l-0.9,8l-0.7,7l-6.5,59.2l-0.5,5.7h-0.2l-0.5,4.4h0.1l-0.3,3.2l-7.2,65.4l-0.4,3.4l-0.1,1.1h-0.1l-0.5,4.4h0.1l-0.2,2.6
			l-8.2,74.1v0.1l0.7,1.3l0.8,1.3h-115v14.9h756.7V853h-262.4l-6.5-37.2c0-0.1,0-0.2-0.1-0.2l-3.3-18.8l-0.8-4.6l-6.1-34.6l-0.8-4.6
			l-4.8-27.3l89.1,26.8v15.8h8.3v19.1l-2.4,4.4h-5.9v8.4h-2.9v7.9l-13.2,24.5h-2v3.6l-8.3,15.5l0.5,0.3l7.8-14.5v6.4h51.8v-11.2
			h-11.7v-32.4h-2.9v-8.4h-8.2v-8l55.6-103.2v119.9h7.8l-35.7,51.2l0.5,0.3l35.9-51.5h17.7v51.4h21v-70.1l49,70.3l0.5-0.3
			l-49.2-70.7l-0.2,0.2L1705.5,708.7L1705.5,708.7z M1498.2,758.5l-9.6,7.3v-8.2h9.6L1498.2,758.5z M1501.6,799.8l-26.3,15.8v-18.7
			h26.1L1501.6,799.8z M1505,796.8h1.6l-1.5,0.9L1505,796.8z M1484.9,752.9v-20.4l8-8.9v29.3L1484.9,752.9z M1479.4,792.2v-13.8l8-6
			v19.8H1479.4z M1465,831.4h-7.5l7.5-4.5V831.4z M1466.1,826.2l8-4.8v10h-8V826.2z M1466.1,821v-24.2h8v19.4L1466.1,821z
			 M1461.1,792.2l17.2-12.9v12.9H1461.1z M1479.4,772.7v-15.1h8v9L1479.4,772.7z M1480.4,719l3.3,1v7l-18.4,20.5l5-28.5L1480.4,719z
			 M1484.9,720.3l3.8,1.1l-3.8,4.3V720.3z M1483.8,733.8v19.1h-17.1L1483.8,733.8z M1478.3,757.6v15.9l-20.2,15.2l5.5-31.2
			L1478.3,757.6z M1465,796.8v24.9l-14.2,8.5l5.9-33.4H1465z M1449.8,836h54.8l1.4,17h-59.3L1449.8,836z M1475.3,831.4v-10.6
			l26.7-16l2.2,26.6L1475.3,831.4z M1488.5,792.2v-20.7l10.1-7.6l2.3,28.3L1488.5,792.2z M1494,752.9V723l1.3,0.4l2.4,29.5
			L1494,752.9z M1402,626.8l2.8,1l3.3,1.2l3.1,21.9l-18.1,8.3c-0.2,0-0.4-0.1-0.6-0.1c-0.8-0.1-1.6-0.3-2.4-0.6
			c-1.2-0.4-2.4-1-3.4-1.8c-0.2-0.3-0.4-0.6-0.6-0.9c-0.2-0.2-0.3-0.5-0.4-0.7c-0.6-1.1-1-2.4-1.2-3.6c0-0.2-0.1-0.5-0.1-0.7
			c0-0.4,0-0.7,0-0.7L1402,626.8z M1375,665.3l7.1-0.8l7.4,2.8l2.2,0.8l-7.6,20.1l-3-0.9l-1.8-0.5l-6.8-1.9l-3.8-4.9l5.5-14.7
			L1375,665.3z M1363.7,695.1c0.2-0.4,0.3-0.8,0.5-1.1c1.3-0.1,2.6-0.1,4-0.1h0l4.6,42.7l0,0l-3.9,4.7L1363.7,695.1z M1368.4,741.9
			l-4.1,5l-3.1,3.8l-2.6-0.5l-2.8-0.6c0-0.6,0-1.4,0-2.4c0-11.3,0.9-22.7,2.9-33.8c0.1-0.6,0.2-1.2,0.4-1.8c0.3-1.5,0.6-2.9,0.9-4.3
			c0,0,0-0.1,0.1-0.2c0.6-2.5,1.3-4.9,2-7.2c0.4-1.2,0.8-2.3,1.3-3.4L1368.4,741.9L1368.4,741.9z M1383,829.8h-3.9l-8.9-77.8
			l3.8-4.6l0,0L1383,829.8z M1373.5,735.8L1373.5,735.8l-4.6-41.9c3,0.1,6,0.6,8.9,1.4c0.3,0.1,0.5,0.1,0.8,0.2c1,0.3,2,0.7,3,1.1
			l0.4,2.7l1.9,12.2l1.6,9.9L1373.5,735.8z M1409.8,699.8l-2.6-0.8l0.4-1.2h0l7.1-22l2.5,0.8l-0.7,2.1l-1.7-0.5l-3,9.8l-2.8,9.4
			l1.3,0.4L1409.8,699.8z M1453,786.7l-1,5.5l-0.8,4.6l-9.9,56.2h-4.5L1453,786.7z M1210.2,643.1l-14.3-8.3h15.6v8.3H1210.2z
			 M1193.6,633.5l-4.1-2.3l-1.3-0.8l-1.6-0.9v-5.3h24.9v9.4L1193.6,633.5z M1188.2,637.9l1.3,0.8l7.7,4.4h-10.6v-6.1L1188.2,637.9z
			 M1199.5,644.4l11.9,6.9v1.4h-24.9v-8.2L1199.5,644.4z M1212.8,652.6V652l1,0.6l0.1,0l0.5,0.3l1.3,0.8l1.2,0.7l-1.2,0.7l-1.3,0.8
			l-1.6,0.9V652.6z M1211.5,654v3.6l-8,4.6l0,0h-16.9V654L1211.5,654z M1201.2,663.5L1201.2,663.5l-11.7,6.7l-1.3,0.8l-1.3,0.8h-0.3
			v-8.3H1201.2z M1211.5,665v6.8h-11.7L1211.5,665z M1188.2,678.5l1.3-0.8l7.9-4.6l0,0h14v8.3h-24.9v-1.9L1188.2,678.5z
			 M1211.5,682.7v8.9h-24.9v-8.9L1211.5,682.7z M1212.8,682.7v-18.4l1.2-0.7l0.3-0.2l1.3-0.8l3.6-2.1v31.1h-6.5V682.7z M1193,831.1
			v8.2h-16.4l0,0l14.2-8.2L1193,831.1z M1194.3,821.5v-26.1l22.7,13.1L1194.3,821.5L1194.3,821.5z M1183.8,781.9l-14.3-8.3h23.4v8.3
			L1183.8,781.9L1183.8,781.9z M1193,783.2v4l-6.8-4L1193,783.2z M1194.3,788v-14.3h25v28.8l-0.1-0.1l-0.5-0.3L1194.3,788z
			 M1241.6,720.3h-1.5V712h15.8l0,0L1241.6,720.3L1241.6,720.3z M1238.8,729.9v3.7l-3.5-2l3.5-2V729.9z M1240.1,768.1v-8.3h24.9v8.3
			H1240.1z M1240.1,758.6v-8.3h14.8l10.1,5.9v2.4L1240.1,758.6z M1240.1,749v-7.2l12.5,7.2H1240.1z M1238.8,741v28.2h-6v-31.7
			L1238.8,741z M1232.8,773.6h49.9l-1,0.6l-5.4,3.1l-43.5,25.2L1232.8,773.6z M1266.3,769.2v-12.2l9.9,5.8l5.4,3.1l5.8,3.4
			L1266.3,769.2z M1251.4,740.8h13.7v7.9L1251.4,740.8z M1249.1,739.4l-8.9-5.2v-3.1h24.9v8.3L1249.1,739.4z M1240.1,729.9v-1.1
			l12.3-7.1l0,0h12.5v8.3H1240.1z M1254.7,720.3L1254.7,720.3l10.3-5.9v5.9L1254.7,720.3z M1265,706.8l-0.3,0.2l-6.5,3.7l0,0h-18
			v-8.3h24.9V706.8z M1240.1,701.1V696h24.9v5.1L1240.1,701.1z M1238.8,701.1v20.8l-6,3.5V696h6V701.1z M1219.3,769.2h-54.6
			l54.6-31.6V769.2z M1168.1,780.4l2.7,1.5l0,0h-2.7L1168.1,780.4L1168.1,780.4z M1173.1,783.2l14.3,8.2l0,0h-19.3v-8.2
			L1173.1,783.2z M1189.7,792.8L1189.7,792.8l3.3,1.9v6.4h-24.9v-8.3H1189.7z M1193,802.4v8.2h-24.9v-8.2H1193z M1193,811.9v8.2
			h-24.9v-8.2L1193,811.9z M1193,821.5v0.8l-12.9,7.4h-12v-8.3H1193z M1177.9,831.1l-9.7,5.6l0,0v-5.6L1177.9,831.1z M1168.1,844.2
			l6.2-3.6l0,0h18.7V853h-24.9L1168.1,844.2L1168.1,844.2z M1194.3,840.7v-11.6l25-14.5V853h-25V840.7z M1232.8,814.6l43.5,25.1
			l5.4,3.1l6,3.5l1.6,0.9l7.7,4.4l2.3,1.3h-66.5L1232.8,814.6z M1292.3,775.6l6.7,61.3l0.2,2.1l0.8,6.8v0.1l-5.3-3.1l-1.6-1
			l-11.4-6.6l-5.4-3.1l-41.1-23.7l41.1-23.7l5.4-3.1L1292.3,775.6z M1284.8,707l4.1,37.2l1,8.7l0.3,2.5l0.9,8.2l-9.3-5.4l-5.4-3.1
			l-9.9-5.7v-35.8l9.1-5.2l0.9-0.5l1.5-0.9l6.6-3.8L1284.8,707z M1283.6,696l-17.2,10v-10H1283.6z M1282.8,689.4l0.2,2.2h-50.3
			v-31.1l30.8,17.8L1282.8,689.4z M1276.4,630.7l1.7,15.6l3.9,35.1l-16.7-9.7l-30-17.3L1276.4,630.7z M1232.8,648.4v-24.3h42.1
			L1232.8,648.4z M1238.8,567v52.6h-6v-57.5h6V567z M1265,619.7h-24.9v-4.8h24.9V619.7z M1265,613.6h-24.9v-8.2h24.9V613.6z
			 M1265,604h-24.9v-8.2h24.9V604z M1265,594.4h-24.9v-8.2h24.9V594.4z M1265,584.8h-24.9v-8.3h24.9V584.8z M1265,575.3h-24.9V567
			h24.9V575.3z M1265,565.7h-24.9v-3.6h24.9V565.7z M1219.3,648.4l-3.6-2.1l-1.3-0.8l-1.6-0.9v-20.5h6.5V648.4z M1185.3,624.1v4.6
			l-7.9-4.6H1185.3z M1175.8,630.7l9.5,5.5v36.5l-15.1,8.7L1175.8,630.7z M1169.4,689.4l15.9-9.2v11.4h-16.1L1169.4,689.4z
			 M1219.3,696v29.3l-0.6-0.3v0l-50.1-29H1219.3z M1167.8,703.2l49,28.4l-55.7,32.1L1167.8,703.2z M1152.2,845.9l7.7-70.3l6.9,4l0,0
			v57.9l0,0L1152.2,845.9L1152.2,845.9z M1155.2,851.7l11.5-6.7l0,0v8h-13.9L1155.2,851.7z M1509.7,853l-1.4-17h8.5l3,17L1509.7,853
			z M1513.4,817.2c0,0.1,0,0.1,0.1,0.2l2.5,14h-8.1l-2.4-28.7l4.9-2.9L1513.4,817.2z M1509,792.2h-4.4l-2.6-30.9l1.4-1L1509,792.2z
			 M1501.4,752.9l-0.7-8.3l1.5,8.3H1501.4z M1596.4,794.3l-1.9,3.5v-3.5H1596.4z M1576.5,832.6l12.5-23.3v23.3H1576.5z
			 M1608.4,800.1h-2.9v32.4h-8.1v-32.4h-2.9v-1l2.6-4.7h11.4L1608.4,800.1z M1600.2,791.8h-1.7l1.7-3.2V791.8z M1602.8,768.3h7.7
			l-7.7,14.3V768.3z M1723.6,566.7v-21h4.7v21H1723.6z M1722.5,566.7h-4.7v-21h4.7V566.7z M1716.9,566.7h-4.7v-21h4.7L1716.9,566.7z
			 M1718.2,569.4L1718.2,569.4c-1.2,1.7-2.6,3.2-4.3,4.4h-8.2v1.5h2v1.6c0,0,0,0,0,0c-0.7,0.3-1.4,0.5-2.2,0.7v-8.2L1718.2,569.4z
			 M1715.6,582.3C1715.6,582.3,1715.5,582.3,1715.6,582.3c-2.1,1-4.3,1.7-6.6,2.2h0v-6.3h0c2-0.7,3.9-1.6,5.7-2.8h0.9L1715.6,582.3z
			 M1716.8,575.4h2.2v5.2l0,0c-0.7,0.4-1.4,0.8-2.2,1.1l0,0L1716.8,575.4z M1709,622.5v-10.6h6.6v10.6L1709,622.5z M1715.6,624.1
			v10.6h-6.6v-10.6L1715.6,624.1z M1709,610.4v-10.6h6.6v10.6L1709,610.4z M1709,598.2v-10.6h6.6v10.6H1709z M1709,586L1709,586
			C1709,585.9,1709,585.9,1709,586c2.3-0.6,4.4-1.2,6.6-2.1c0,0,0,0,0,0v2.1H1709z M1705.5,579.2c0.8-0.2,1.5-0.4,2.2-0.6
			c0,0,0,0,0,0v6.2c0,0,0,0,0,0c-0.7,0.2-1.4,0.3-2.2,0.5V579.2z M1709,576.4v-1.1h2.4C1710.6,575.8,1709.8,576.2,1709,576.4
			C1709,576.4,1709,576.4,1709,576.4L1709,576.4z M1705.5,586.7c0,0,0.1,0,0.1,0v0.9h2v10.6h-2v1.5h2v10.6h-2v1.5h2v10.6h-2v1.5h2
			v10.6h-2v1.5h2v7l-1.9-3.6l-0.3,0.1l0,0V586.7z M1728.2,682.6v6.1h-4.7V674L1728.2,682.6z M1723.6,672.7v-5.1h4.7v13.7
			L1723.6,672.7z M1729.2,688.7v-4.2l2.2,4.2H1729.2z M1722.5,688.7h-4.7v-21h2.3l2.4,4.4L1722.5,688.7z M1718.2,691.5
			C1718.2,691.5,1718.2,691.5,1718.2,691.5c-2.4,3.7-7,6.7-12.7,8.2v-8.2H1718.2z M1716.9,688.7h-4.7v-21h4.7L1716.9,688.7z
			 M1711.2,688.7h-4.7v-21h4.7V688.7z M1729.9,691.5c-3.3,7.7-12.6,13.8-24.4,15.8v-6.1c6.9-1.6,12.4-5.2,15-9.7l0,0L1729.9,691.5
			L1729.9,691.5z M1733.9,688.7h-1.8l-2.9-5.4v-15.6h4.7L1733.9,688.7z M1722.5,667.7v3.2l-1.7-3.2L1722.5,667.7z M1719.8,666.9
			h-14.2v-26.4l2.2,4.1v2.4h-2v1.5h4.2L1719.8,666.9z M1709,646.9L1709,646.9L1709,646.9L1709,646.9z M1709.6,646.9l-0.7-1.3v-9.4
			h6.6v10.6L1709.6,646.9z M1719,646.9h-2.2v-10.6h2.2L1719,646.9z M1719,634.7h-2.2v-10.6h2.2L1719,634.7z M1719,622.5h-2.2v-10.6
			h2.2L1719,622.5z M1719,610.4h-2.2v-10.6h2.2L1719,610.4z M1719,598.2h-2.2v-10.6h2.2L1719,598.2z M1719,586h-2.2v-2.6h0
			c0.7-0.3,1.5-0.6,2.2-1l0,0L1719,586z M1729.9,569.4c-1.7,4-5.1,7.6-9.6,10.4h0v-6h-3.5c1.5-1.3,2.8-2.7,3.8-4.4l0,0L1729.9,569.4
			L1729.9,569.4z M1733.9,566.7h-4.7v-21h4.7V566.7z M1711.2,545.6v21h-5.7v-21L1711.2,545.6z M1723.1,511.3l-6.1,4V513l1.5-1.8
			v-15.6h4.6L1723.1,511.3z M1684.5,569.2v97.7h-2.4v-80.7c0.8,0.2,1.6,0.4,2.4,0.5v-1.4c-0.8-0.1-1.6-0.3-2.4-0.6v-6.2
			c0.8,0.3,1.5,0.5,2.4,0.7v-1.5c-0.9-0.2-1.6-0.4-2.4-0.7v-7.5h2.4v-2.8h-5.7v-21h5.7L1684.5,569.2z M1678.6,782.6l-10.5,15.1h-1.3
			v-19.1h11.8L1678.6,782.6z M1666.8,775.9v-19.1h11.8v19.1H1666.8z M1676.3,647.2l3.3-6.2v25.9h-3.3V647.2z M1661.8,566.7v-21h4.7
			v21L1661.8,566.7z M1667.5,545.6h4.7v21h-4.7V545.6z M1684.5,669.7v19.1h-3.7v-19.1L1684.5,669.7z M1679.7,575.9
			c-1.2-0.5-2.3-1.2-3.3-1.9v-4.5h3.3V575.9z M1673.2,566.7v-21h4.7v21L1673.2,566.7z M1673.9,569.4v2.5c-0.8-0.8-1.5-1.6-2.1-2.5
			l0,0L1673.9,569.4z M1676.3,575.9c1.1,0.6,2.2,1.2,3.3,1.7v6.5c-1.1-0.3-2.2-0.7-3.3-1.1V575.9z M1678.6,669.7v19.1h-11.8v-19.1
			L1678.6,669.7z M1678.6,691.5v19.1h-11.8v-19.1H1678.6z M1678.6,713.3v19.1h-11.8v-19.1L1678.6,713.3z M1680.9,732.3v-19.1h3.7
			v19.1L1680.9,732.3z M1684.5,735.1v19.1h-3.7v-19.1H1684.5z M1678.6,735.1v19.1h-11.8v-19.1H1678.6z M1680.9,756.9h3.7v19.1h-3.7
			V756.9z M1680.9,710.5v-19.1h3.7v19.1H1680.9z M1660.8,545.6v21h-4.7v-21H1660.8z M1660.1,569.4L1660.1,569.4l9.3,0l0,0
			c1.1,1.9,2.6,3.6,4.4,4.9v7.7C1667.3,579,1662.4,574.6,1660.1,569.4L1660.1,569.4z M1676.3,584.6c1.1,0.4,2.2,0.8,3.3,1.1v54.1
			l-3.3,6.2V584.6z M1673.9,651.7v15.2h-8.2L1673.9,651.7z M1660.6,669.7h3l-3,5.5V669.7z M1660.6,676.4l3.6-6.7h0.3v19.1h-3.9
			V676.4z M1660.6,691.5h3.9v19.1h-3.9V691.5z M1660.6,713.3h3.9v19.1h-3.9V713.3z M1660.6,735.1h3.9v19.1h-3.9V735.1z
			 M1660.6,756.9h3.9v19.1h-3.9V756.9z M1660.6,797.7v-19.1h3.9v19.1L1660.6,797.7z M1668.8,797.7l9.8-14.1v14.1H1668.8z
			 M1684.5,797.7h-3.7v-19.1h3.7V797.7L1684.5,797.7z"/>
		<polygon class="st2" points="1597.2,843.8 1573.9,843.8 1573.9,853 1625.6,853 1625.6,843.8 1605.7,843.8 		"/>
		<rect x="1" y="868.6" class="st2" width="2001.5" height="162.6"/>
	</g>
</g>
</svg>
