<svg xmlns="http://www.w3.org/2000/svg" viewBox="0 0 420 107"><title>cust</title><polygon points="377.204 106.614 119.645 106.614 162.175 0.083 419.733 0.083 377.204 106.614" style="fill:#f94e4e"/><polygon points="149.575 0.083 107.054 106.614 119.965 106.614 162.486 0.083 149.575 0.083" style="fill:#b73030"/><polygon points="137.749 0.083 42.166 0.083 -0.355 106.614 95.228 106.614 107.054 106.614 149.575 0.083 137.749 0.083" style="fill:#f4f4f4"/><path d="M74.3742,53.3483A13.8747,13.8747,0,1,0,60.5,39.4737,13.8736,13.8736,0,0,0,74.3742,53.3483Zm9.7122,3.4687h-1.81a18.8693,18.8693,0,0,1-15.8041,0h-1.81A14.5722,14.5722,0,0,0,50.0935,71.3854v4.5092a5.2043,5.2043,0,0,0,5.203,5.203H93.4518a5.2043,5.2043,0,0,0,5.203-5.203V71.3854A14.5721,14.5721,0,0,0,84.0864,56.817Z" style="fill:#f94e4e"/><path d="M201.5928,70.3262a15.2053,15.2053,0,0,1-5.2432.8779,17.2161,17.2161,0,0,1-8.7969-2.2051,15.2373,15.2373,0,0,1-5.8506-5.94,16.8405,16.8405,0,0,1-2.0468-8.2344,17.9937,17.9937,0,0,1,2.0693-8.6631,15.3188,15.3188,0,0,1,5.7383-6.03,15.9258,15.9258,0,0,1,8.3017-2.1817,17.6873,17.6873,0,0,1,5.13.72,17.966,17.966,0,0,1,4.2754,1.89l-1.7549,4.0947a13.3432,13.3432,0,0,0-7.5146-2.52,10.8348,10.8348,0,0,0-5.8281,1.665,12.2644,12.2644,0,0,0-4.2744,4.5225A12.6429,12.6429,0,0,0,184.2,54.5986a13.6367,13.6367,0,0,0,1.4619,6.3448,10.7329,10.7329,0,0,0,4.1856,4.4326,13.0154,13.0154,0,0,0,13.8828-.877l1.8447,3.9151A19.3857,19.3857,0,0,1,201.5928,70.3262Z" style="fill:#f4f4f4"/><path d="M229.1992,52.2139v18.63H225.42l-.27-3.5547a7.4828,7.4828,0,0,1-2.9248,3.082,8.3844,8.3844,0,0,1-4.41,1.1924,5.88,5.88,0,0,1-4.2071-1.5518,5.5893,5.5893,0,0,1-1.7334-4.0283V52.2139H216.06V64.499a3.9327,3.9327,0,0,0,.9228,2.4971,3.3184,3.3184,0,0,0,2.4971.9678,4.6136,4.6136,0,0,0,2.79-.9229,6.3417,6.3417,0,0,0,2.003-2.542,8.5546,8.5546,0,0,0,.7421-3.6006V52.2139Z" style="fill:#f4f4f4"/><path d="M237.8164,70.5283a7.3059,7.3059,0,0,1-3.0381-2.1142l1.8008-2.4307a8.9012,8.9012,0,0,0,2.3623,1.665,5.69,5.69,0,0,0,2.4522.585,4.5516,4.5516,0,0,0,2.4306-.585,1.9677,1.9677,0,0,0,.9444-1.8,2.0724,2.0724,0,0,0-.585-1.53,3.61,3.61,0,0,0-1.3272-.8545q-.7427-.27-2.498-.8106-4.77-1.5293-4.7695-5.4443a5.3558,5.3558,0,0,1,1.7324-4.0049,6.6934,6.6934,0,0,1,4.8379-1.665,11.3988,11.3988,0,0,1,3.51.4951,8.5689,8.5689,0,0,1,2.835,1.5742l-1.665,2.5654a5.1218,5.1218,0,0,0-1.8223-1.2148,6.3285,6.3285,0,0,0-2.0928-.4951,3.7666,3.7666,0,0,0-2.16.6074,1.9735,1.9735,0,0,0-.3145,3.06,3.7063,3.7063,0,0,0,1.2149.8105q.63.2475,2.4746.832a9.5021,9.5021,0,0,1,3.5771,1.98,4.3085,4.3085,0,0,1,1.2832,3.2852,5.8132,5.8132,0,0,1-1.8906,4.455,7.5772,7.5772,0,0,1-5.3545,1.7549A10.8542,10.8542,0,0,1,237.8164,70.5283Z" style="fill:#f4f4f4"/><path d="M260.8789,44.0234v8.2354h5.085v3.33h-5.085V70.8438h-4.2295V55.5889h-3.42v-3.33h3.42V44.0234Z" style="fill:#f4f4f4"/><path d="M270.7559,56.3311a9.51,9.51,0,0,1,3.69-3.5772,10.8356,10.8356,0,0,1,5.332-1.3047,10.5843,10.5843,0,0,1,5.2871,1.3047,9.3239,9.3239,0,0,1,3.6006,3.5547,10.0051,10.0051,0,0,1,1.2822,5.04,10.1227,10.1227,0,0,1-1.2822,5.0625,9.23,9.23,0,0,1-3.623,3.5772,10.8044,10.8044,0,0,1-5.3545,1.3056,11.0953,11.0953,0,0,1-5.2656-1.2373,9.1219,9.1219,0,0,1-3.667-3.4882,10.0676,10.0676,0,0,1-1.3272-5.22A9.762,9.762,0,0,1,270.7559,56.3311Zm3.69,8.3027a6.0081,6.0081,0,0,0,2.1592,2.34,5.9155,5.9155,0,0,0,7.3574-.99,6.491,6.491,0,0,0,1.71-4.59,6.5741,6.5741,0,0,0-1.71-4.6123,5.6071,5.6071,0,0,0-4.3193-1.8672,5.4926,5.4926,0,0,0-3.0606.8769,6.26,6.26,0,0,0-2.1367,2.3623,7.0551,7.0551,0,0,0,0,6.48Z" style="fill:#f4f4f4"/><path d="M323.7656,52.9785a5.65,5.65,0,0,1,1.6875,4.05V70.8438h-4.1855V58.5586q-.1349-3.2842-2.97-3.4648a4.6916,4.6916,0,0,0-2.9024.9677,6.4991,6.4991,0,0,0-2.0029,2.542,8.53,8.53,0,0,0-.7647,3.375v8.8653h-4.23V58.5586q-.1348-3.2842-3.06-3.4648a4.625,4.625,0,0,0-2.8574.9677,6.469,6.469,0,0,0-2.003,2.5645,8.17,8.17,0,0,0-.72,3.3974v8.82h-4.1855v-18.63h3.78l.3155,3.51a7.9646,7.9646,0,0,1,2.9472-3.1494,8.076,8.076,0,0,1,4.253-1.125,6.4944,6.4944,0,0,1,3.7793,1.0567,4.7962,4.7962,0,0,1,1.98,2.9033,8.715,8.715,0,0,1,2.97-2.9033,7.5173,7.5173,0,0,1,3.87-1.0567A5.957,5.957,0,0,1,323.7656,52.9785Z" style="fill:#f4f4f4"/><path d="M345.9727,66.0742l1.9355,3.1045a13.027,13.027,0,0,1-3.2178,1.5527,10.8348,10.8348,0,0,1-3.3525.5625,11.0272,11.0272,0,0,1-5.4229-1.2822,9.0038,9.0038,0,0,1-3.5771-3.5332,10.2163,10.2163,0,0,1-1.26-5.0849A9.5243,9.5243,0,0,1,332.45,56.376a9.9575,9.9575,0,0,1,3.7578-3.6,10.555,10.555,0,0,1,5.22-1.3272,8.9564,8.9564,0,0,1,6.0977,2.1367,10.9851,10.9851,0,0,1,3.3525,5.9629l-14.76,5.1748A5.85,5.85,0,0,0,338.3,66.9063a6.1692,6.1692,0,0,0,3.1279.7871A7.5969,7.5969,0,0,0,345.9727,66.0742Zm-9.09-9.4951a6.4924,6.4924,0,0,0-1.665,4.59,8.8907,8.8907,0,0,0,.0449,1.0352l10.8447-4.0049a6.1953,6.1953,0,0,0-1.9121-2.4756,4.9329,4.9329,0,0,0-3.083-.9453A5.5087,5.5087,0,0,0,336.8828,56.5791Z" style="fill:#f4f4f4"/><path d="M362.1943,53.9238a10.3923,10.3923,0,0,1,2.8125-1.8,7.6157,7.6157,0,0,1,2.61-.6748l-.18,4.1846a6.8581,6.8581,0,0,0-3.668.81,6.5178,6.5178,0,0,0-2.5644,2.498,6.6873,6.6873,0,0,0-.9229,3.3975v8.5049h-4.1855v-18.63h3.7353l.3155,4.41A8.2738,8.2738,0,0,1,362.1943,53.9238Z" style="fill:#f4f4f4"/></svg>