<svg version="1.1" id="Layer_1" xmlns="http://www.w3.org/2000/svg" x="0" y="0" viewBox="0 0 2002.5 1030" xml:space="preserve"><style>.st1{fill:#14384c}.st2{fill:#222c36}.st3{fill:#ff9a44}.st4{fill:#fc6037}.st5{fill:#d8e3db}.st6{fill:#fffff6}.st7{fill:#ffca00}.st8{fill:#fdae0b}.st9{fill:#304153}</style><g opacity=".5"><path class="st1" d="M1905.5 913c0-2.5-2-4.5-4.6-4.5v-1.6h-4v1.6h-1.6v-53c0-26.8-21.7-48.5-48.5-48.5h-23.3v-1.3c-.2-5.9-5.1-10.6-11.1-10.4-5.7.2-10.2 4.7-10.4 10.4v1.3h-98.2v-1.3c0-5.9-4.8-10.7-10.8-10.7-5.9 0-10.7 4.8-10.7 10.7v1.3h-98.2v-1.3c0-5.9-4.8-10.7-10.8-10.7-5.9 0-10.7 4.8-10.7 10.7v1.3h-98.2v-1.3c-.2-5.9-5.1-10.6-11.1-10.4-5.7.2-10.2 4.7-10.4 10.4v1.3h-98.2v-1.3c0-5.9-4.8-10.7-10.7-10.8-5.9 0-10.7 4.8-10.8 10.7v1.3h-95l.3-.4V802h-7v-2.6h-.1l9-16.6h4.6c2.2 0 4-1.8 4-4s-1.8-4-4-4h-41.6c-2.2 0-4 1.8-4 4s1.8 4 4 4h4.4l9 16.6v2.6h-7.2v4.5l.3.4h-94.8v-1.3c0-5.9-4.8-10.7-10.7-10.8-5.9 0-10.7 4.8-10.8 10.7v1.3h-98.3v-1.3c0-5.9-4.8-10.7-10.7-10.7s-10.7 4.8-10.7 10.7v1.3H866v-1.3c0-5.9-4.8-10.7-10.7-10.7s-10.7 4.8-10.7 10.7v1.3h-98.3v-1.3c0-5.9-4.8-10.7-10.7-10.7s-10.7 4.8-10.7 10.7v1.3h-98.2v-1.3c0-5.9-4.8-10.7-10.7-10.7s-10.7 4.8-10.7 10.7v1.3h-33.9c-26.8 0-48.5 21.7-48.5 48.4v53h-1.6v-1.6h-4v1.6c-2.5 0-4.5 2-4.5 4.5v3.3h45v-.1h9.8V913c0-2.5-2-4.5-4.5-4.5v-1.6h-4v1.6H558v-53c0-7.6 6.1-13.7 13.7-13.7h33.8v.3c0 5.9 4.8 10.7 10.7 10.7s10.7-4.8 10.7-10.7v-.3h98.2v.3c0 5.9 4.8 10.7 10.7 10.7s10.7-4.8 10.7-10.7v-.3h98.2v.3c0 5.9 4.8 10.7 10.7 10.7s10.7-4.8 10.7-10.7v-.3h98.2v.3c0 5.9 4.8 10.7 10.7 10.7s10.7-4.8 10.7-10.7v-.3h98.2v.3c0 5.9 4.8 10.7 10.7 10.8 5.9 0 10.7-4.8 10.8-10.7v-.3h97.3c1.2 6.4 7.4 10.5 13.8 9.3 4.7-.9 8.4-4.6 9.3-9.3h97.6v.3c0 5.9 4.8 10.7 10.8 10.7 5.9 0 10.7-4.8 10.7-10.7v-.3h98.3v.3c.2 5.9 5.1 10.6 11.1 10.4 5.7-.2 10.2-4.7 10.4-10.4v-.3h98.2v.3c0 5.9 4.8 10.7 10.8 10.7 5.9 0 10.7-4.8 10.7-10.7v-.3h98.2v.3c0 5.9 4.8 10.7 10.8 10.7 5.9 0 10.7-4.8 10.7-10.7v-.3h98.2v.3c.2 5.9 5.1 10.6 11.1 10.4 5.7-.2 10.2-4.7 10.4-10.4v-.3h23.3c7.6 0 13.7 6.1 13.7 13.7v53h-1.1V907h-4v1.6c-2.5 0-4.6 2-4.6 4.5v3.2h9.8v.1h45l-.4-3.4zm-685.3-113.6h-5.2v-16.6h14.2l-9 16.6zm-20.8-16.6h14.3v16.6h-5.3l-9-16.6zm-809.8 67.5H412v8.8h-49.7v-8.8h19.1z"/><path class="st1" d="M1 874.1h2009V1030H1z"/></g><path class="st2" d="M1 959.1h2009v13.2H1z"/><path class="st3" d="M479.5 837.4h61.7v35.1h-61.7zm0 35.1h61.7v62.4h-61.7z"/><path class="st4" d="M510.3 837.4h30.8v35.1h-30.8zm0 35.1h30.8v62.4h-30.8zm-30.8 0h30.8v2.9h-30.8z"/><path class="st3" d="M510.3 872.5h30.8v2.9h-30.8z"/><path class="st5" d="M483.5 841.5h53.6v27.8h-53.6z"/><path class="st4" d="M483.5 841.5h26.8v27.8h-26.8z"/><path class="st3" d="M510.3 841.5h26.8v27.8h-26.8z"/><path class="st6" d="M486.4 844.8h24v21.3h-24z"/><path class="st5" d="M510.3 844.8h24v21.3h-24z"/><path class="st2" d="M500.1 848h20.5v4.6h-20.5zm0 10.3h20.5v4.6h-20.5z"/><path class="st6" d="M518.3 848.6c-.6 0-1.1.5-1.1 1.1v1.3c0 .6.5 1.1 1.1 1.1.6 0 1.1-.5 1.1-1.1v-1.3c0-.6-.4-1.1-1.1-1.1zm.7 2.4c0 .4-.3.7-.7.7-.4 0-.7-.3-.7-.7v-1.3c0-.4.3-.7.7-.7.4 0 .7.3.7.7v1.3zm-3.4-2.4c-.6 0-1.1.5-1.1 1v1.3c0 .6.5 1.1 1.1 1.1.6 0 1.1-.5 1.1-1.1v-1.3c0-.5-.5-1-1.1-1zm.7 2.4c0 .4-.3.7-.7.7-.4 0-.7-.3-.7-.7v-1.3c0-.4.3-.7.7-.7.4 0 .7.3.7.7v1.3zm-4.4-2.4c-.6 0-1.1.5-1.1 1.1v1.3c0 .6.5 1.1 1.1 1.1.6 0 1.1-.5 1.1-1.1v-1.3c0-.6-.5-1.1-1.1-1.1zm.7 2.4c0 .4-.3.7-.7.7-.4 0-.7-.3-.7-.7v-1.3c0-.4.3-.7.7-.7.4 0 .7.3.7.7v1.3zm-3.5-2.4c-.6 0-1.1.5-1.1 1.1v1.3c0 .6.5 1.1 1.1 1.1.6 0 1.1-.5 1.1-1.1v-1.3c0-.6-.4-1.1-1.1-1.1zm.7 2.4c0 .4-.3.7-.7.7s-.7-.3-.7-.7v-1.3c0-.4.3-.7.7-.7s.7.3.7.7v1.3zm3.9.4c-.2 0-.3.2-.4.4 0 .2.2.3.4.3s.3-.2.3-.3c0-.2-.1-.4-.3-.4zm-.1.3c.1-.1.1-.1 0 0 .1.1 0 .1 0 0zm4.7 7.1c-.6 0-1.1.5-1.1 1.1v1.3c0 .6.5 1.1 1.1 1.1.6 0 1.1-.5 1.1-1.1v-1.3c0-.7-.4-1.1-1.1-1.1zm.7 2.4c0 .4-.3.7-.7.7-.4 0-.7-.3-.7-.7v-1.3c0-.4.3-.7.7-.7.4 0 .7.3.7.7v1.3zm-3.4-2.4c-.6 0-1.1.5-1.1 1.1v1.3c0 .6.5 1.1 1.1 1.1.6 0 1.1-.5 1.1-1.1v-1.3c0-.7-.5-1.1-1.1-1.1zm.7 2.4c0 .4-.3.7-.7.7-.4 0-.7-.3-.7-.7v-1.3c0-.4.3-.7.7-.7.4 0 .7.3.7.7v1.3zm-4.4-2.4c-.6 0-1.1.5-1.1 1.1v1.3c0 .6.5 1.1 1.1 1.1.6 0 1.1-.5 1.1-1.1v-1.3c0-.7-.5-1.1-1.1-1.1zm.7 2.4c0 .4-.3.7-.7.7-.4 0-.7-.3-.7-.7v-1.3c0-.4.3-.7.7-.7.4 0 .7.3.7.7v1.3zm-3.5-2.4c-.6 0-1.1.5-1.1 1.1v1.3c0 .6.5 1.1 1.1 1.1s1.1-.5 1.1-1.1v-1.3c0-.7-.4-1.1-1.1-1.1zm.7 2.4c0 .4-.3.7-.7.7s-.7-.3-.7-.7v-1.3c0-.4.3-.7.7-.7s.7.3.7.7v1.3zm3.9.4c-.2 0-.4.1-.4.3 0 .2.1.4.3.4h.1c.2 0 .3-.2.3-.4s-.1-.3-.3-.3zm-.1.4c0-.1 0-.1 0 0 .1-.1.1-.1 0 0 .1 0 .1 0 0 0z"/><path class="st7" d="M526.8 886.8c-.6 0-1 .4-1 1s.4 1 1 1 1-.4 1-1-.4-1-1-1zm0 1.6c-.4 0-.6-.3-.6-.6 0-.4.3-.6.6-.6.4 0 .6.3.6.6s-.2.6-.6.6c0 .1 0 .1 0 0z"/><path class="st8" d="M493.9 886.8c-.6 0-1 .4-1 1s.4 1 1 1 1-.4 1-1c-.1-.6-.5-1-1-1zm0 1.6c-.4.1-.7-.2-.7-.6-.1-.4.2-.7.6-.7h.2c.4.1.6.4.6.7-.2.3-.4.6-.7.6z"/><path class="st7" d="M526.8 923c-.6 0-1 .4-1 1s.4 1 1 1 1-.4 1-1c0-.5-.4-.9-1-1zm0 1.6c-.4 0-.6-.3-.7-.6 0-.4.3-.6.6-.7.4 0 .6.3.7.6 0 .5-.2.8-.6.7 0 .1 0 .1 0 0z"/><path class="st8" d="M493.9 923c-.6 0-1 .4-1 1s.4 1 1 1 1-.4 1-1c-.1-.5-.5-.9-1-1zm0 1.6c-.4 0-.6-.3-.7-.6 0-.4.3-.6.6-.7.4 0 .6.3.7.6 0 .5-.2.8-.6.7 0 .1 0 .1 0 0z"/><path class="st5" d="M543.7 813.5h8.8V935h-8.8z"/><path class="st6" d="M467.5 813.5h8.8V935h-8.8z"/><path class="st6" d="M467.5 934.9h42.8v13.6h-42.8z"/><path class="st5" d="M510.3 934.9h42.1v13.6h-42.1zm-51.5 13.6h51.5v3.5h-51.5z"/><path class="st6" d="M510.3 948.5h51.5v3.5h-51.5zm-51.5-154.6h51.5v19.5h-51.5z"/><path class="st5" d="M510.3 793.9h51.5v19.5h-51.5z"/><path class="st5" d="M453.1 789.7h57.2v4.2h-57.2z"/><path class="st6" d="M510.3 789.7h57.2v4.2h-57.2z"/><path class="st7" d="M503.1 803.7c0 4 3.1 7.3 7.2 7.5v-15.1c-4 .3-7.2 3.6-7.2 7.6z"/><path class="st8" d="M510.7 796.1c-.2 0-.2 0-.4.1v15.1c.2 0 .2.1.4.1 4.2 0 7.6-3.4 7.6-7.6 0-4.3-3.4-7.7-7.6-7.7z"/><path class="st3" d="M415.2 752h9.9v200h-9.9z"/><path class="st4" d="M425.1 752h9.8v200h-9.8z"/><path class="st3" d="M585.7 752h9.9v200h-9.9z"/><path class="st4" d="M595.6 752h9.9v200h-9.9z"/><path class="st3" d="M697.3 837.4H759v35.1h-61.7zm0 35.1H759v62.4h-61.7z"/><path class="st4" d="M728.1 837.4h30.8v35.1h-30.8zm0 35.1h30.8v62.4h-30.8zm-30.8 0h30.8v2.9h-30.8z"/><path class="st3" d="M728.1 872.5h30.8v2.9h-30.8z"/><path class="st5" d="M701.4 841.5H755v27.8h-53.6z"/><path class="st4" d="M701.4 841.5h26.8v27.8h-26.8z"/><path class="st3" d="M728.1 841.5h26.8v27.8h-26.8z"/><path class="st6" d="M704.1 844.8h24v21.3h-24z"/><path class="st5" d="M728.1 844.8h24v21.3h-24z"/><path class="st2" d="M717.8 848h20.5v4.6h-20.5zm0 10.3h20.5v4.6h-20.5z"/><path class="st6" d="M736.1 848.6c-.6 0-1.1.5-1.1 1.1v1.3c0 .6.5 1.1 1.1 1.1.6 0 1.1-.5 1.1-1.1v-1.3c0-.6-.5-1.1-1.1-1.1zm.7 2.4c.1.4-.2.7-.6.8-.4.1-.7-.2-.8-.6v-1.5c-.1-.4.2-.7.6-.8s.7.2.8.6v1.5zm-3.5-2.4c-.6 0-1.1.5-1.1 1v1.3c0 .6.5 1.1 1.1 1.1.6 0 1.1-.5 1.1-1.1v-1.3c.1-.5-.4-1-1.1-1zm.8 2.4c-.1.4-.4.7-.8.6-.3 0-.6-.3-.6-.6v-1.3c.1-.4.4-.7.8-.6.3 0 .6.3.6.6v1.3zm-4.5-2.4c-.6 0-1.1.5-1.1 1.1v1.3c0 .6.5 1.1 1.1 1.1.6 0 1.1-.5 1.1-1.1v-1.3c.1-.6-.4-1.1-1.1-1.1.1 0 0 0 0 0zm.8 2.4c.1.4-.2.7-.6.8-.4.1-.7-.2-.8-.6v-1.5c-.1-.4.2-.7.6-.8.4-.1.7.2.8.6v1.5zm-3.5-2.4c-.6 0-1.1.5-1.1 1.1v1.3c.1.6.6 1.1 1.2 1 .6-.1 1-.5 1-1v-1.3c.1-.6-.5-1.1-1.1-1.1.1 0 0 0 0 0zm.7 2.4c-.1.4-.4.6-.8.6-.3 0-.6-.3-.6-.6v-1.3c-.1-.4.2-.7.6-.8.4-.1.7.2.8.6v1.5zm3.9.4c-.2 0-.3.2-.3.4s.2.3.3.3c.2 0 .3-.2.3-.3 0-.2-.1-.4-.3-.4zm-.1.3s.1 0 0 0c.1-.1.1-.1 0 0 .1.1 0 .1 0 0zm4.7 7.1c-.6 0-1.1.5-1.1 1.1v1.3c0 .6.5 1.1 1.1 1.1.6 0 1.1-.5 1.1-1.1v-1.3c0-.7-.5-1.1-1.1-1.1zm.7 2.4c.1.4-.2.7-.6.8-.4.1-.7-.2-.8-.6v-1.5c-.1-.4.2-.7.6-.8.4-.1.7.2.8.6v1.5zm-3.5-2.4c-.6 0-1.1.5-1.1 1.1v1.3c0 .6.5 1.1 1.1 1.1.6 0 1.1-.5 1.1-1.1v-1.3c.1-.7-.4-1.1-1.1-1.1zm.8 2.4c-.1.4-.4.7-.8.6-.3 0-.6-.3-.6-.6v-1.3c.1-.4.4-.7.8-.6.3 0 .6.3.6.6v1.3zm-4.5-2.4c-.6 0-1.1.5-1.1 1.1v1.3c0 .6.5 1.1 1.1 1.1.6 0 1.1-.5 1.1-1.1v-1.3c.1-.7-.4-1.1-1.1-1.1.1 0 0 0 0 0zm.8 2.4c.1.4-.2.7-.6.8-.4.1-.7-.2-.8-.6v-1.5c-.1-.4.2-.7.6-.8.4-.1.7.2.8.6v1.5zm-3.5-2.4c-.6 0-1.1.5-1.1 1.1v1.3c-.1.6.4 1.2 1 1.2.6.1 1.2-.4 1.2-1v-1.5c0-.7-.5-1.1-1.1-1.1zm.7 2.4c.1.4-.2.7-.6.8-.4.1-.7-.2-.8-.6v-1.5c-.1-.4.2-.7.6-.8.4-.1.7.2.8.6v1.5zm3.9.4c-.2 0-.3.2-.3.4s.2.2.3.3c.2 0 .3-.2.3-.4-.1-.2-.1-.3-.3-.3zm-.1.4c0-.1.1-.1 0 0 .1-.1.1 0 0 0 .1 0 .1 0 0 0 .1 0 0 0 0 0z"/><path class="st7" d="M744.6 886.8c-.6 0-1 .4-1 1s.4 1 1 1 1-.4 1-1c-.1-.6-.5-1-1-1zm0 1.6c-.4.1-.7-.2-.7-.6-.1-.4.2-.7.6-.7h.2c.4.1.6.4.6.7-.1.3-.4.6-.7.6z"/><path class="st8" d="M711.6 886.8c-.6 0-1 .4-1 1s.4 1 1 1 1-.4 1-1-.4-1-1-1zm0 1.6c-.4 0-.6-.3-.6-.6 0-.4.3-.6.6-.6.4 0 .6.3.6.6.1.3-.2.6-.6.6 0 .1 0 .1 0 0z"/><path class="st7" d="M744.6 923c-.6 0-1 .4-1 1s.4 1 1 1 1-.4 1-1c0-.5-.5-.9-1-1zm0 1.6c-.4.1-.7-.2-.7-.6-.1-.4.2-.7.6-.7h.2c.4.1.6.4.6.7-.1.4-.3.6-.7.6z"/><path class="st8" d="M711.6 923c-.6 0-1 .4-1 1s.4 1 1 1 1-.4 1-1c0-.5-.4-.9-1-1zm0 1.6c-.4 0-.6-.3-.7-.6 0-.4.3-.6.6-.7.4 0 .6.3.7.6.1.5-.2.8-.6.7 0 .1 0 .1 0 0z"/><path class="st5" d="M761.4 813.5h8.8V935h-8.8z"/><path class="st6" d="M685.3 813.5h8.8V935h-8.8z"/><path class="st6" d="M685.3 934.9h42.8v13.6h-42.8z"/><path class="st5" d="M728.1 934.9h42.1v13.6h-42.1zm-51.5 13.6h51.5v3.5h-51.5z"/><path class="st6" d="M728.1 948.5h51.5v3.5h-51.5zm-51.5-154.6h51.5v19.5h-51.5z"/><path class="st5" d="M728.1 793.9h51.5v19.5h-51.5zm-57.2-4.2h57.2v4.2h-57.2z"/><path class="st6" d="M728.1 789.7h57.2v4.2h-57.2z"/><path class="st7" d="M720.9 803.7c0 4 3.1 7.3 7.2 7.5v-15.1c-4 .3-7.1 3.6-7.2 7.6z"/><path class="st8" d="M728.5 796.1c-.2 0-.2 0-.4.1v15.1c.2 0 .2.1.4.1 4.2 0 7.6-3.4 7.6-7.6 0-4.3-3.4-7.7-7.6-7.7z"/><path class="st3" d="M632.9 752h9.9v200h-9.9z"/><path class="st4" d="M642.9 752h9.9v200h-9.9z"/><path class="st3" d="M803.5 752h9.9v200h-9.9z"/><path class="st4" d="M813.4 752h9.9v200h-9.9z"/><path class="st4" d="M866.4 747.9v5.4H600.6V727h245c11.5 0 20.8 9.4 20.8 20.9z"/><path class="st3" d="M600.6 727v26.3H334.7v-5.4c0-11.5 9.4-20.9 20.9-20.9h245z"/><path class="st4" d="M414.7 697.6v3.8H227.4V683h172.5c8.2 0 14.8 6.6 14.8 14.6z"/><path class="st3" d="M227.4 683v18.6H40.1v-3.8c0-8.2 6.6-14.7 14.7-14.8h172.6z"/><path class="st6" d="M66 734.5h161.4v217.4H66z"/><path class="st5" d="M227.4 735.5h161.4v215.9H227.4z"/><path class="st4" d="M193.3 822.1v3.2h-46.5v-12h36.7c5.3 0 9.8 4 9.8 8.8z"/><path class="st3" d="M146.7 813.3v12h-46.6v-3.2c0-4.8 4.4-8.8 9.8-8.8h36.8z"/><path class="st9" d="M107.6 825.3h39.1v126.6h-39.1z"/><path class="st2" d="M146.7 825.3h39.1v126.6h-39.1z"/><path class="st9" d="M107.6 825.3h39.1v1.9h-39.1z"/><path class="st2" d="M146.7 825.3h39.1v1.9h-39.1z"/><path class="st9" d="M107.6 950h39.1v1.9h-39.1z"/><path class="st2" d="M146.7 950h39.1v1.9h-39.1z"/><path class="st9" d="M107.6 889.5h39.1v9.4h-39.1z"/><path class="st2" d="M146.7 889.5h39.1v9.4h-39.1z"/><path class="st5" d="M150.7 881.8h9.8v24.9h-9.8z"/><path class="st6" d="M133 881.8h9.8v24.9H133zm121.2 13.5H362v6.4H254.2z"/><path class="st9" d="M256.5 785.1h51.7v110.2h-51.7z"/><path class="st2" d="M308.1 785.1h51.7v110.2h-51.7z"/><path class="st3" d="M66 718.5h161.4v17H66z"/><path class="st4" d="M227.4 718.5h161.4v17H227.4z"/><path class="st6" d="M45.2 701.4h182.3v17.1H45.2z"/><path class="st5" d="M227.4 701.4h182.3v17.1H227.4z"/><path class="st2" d="M146.7 758.7h35.1c8.3 0 15.1 6.8 15.1 15.1v1.4c0 8.3-6.8 15.1-15.1 15.1h-35.1v-31.6z"/><path class="st9" d="M146.7 790.2h-35.1c-8.3 0-15.1-6.8-15.1-15.1v-1.4c0-8.3 6.8-15.1 15.1-15.1h35.1v31.6z"/><path class="st6" d="M45.2 952h832.9v7H45.2z"/><path class="st8" d="M376.1 911.2l-3 .7c-.5.2-1-.2-1.2-.6l-1.5-5.2c-.2-.5.2-1 .7-1.1l3-.7c.6-.2 1 .2 1.2.6l1.5 5.2c.2.5-.1 1-.7 1.1.1 0 .1 0 0 0z"/><path class="st8" d="M369.2 906.2l.2.9c0 .1.1.2.2.1l7.3-1.8c.1 0 .2-.1.1-.2l-.2-1-7.6 2z"/><path class="st7" d="M376.7 904.3l-.2-.9c0-.1-.1-.2-.2-.1l-7.3 1.8c-.1 0-.2.1-.1.2l.2 1 7.6-2z"/><path class="st8" d="M382.2 905.2h1.4l4-3.7h17.7v-.9h-17.8c-.2 0-.5.1-.6.2l-4.7 4.4z"/><path class="st7" d="M405.2 900.6v-.9H388c-.8 0-1.5.2-2.1.8l-.4.3-4.7 4.4h1.4l4.7-4.4c.2-.2.4-.2.6-.2h17.7z"/><path class="st7" d="M405.2 899.7c.9 0 1.5.6 1.6 1.5v47.6c-.2 1.9-1.7 3.2-3.6 3.1h-30.7c-1.9.1-3.5-1.3-3.6-3.1v-37.5c.2-1.9 1.8-3.2 3.6-3.1l5.7-.6 2.6-2.4h13c.7 0 4.8-.9 6.7-2.8.8-.7 1.3-2.7 4.7-2.7z"/><path class="st8" d="M405.2 899.7c-3.5 0-4 2-4.8 2.7-1.9 1.9-6 2.8-6.7 2.8h-4.9V952h14.4c1.9.1 3.5-1.3 3.6-3.1v-47.6c0-1-.7-1.6-1.6-1.6z"/><path class="st7" d="M395.5 936.4c0-.1.1-.2.1-.3v-13.3c0-.1 0-.2-.1-.3l6.5-6.1c.3-.2.3-.7.1-1l-.1-.1c-.3-.3-.8-.3-1.2 0l-6.3 6c-.2-.1-.5-.2-.6-.2h-5v16.7h5c.2 0 .5-.1.6-.2l6.4 6c.3.3.8.3 1.2 0 .3-.2.3-.7.1-1l-.1-.1-6.6-6.1zm-11.6-13h4.8v12.1h-4.8z"/><path class="st8" d="M388.8 923.4h4.8v12.1h-4.8z"/><path class="st2" d="M424.7 911.2l-3 .7c-.5.2-1-.2-1.2-.6l-1.5-5.2c-.2-.5.2-1 .7-1.1l3-.7c.6-.2 1 .2 1.2.6l1.5 5.2c.1.5-.2 1-.7 1.1z"/><path class="st2" d="M417.7 906.2l.2.9c0 .1.1.2.2.1l7.3-1.8c.1 0 .2-.1.1-.2l-.2-1-7.6 2z"/><path class="st9" d="M425.3 904.3l-.2-.9c0-.1-.1-.2-.2-.1l-7.3 1.8c-.1 0-.2.1-.1.2l.2 1 7.6-2z"/><path class="st2" d="M430.7 905.2h1.4l4-3.7h17.7v-.9H436c-.2 0-.5.1-.6.2l-4.7 4.4z"/><path class="st9" d="M453.7 900.6v-.9h-17.3c-.8 0-1.5.2-2.1.8l-.3.4-4.7 4.4h1.4l4.7-4.4c.2-.2.4-.2.6-.2l17.7-.1z"/><path class="st9" d="M453.7 899.7c.9 0 1.5.6 1.6 1.5v47.6c-.2 1.9-1.7 3.2-3.6 3.1H421c-1.9.1-3.5-1.3-3.6-3.1v-37.5c.2-1.9 1.8-3.2 3.6-3.1l5.7-.6 2.6-2.4h13c.7 0 4.8-.9 6.7-2.8.8-.7 1.4-2.7 4.7-2.7z"/><path class="st2" d="M453.7 899.7c-3.5 0-4 2-4.8 2.7-2 1.9-6 2.8-6.7 2.8h-4.9V952h14.4c1.9.1 3.5-1.3 3.6-3.1v-47.6c.1-1-.7-1.6-1.6-1.6zm-21.3 21.4c-.2 0-.5.1-.6.2l-6.4-6c-.3-.3-.8-.3-1.2 0-.3.2-.3.7-.1 1l.1.1 6.5 6.1c0 .1-.1.2-.1.3v13.3c0 .1 0 .2.1.3l-6.5 6.1c-.3.3-.3.7-.1 1l.1.1c.3.3.8.3 1.2 0l6.4-6c.1 0 .2.1.3.1s.2.1.3.1h4.8v-16.9h-4.8z"/><path class="st9" d="M444 936.4c0-.1.1-.2.1-.3v-13.3c0-.1 0-.2-.1-.3l6.5-6.1c.3-.2.3-.7.1-1l-.1-.1c-.3-.3-.8-.3-1.2 0l-6.4 6c-.2-.1-.5-.2-.6-.2h-4.9v16.7h5c.2 0 .5-.1.6-.2l6.4 6c.3.3.8.3 1.2 0 .3-.3.3-.7.1-1l-.1-.1-6.6-6.1zm-11.6-13h4.8v12.1h-4.8z"/><path class="st2" d="M437.3 923.4h4.8v12.1h-4.8z"/><path class="st6" d="M508.1 806.3h1.9v-4.8h-1.5v-1.2c.7-.2 1.5-.4 2.1-.8h1.5v6.9h1.6v1.5h-5.3l-.3-1.6zm217.6.3c2.2-2 3.6-3.5 3.6-4.7.1-.6-.3-1.2-1-1.3h-.2c-.6.1-1.1.4-1.5.9l-1-1c.6-.9 1.7-1.4 2.8-1.4 1.5-.1 2.7 1 2.7 2.3v.3c0 1.4-1.3 2.9-2.7 4.4.5-.1 1-.1 1.4-.1h1.7v1.6h-5.9l.1-1z"/></svg>