<svg xmlns="http://www.w3.org/2000/svg" viewBox="0 0 476.8408 175"><title>fp_car</title><rect x="33.1798" y="95.0237" width="396.9489" height="34.7072" style="fill:#212121"/><path d="M474.8279,98.38H9.1289S7.286,81.0111,9.4067,66.2263c1.57-10.9751,5.349-20.53,13.6472-20.53H60.6182l45.8009-33.9091A52.5726,52.5726,0,0,1,137.713,1.4609H254.5186a52.4056,52.4056,0,0,1,27.6956,7.8966L350.6707,51.75S411.9,58.8184,443.4718,68.44c8.2983,2.5224,14.5376,5.225,17.1222,8.0258A82.7346,82.7346,0,0,1,471.5074,90.88,30.1722,30.1722,0,0,1,474.8279,98.38Z" style="fill:#ffca00"/><path d="M474.8326,98.3853v16.5091c0,13.4616-9.6831,16.5043-9.6831,16.5043H424.0439a40.2844,40.2844,0,0,0-77.6151,0H133.3578a39.7362,39.7362,0,0,0-77.1565,0H5.85c-8.643-12.9266,0-33.0134,0-33.0134Z" style="fill:#fdae0b"/><rect x="130.6704" y="10.1298" width="65.9552" height="39.8294" style="fill:#304153"/><rect x="201.2017" y="10.1298" width="65.9547" height="39.8294" style="fill:#304153"/><path d="M259.377,10.13V49.9592l62.6767.3911a2.422,2.422,0,0,0,1.5034-4.3189Z" style="fill:#304153"/><path d="M126.089,10.13l-.2573,39.8294s-28.6534-.4839-29.4615,0c-.8134.4786-9.194-8.88,0-17.0347C105.5593,24.7654,126.089,10.13,126.089,10.13Z" style="fill:#304153"/><path d="M471.5122,90.8845H453.778a13.5784,13.5784,0,0,1-10.2957-22.4394c8.2983,2.5223,14.5376,5.225,17.1217,8.0257A82.7938,82.7938,0,0,1,471.5122,90.8845Z" style="fill:#fffff6"/><path d="M127.4174,140.9121a32.63,32.63,0,1,1-32.6329-32.6276A32.6311,32.6311,0,0,1,127.4174,140.9121Z" style="fill:#222c36"/><path d="M117.2451,140.9121a22.4591,22.4591,0,0,1-22.27,22.4653v10.157h-.1961a32.6223,32.6223,0,0,1,0-65.2446h.1961v10.1823A22.45,22.45,0,0,1,117.2451,140.9121Z" style="fill:#304153"/><path d="M117.2451,140.9121a22.4591,22.4591,0,0,1-22.27,22.4653h-.1961a22.4527,22.4527,0,0,1,0-44.9053h.1961A22.45,22.45,0,0,1,117.2451,140.9121Z" style="fill:#d8e3db"/><path d="M94.9753,118.4721h-.1908v44.9053h.1908a22.4534,22.4534,0,0,0,0-44.9053Z" style="fill:#d8e3db"/><path d="M112.4417,140.9121A17.6572,17.6572,0,1,1,94.7845,123.26,17.6561,17.6561,0,0,1,112.4417,140.9121Z" style="fill:#212121"/><path d="M105.77,140.9173a10.9782,10.9782,0,0,1-10.8876,10.9852h-.0981a10.9778,10.9778,0,0,1,0-21.9555h.0981A10.9722,10.9722,0,0,1,105.77,140.9173Z" style="fill:#d8e3db"/><path d="M94.8826,129.947h-.0981v21.9555h.0981a10.9781,10.9781,0,0,0,0-21.9555Z" style="fill:#d8e3db"/><path d="M417.861,140.9121a32.63,32.63,0,1,1-32.627-32.6276A32.6264,32.6264,0,0,1,417.861,140.9121Z" style="fill:#222c36"/><path d="M407.6888,140.9121a22.4553,22.4553,0,0,1-22.27,22.4653v10.157h-.19a32.6223,32.6223,0,1,1,0-65.2446h.19v10.1823A22.4464,22.4464,0,0,1,407.6888,140.9121Z" style="fill:#304153"/><path d="M407.6888,140.9121a22.4553,22.4553,0,0,1-22.27,22.4653h-.19a22.4527,22.4527,0,0,1,0-44.9053h.19A22.4464,22.4464,0,0,1,407.6888,140.9121Z" style="fill:#d8e3db"/><path d="M385.419,118.4721h-.19v44.9053h.19a22.4534,22.4534,0,0,0,0-44.9053Z" style="fill:#d8e3db"/><path d="M402.8859,140.9121A17.6549,17.6549,0,1,1,385.234,123.26,17.6516,17.6516,0,0,1,402.8859,140.9121Z" style="fill:#212121"/><path d="M396.2144,140.9173a10.9784,10.9784,0,0,1-10.8882,10.9852h-.0922a10.9778,10.9778,0,0,1,0-21.9555h.0922A10.9724,10.9724,0,0,1,396.2144,140.9173Z" style="fill:#d8e3db"/><path d="M385.3262,129.947h-.0922v21.9555h.0922a10.9781,10.9781,0,0,0,0-21.9555Z" style="fill:#d8e3db"/><path d="M32.2478,52.6413A14.0608,14.0608,0,0,1,18.2,66.69H12.9433a13.3829,13.3829,0,0,1-3.5366-.4634c1.57-10.9751,5.349-20.53,13.6472-20.53h7.351A14.0524,14.0524,0,0,1,32.2478,52.6413Z" style="fill:#fffff6"/><path d="M148.6576,65.1246H136.9924a3.3449,3.3449,0,0,1-3.341-3.3305h0a3.346,3.346,0,0,1,3.341-3.3358h11.6652a3.3459,3.3459,0,0,1,3.34,3.3358h0A3.3448,3.3448,0,0,1,148.6576,65.1246Z" style="fill:#fdae0b"/><path d="M216.2079,65.1246h-11.67a3.3441,3.3441,0,0,1-3.3358-3.3305h0a3.3452,3.3452,0,0,1,3.3358-3.3358h11.67a3.3419,3.3419,0,0,1,3.3358,3.3358h0A3.3407,3.3407,0,0,1,216.2079,65.1246Z" style="fill:#fdae0b"/><path d="M199.0241,98.8022H128.0552V6.3617H199.441l-.0047.417c-.2525,24.7146-.7517,89.3156-.0622,91.4263l-.3548.1133Zm-70.13-.8239h69.6663c-.7-6.651-.2931-58.7681.0312-90.7932H128.8944Z" style="fill:#fdae0b"/><path d="M253.4527,98.9978c-4.8544,0-11.1448-.0153-19.3145-.0411-17.6267-.0517-35.2375-.1545-35.2375-.1545h-.417V6.3617H264.907a4.948,4.948,0,0,1,3.5056,1.426A4.712,4.712,0,0,1,269.8232,11.2c-.3759,40.3028-.5814,83.9261-.0359,86.9018l.144.0722-.0723.3242C269.7715,98.8486,269.7357,98.9978,253.4527,98.9978Zm-54.13-1.0142c22.9851.1339,65.4038.3036,69.6921.0569-.3553-2.7338-.6953-16.36-.0364-86.8449a3.8463,3.8463,0,0,0-1.1681-2.8265,4.0662,4.0662,0,0,0-2.9036-1.184H199.323Z" style="fill:#fdae0b"/><path d="M41.9726,77.0423H8.5058v-.8445H41.9726a12.4664,12.4664,0,0,0,11.9119-8.9314l6.3268-21.6936.8086.2372L54.6931,67.5031A13.317,13.317,0,0,1,41.9726,77.0423Z" style="fill:#fdae0b"/><polygon points="440.136 74.499 368.431 65.532 368.344 65.465 350.419 52.085 350.923 51.411 368.755 64.723 440.244 73.665 440.136 74.499" style="fill:#fdae0b"/></svg>