<svg xmlns="http://www.w3.org/2000/svg" xmlns:xlink="http://www.w3.org/1999/xlink" viewBox="0 0 478.2993 478.5752"><defs><linearGradient id="a1916406-a322-44e0-b8d7-e6ec22bcf820" x1="116.1156" y1="265.8671" x2="116.1156" y2="-11.8181" gradientTransform="translate(-65.6185 42.0928) rotate(-26.1184)" gradientUnits="userSpaceOnUse"><stop offset="0" stop-color="#fc6076"/><stop offset="1" stop-color="#ff9a44"/></linearGradient><linearGradient id="b9f60c60-c7c9-453a-a783-6b784aa76222" x1="-5231.2698" y1="-572.5441" x2="-5231.2698" y2="-590.0461" gradientTransform="translate(4378.3759 -3028.6922) rotate(-45)" gradientUnits="userSpaceOnUse"><stop offset="0" stop-color="#fff"/><stop offset="0.0952" stop-color="#f9f9f9"/><stop offset="0.2197" stop-color="#e9e9e9"/><stop offset="0.3604" stop-color="#cecece"/><stop offset="0.513" stop-color="#a8a8a8"/><stop offset="0.6752" stop-color="#787878"/><stop offset="0.8428" stop-color="#3d3d3d"/><stop offset="1"/></linearGradient><linearGradient id="d5ae2d27-d52a-44f7-9965-013fbe9d337f" x1="-5219.8841" y1="-561.157" x2="-5219.8841" y2="-578.6594" xlink:href="#b9f60c60-c7c9-453a-a783-6b784aa76222"/><linearGradient id="78d29810-5702-42c2-b3ba-98cfaa0a1b53" x1="-5208.4982" y1="-549.7723" x2="-5208.4982" y2="-567.2747" xlink:href="#b9f60c60-c7c9-453a-a783-6b784aa76222"/><linearGradient id="b0b84294-d6b2-4fcc-abb8-40d818f855ba" x1="-3322.6823" y1="-534.1137" x2="-3322.6823" y2="-551.6173" gradientTransform="translate(5414.0922 -4064.411) rotate(-45) scale(2.0037 1)" xlink:href="#b9f60c60-c7c9-453a-a783-6b784aa76222"/><linearGradient id="a3872679-2d56-4eeb-91d3-647d666ee812" x1="187.1294" y1="75.9375" x2="485.2971" y2="75.9375" gradientTransform="matrix(1, 0, 0, 1, 0, 0)" xlink:href="#a1916406-a322-44e0-b8d7-e6ec22bcf820"/></defs><title>fuel_price_art</title><g style="isolation:isolate"><g id="ccaff348-0ad5-4a86-a1ae-5c4b78e8f709" data-name="Layer 2"><g id="bed771f2-f85e-403e-9cb3-ef4a3ef0630b" data-name="Layer 1"><path d="M51.2424,129.7739c-5.5448-5.0432-5.612-6.1784-2.5205-12.4984q9.6242-19.6744,18.956-39.4915c2.9086-6.1593,4.1789-6.9608,11.535-5.6511,3.84-7.66,7.9163-15.4372,11.66-23.3717,3.1736-6.7255,6.9456-12.7506,14.2073-15.6955,3.2736-1.3277,6.3932-1.3652,8.0422,2.2924,1.6045,3.5593.5181,6.2085-3.247,8.0462-2.306,1.1256-4.8673,2.8268-6.0495,4.9677-5.3782,9.74-10.3077,19.7271-15.4047,29.6372,4.7645,3.0394,9.2545,5.6174,13.4367,8.6237,14.0682,10.1128,17.6142,30.5063,7.8225,44.153-9.9318,13.8418-28.5114,16.6876-43.2726,6.5988-1.761-1.2036-3.7851-2.8469-4.8717.2416-2.6286,7.4712-5.2956,15.1386.5595,22.382a13.6148,13.6148,0,0,0,5.0219,4.0441c6.9693,2.8785,14.0809,5.4134,21.1458,8.0595q22.0793,8.27,44.17,16.51c1.0191.38,2.0952.6069,3.6582,1.0508.6437-1.6448,1.3458-3.1622,1.8405-4.7444,7.319-23.4051,15.6333-46.5592,21.6544-70.2947,7.855-30.9641-.2312-58.345-23.4049-80.6942-12.6439-12.1939-27.8088-18.9324-45.5043-20.6375-26.4-2.544-47.8649,7.1822-63.125,27.7038-21.1988,28.5078-19.8248,65.11.3269,93.57,1.726,2.4376,3.6022,4.7787,5.5325,7.06,3.4463,4.0728,3.7432,7.72.7064,10.3307-2.891,2.4855-6.4845,1.887-9.8547-1.874A94.5593,94.5593,0,0,1,5.3355,55.6562c4.0153-11.6811,11.04-20.9489,18.8452-30.1277C35.3314,12.4154,49.7012,4.6986,66.0153,1.7068,95.64-3.7259,122.0978,3.7842,144.3794,24.6127c17.5669,16.4213,27.6176,36.7506,29.9253,60.48.9155,9.4134-.1965,19.1746-1.5525,28.61-1.0407,7.2413-3.7943,14.256-5.9908,21.3078-5.752,18.4663-11.6346,36.8919-17.4179,55.3485-.983,3.1371-1.5292,6.42-2.6368,9.5069-1.5967,4.4494-4.5381,6.082-8.8913,4.4634-17.3689-6.4582-34.6484-13.1567-51.97-19.7423-7.64-2.9046-15.3217-5.6983-22.9473-8.6389-9.62-3.71-14.441-11.335-16.3532-20.9825a31.4188,31.4188,0,0,1,2.4876-20.2789C49.7836,133.1415,50.4452,131.5531,51.2424,129.7739Zm28.9149,2.8c10.15,1.1462,17.2642-1.4686,21.4682-8.8222a21.3955,21.3955,0,0,0-.1322-22.4144c-.8213,5.1264-1.4753,10.355-2.6125,15.4762-.2744,1.2356-2.148,2.116-3.2863,3.16-.2588-1.47-.8636-2.9765-.7126-4.403.4775-4.5109,1.2378-8.9918,1.8886-13.4843l-1.4256-.18Zm36.6342-81.2832c1.2509,5.72,2.0907,11.5833,4.0145,17.0668.5453,1.5541,4.5253,3.1476,6.45,2.6925,3.1793-.7517,3.2774-4.5077,1.83-6.6593-3.2574-4.8417-7.2355-9.1987-10.92-13.7529Z" style="fill:url(#a1916406-a322-44e0-b8d7-e6ec22bcf820)"/><polygon points="350.949 445.047 123.28 445.047 112.873 478.575 361.357 478.575 350.949 445.047" style="fill:#34495e"/><path d="M350.9492,445.0471H328.5227c4.1948,9.8938-.6595,23.9929-14.648,23.9929H115.834l-2.9586,9.5352H361.3569Z" style="fill:#34495e;opacity:0.4;mix-blend-mode:multiply"/><rect x="142.1458" y="272.6734" width="189.9378" height="172.3738" style="fill:#2c3e50"/><rect x="142.1458" y="272.6734" width="189.9378" height="22.114" style="fill:#2c3e50;opacity:0.5;mix-blend-mode:multiply"/><g style="opacity:0.5;mix-blend-mode:multiply"><path d="M332.0441,410.4737c-7.5289,7.3356-17.7376,11.3227-32.1242,11.3227-51.623,0-59.9534-41.7927-59.9534-141.7624H228.3254c0,92.6632,4.9824,153.4035,71.5945,153.4035,13.3919,0,23.8252-2.947,32.1242-8.0626Z" style="fill:#2c3e50"/></g><path d="M299.92,411.4573c-66.6121,0-71.5945-60.7409-71.5945-153.4034h11.6411c0,99.97,8.33,141.7624,59.9534,141.7624,43.302,0,49.3128-35.4041,55.5338-93.1661,1.8335-17.0326,3.7322-34.6421,7.2734-51.89l11.4019,2.3416c-3.43,16.7055-5.2944,34.0339-7.1023,50.7936C361.2918,361.1527,355.8746,411.4573,299.92,411.4573Z" style="fill:#f1c40f"/><path d="M243.9059,138.6983l-3.6722-22.9923a19.3677,19.3677,0,0,0,3.5755-.9289L251.79,136.65A42.8438,42.8438,0,0,1,243.9059,138.6983Zm-16.1573-.5a42.6357,42.6357,0,0,1-7.75-2.5267l9.3164-21.3382a19.4112,19.4112,0,0,0,3.51,1.1455Zm37.9075-9.8647L250.1612,110.957a19.4946,19.4946,0,0,0,2.5151-2.72l18.5076,14.1311A42.9424,42.9424,0,0,1,265.6561,128.3337Zm-59.0012-1.8166a43.27,43.27,0,0,1-5.1383-6.2891l19.3486-12.9542a19.3748,19.3748,0,0,0,2.3533,2.8788Zm71.7365-18.65-22.4294-6.2408a19.4374,19.4374,0,0,0,.642-3.6437l23.2426,1.41-.0285.3748A42.8341,42.8341,0,0,1,278.3914,107.8675Zm-83.1785-2.5488a42.31,42.31,0,0,1-.9237-8.1115l23.2764-.3982a19.26,19.26,0,0,0,.4179,3.6553Z" style="fill:#f1c40f"/><path d="M136.7653,96.3946H337.4607a16.5781,16.5781,0,0,1,16.5781,16.5781V256.0959a16.5775,16.5775,0,0,1-16.5775,16.5775H136.7688a16.5781,16.5781,0,0,1-16.5781-16.5781V112.9692A16.5746,16.5746,0,0,1,136.7653,96.3946Z" style="fill:#e74c3c"/><path d="M132.25,271.9685c72.2365-56.773,144.8769-113.0827,220.5836-165.1324a16.5576,16.5576,0,0,0-15.3726-10.4415H136.7688a16.5771,16.5771,0,0,0-16.5781,16.5746V256.0959A16.5241,16.5241,0,0,0,132.25,271.9685Z" style="fill:#fff;opacity:0.30000000000000004;mix-blend-mode:overlay"/><path d="M149.2876,115.84H324.9418a10.541,10.541,0,0,1,10.541,10.541V223.605a10.5439,10.5439,0,0,1-10.5439,10.5439H149.2876a10.541,10.541,0,0,1-10.541-10.541v-97.227A10.541,10.541,0,0,1,149.2876,115.84Z" style="fill:#3498db"/><path d="M263.712,143.3967l-8.654.1391-12.34-12.34-7.7507,11.5014-23.4294,24.6523,29.5631,29.5632L209.7841,203.87l30.279,30.279h84.8758a10.543,10.543,0,0,0,10.544-10.541V215.167Z" style="fill:#2980b9"/><path d="M231.8783,209a62.2461,62.2461,0,0,1-22.0942-5.13V186.488a75.6119,75.6119,0,0,0,13.1928,5.1552,45.6943,45.6943,0,0,0,12.5136,2.0692,14.8558,14.8558,0,0,0,6.52-1.0745,3.7258,3.7258,0,0,0,2.0692-3.5866,3.6409,3.6409,0,0,0-1.4924-2.93,23.0161,23.0161,0,0,0-4.9736-2.7229q-3.4827-1.5217-9.3985-3.6664A42.5626,42.5626,0,0,1,217.48,174.21a19.2776,19.2776,0,0,1-5.9422-6.8607,21.4022,21.4022,0,0,1-1.8591-9.45q0-8.6418,5.5505-13.509t16.6491-6.0219v-7.1732h10.84v7.0708a61.4019,61.4019,0,0,1,20.9941,5.13l-6.23,14.92q-10.9433-4.919-19.7381-4.9195-4.1907,0-5.8915,1.02a3.297,3.297,0,0,0-1.7025,3.01,3.7025,3.7025,0,0,0,1.23,2.8532,17.2931,17.2931,0,0,0,4.2688,2.5128q3.0357,1.39,8.43,3.22,10.9433,3.8748,15.705,8.8245,4.7663,4.9452,4.7665,12.7494,0,8.7954-5.5761,14.2929-5.5764,5.4951-16.2568,6.8065v10.1039h-10.84Z" style="fill:#2ecc71"/><path d="M164.1091,234.1489c34.3266-55.0362,102.9823-111.5735,160.2472-118.3119H149.2905a10.5436,10.5436,0,0,0-10.5439,10.5439v97.227a10.543,10.543,0,0,0,10.5439,10.541Z" style="fill:#fff;opacity:0.30000000000000004;mix-blend-mode:overlay"/><polygon points="278.454 261.538 270.544 269.448 258.17 257.073 262.124 253.117 266.08 249.164 278.454 261.538" style="opacity:0.4;mix-blend-mode:multiply;fill:url(#b9f60c60-c7c9-453a-a783-6b784aa76222)"/><polygon points="294.557 261.538 286.648 269.448 274.27 257.073 278.227 253.117 282.18 249.164 294.557 261.538" style="opacity:0.4;mix-blend-mode:multiply;fill:url(#d5ae2d27-d52a-44f7-9965-013fbe9d337f)"/><polygon points="310.658 261.538 302.748 269.448 290.374 257.073 294.327 253.117 298.283 249.164 310.658 261.538" style="opacity:0.4;mix-blend-mode:multiply;fill:url(#78d29810-5702-42c2-b3ba-98cfaa0a1b53)"/><polygon points="336.767 257.568 320.92 273.418 308.543 261.041 316.469 253.117 324.393 245.193 336.767 257.568" style="opacity:0.4;mix-blend-mode:multiply;fill:url(#b0b84294-d6b2-4fcc-abb8-40d818f855ba)"/><path d="M327.7066,253.1169a11.1862,11.1862,0,1,1-11.1859-11.1859A11.1851,11.1851,0,0,1,327.7066,253.1169Z" style="fill:#f1c40f"/><path d="M299.9228,253.1169a5.5933,5.5933,0,1,1-5.5959-5.5929A5.5955,5.5955,0,0,1,299.9228,253.1169Z" style="fill:#f1c40f"/><path d="M283.82,253.1169a5.5933,5.5933,0,1,1-5.593-5.5929A5.593,5.593,0,0,1,283.82,253.1169Z" style="fill:#f1c40f"/><path d="M267.7166,253.1169a5.5933,5.5933,0,1,1-5.593-5.5929A5.593,5.593,0,0,1,267.7166,253.1169Z" style="fill:#f1c40f"/><rect x="226.4727" y="272.6734" width="16.2708" height="8.1342" style="fill:#445f7a"/><rect x="226.4727" y="272.6734" width="16.2708" height="8.1342" style="fill:#445f7a"/><rect x="237.3834" y="272.6734" width="5.3601" height="8.1342" style="fill:#445f7a;opacity:0.5;mix-blend-mode:multiply"/><polygon points="382.982 211.615 385.515 244.238 387.632 244.238 389.633 211.615 382.982 211.615" style="fill:#95a5a6"/><path d="M420.8726,149.038s-2.1146,2.6914-5.5167,6.4742c-1.7048,1.887-3.7315,4.0441-5.948,6.3094-.4889.5169-.9837,1.046-1.4837,1.58-.4773.5256-.9464,1.0739-1.3928,1.6368-.8952,1.1367-1.7677,2.3078-2.5547,3.5354-.3981.6111-.7677,1.2391-1.1227,1.87q-.6051,1.0747-1.202,2.1344c-.8271,1.4382-1.64,2.8561-2.4248,4.2263-1.6053,2.7228-3.12,5.2548-4.4562,7.4008-2.6944,4.28-4.5983,7.0708-4.5983,7.0708l-9.3163-5.5673s1.5546-2.9988,4.05-7.398c1.2561-2.1943,2.7682-4.7262,4.405-7.4322.8358-1.3411,1.6967-2.7281,2.575-4.1378q.6819-1.0747,1.3731-2.163c.5226-.7985,1.0686-1.5884,1.6425-2.3532a39.111,39.111,0,0,1,3.7118-4.3311c.6595-.6711,1.3358-1.31,2.02-1.9213l1.06-.9238.98-.77c2.5011-1.9441,4.8741-3.7176,6.94-5.1954,4.1407-2.9557,7.0539-4.7548,7.0539-4.7548Z" style="fill:#95a5a6"/><path d="M419.2353,147.2045l-2.5663-2.8759s-2.9132,1.7991-7.0539,4.7548c-2.0663,1.4778-4.4393,3.2513-6.94,5.1954l-.98.77-1.06.9238c-.6845.6111-1.3608,1.25-2.02,1.9213a39.111,39.111,0,0,0-3.7118,4.3311c-.5739.7648-1.12,1.5547-1.6425,2.3532q-.6906,1.087-1.3731,2.163c-.8783,1.41-1.7392,2.7967-2.575,4.1378-1.6368,2.706-3.1489,5.2379-4.405,7.4322-2.4953,4.3992-4.05,7.398-4.05,7.398l5.2664,3.146C392.3583,172.2689,403.8458,156.2456,419.2353,147.2045Z" style="fill:#b9cdcf"/><path d="M394.8222,188.7673s-2.4557,4.0755-5.7635,10.385c-.8417,1.5285-1.745,3.3678-2.589,5.047a32.0629,32.0629,0,0,0-1.9243,4.8206,33.2393,33.2393,0,0,0-1.0576,5.4311c-.2922,2.3218-.5908,4.678-.8864,7.0371-.6,4.7146-1.2,9.4327-1.6851,13.8663-.4976,4.4306-.9639,8.5661-1.3643,12.11-.7165,7.1051-1.1938,11.84-1.1938,11.84l-21.1618-3.5267s1.0855-4.6326,2.7112-11.5846c.773-3.4842,1.6711-7.5481,2.6373-11.9025.9779-4.3508,1.9412-9.0067,2.9045-13.662.4831-2.3247.9662-4.6523,1.4411-6.9427a50.49,50.49,0,0,1,2.234-7.8869,48.8215,48.8215,0,0,1,3.1372-6.9631c1.0658-1.9272,1.9755-3.4958,2.8055-5.1157,3.376-6.2722,5.3771-10.5893,5.3771-10.5893Z" style="fill:#34495e"/><path d="M386.1967,187.4856a20.2183,20.2183,0,0,1,1.7677-2.3591l-7.52-3.9958s-2.0011,4.3171-5.3771,10.5893c-.83,1.62-1.74,3.1885-2.8055,5.1157a48.8215,48.8215,0,0,0-3.1372,6.9631,50.49,50.49,0,0,0-2.234,7.8869c-.4749,2.29-.958,4.618-1.4411,6.9427-.9633,4.6553-1.9266,9.3112-2.9045,13.662-.9662,4.3544-1.8643,8.4183-2.6373,11.8995-1.6257,6.955-2.7112,11.5876-2.7112,11.5876l9.3955,1.5657C370.6419,233.1519,373.12,209.099,386.1967,187.4856Z" style="fill:#527394"/><path d="M391.2978,257.2891a15.1758,15.1758,0,0,1-2.2676-.1706l-20.6025-3.1547,1.234-8.0486,20.6018,3.1547a6.7817,6.7817,0,0,0,7.81-6.7041V224.4094a9.4756,9.4756,0,0,0-5.7978-8.7448L381.081,210.93l3.1687-7.4975,11.1947,4.7351a17.6031,17.6031,0,0,1,10.7686,16.2422v17.9564a14.9257,14.9257,0,0,1-14.9152,14.9233Z" style="fill:#34495e"/><polygon points="112.875 478.575 123.28 445.047 350.949 445.047 128.2 451.107 112.875 478.575" style="fill:#579"/><path d="M204.1763,65.7393H196.147l8.8017,12.4522H192.0679V91.0733h-4.9385V73.4688h8.416l-8.416-12.4522h17.0469Zm34.4365-5.3672V77.5049c0,8.6739-3.22,13.9981-11.8076,13.9981s-11.8086-5.2813-11.8086-13.9551V61.0166h4.9385V73.9405Zm-4.9375,19.2363V70.1622l-13.74,9.5322c.0429,4.5088,2.6191,7.0849,6.87,7.0849C231.0991,86.7793,233.6753,84.1172,233.6753,79.6084Zm32.0322-13.8691h-8.0293l8.6309,12.2383h-12.71V86.35h13.01v4.7236H248.6607V73.254h8.2871l-8.2871-12.2374h17.0468Zm15.8877,3.1348,15.6289,22.1992H276.6567V61.0166h4.9385ZM288.0357,86.35l-6.4405-9.1456V86.35Zm36.8417-12.9239h6.57l-7.1709-12.4092h9.36c5.41,0,10.6485,2.834,10.6485,8.2012,0,6.7842-4.5508,9.06-9.961,9.06h-4.5088V91.0733h-4.9385ZM336.6,72.8672c.8154-.3427,2.6621-1.2021,2.6621-3.22,0-3.0488-3.1777-3.7793-6.6982-3.7793Zm25.377,5.0674h-3.2637V91.0733h-4.9375V73.5118h5.9258L353.26,61.0166h9.4472c5.8819,0,10.52,2.834,10.52,8.4161,0,3.52-1.9327,6.3974-5.8829,7.6855l7.8145,13.9551h-5.1523Zm3.1777-4.7666c1.417-.4726,3.0059-1.5459,3.0059-3.5205,0-3.8652-4.0791-3.9082-7.1709-3.9082ZM383.189,91.0733V67.4141l4.9384-7.042V91.0733Zm30.83-25.5049V86.5645a11.2207,11.2207,0,0,0,6.0966-3.7783l3.4356,3.5635a15.2474,15.2474,0,0,1-11.5078,5.1533c-9.0166,0-14.9424-6.7842-14.9424-15.4151s5.8828-15.5009,14.7705-15.5009a14.9208,14.9208,0,0,1,11.25,4.8955l-3.4346,3.5634A9.7492,9.7492,0,0,0,414.0191,65.5684Zm-4.9385,20.8672V65.6534c-4.1641,1.16-6.9551,5.1533-6.9551,10.3916S404.8735,85.2334,409.0806,86.4356Zm40.4922-20.6963h-8.0293l8.6308,12.2383h-12.71V86.35h13.01v4.7236H432.5259V73.254h8.2871l-8.2871-12.2374h17.0469Zm16.4023,11.0781c-3.95-1.8457-6.6123-4.0361-6.6123-8.0293,0-5.0234,3.9072-8.2011,9.06-8.2011a10.023,10.023,0,0,1,8.501,4.165l-3.4775,3.1348a5.7917,5.7917,0,0,0-5.0235-2.5762c-2.1474,0-3.8642,1.2881-3.8642,3.22,0,2.7051,2.6191,3.3926,6.0967,4.9385,4.2509,1.8887,7.6435,4.208,7.6435,8.9736,0,5.5821-3.9511,9.0606-9.7041,9.0606a10.6592,10.6592,0,0,1-9.4472-4.9385Zm4.5088,2.0616-4.9805,7.1279a6.4668,6.4668,0,0,0,3.0918.7724c2.49,0,4.6367-1.374,4.6367-4.208C473.2319,80.94,472.1587,79.8233,470.4839,78.879Z" style="fill:url(#a3872679-2d56-4eeb-91d3-647d666ee812)"/></g></g></g></svg>