<svg xmlns="http://www.w3.org/2000/svg" viewBox="0 0 873.5946 630.6078"><title>home_pump_art</title><g id="d8621530-ffe4-4a3f-bda4-f3ff042a3dde" data-name="Layer 2"><g id="7c9fd29b-495b-4679-9739-7005ef79ca7f" data-name="Layer 1"><g id="47dfe79f-0415-4acd-b682-dd801068243a" data-name="illustration"><g id="0d201acb-8108-41eb-91e4-62f05157c86d" data-name="&lt;Group&gt;"><g id="629983b0-b449-4f87-9070-28441a21a078" data-name="&lt;Group&gt;"><polygon id="94b18630-0f65-4c7e-a1d4-0910129a93a2" data-name="&lt;Path&gt;" points="424.022 630.608 0 385.651 3.394 384.401 424.803 627.7 424.022 630.608" style="fill:#f4f2f4"/></g><g id="69f9e3d4-fd59-4b8f-b774-5ddb381cf4b4" data-name="&lt;Group&gt;"><rect id="93794544-98ac-4b32-85b9-1db7c23882fa" data-name="&lt;Path&gt;" x="264.581" y="233.6032" width="2.8804" height="486.5997" transform="translate(-279.9996 468.8341) rotate(-60.0002)" style="fill:#f4f2f4"/></g><g id="34f2b663-680a-4e56-b412-26857c5c88b1" data-name="&lt;Group&gt;"><rect id="d283d9d5-522a-4300-ae42-b1cc2ed88dc0" data-name="&lt;Path&gt;" x="317.2258" y="203.2082" width="2.8804" height="486.6008" transform="translate(-227.3546 499.2287) rotate(-60.0002)" style="fill:#f4f2f4"/></g><g id="efab9cef-b418-4093-a251-e6b29f329a7c" data-name="&lt;Group&gt;"><rect id="2ddf5fac-f451-413d-a98a-e6bba6954f6b" data-name="&lt;Path&gt;" x="369.8715" y="172.8137" width="2.8803" height="486.601" transform="translate(-174.7092 529.6244) rotate(-60.0002)" style="fill:#f4f2f4"/></g><g id="ea5cb1bc-53e0-41cd-881c-f8bb4dc3a570" data-name="&lt;Group&gt;"><rect id="1820d2ac-7c34-43ae-9830-1e1b6b629ce9" data-name="&lt;Path&gt;" x="422.517" y="142.4195" width="2.8804" height="486.6006" transform="translate(-122.064 560.0195) rotate(-60.0002)" style="fill:#f4f2f4"/></g><g id="ee3c881e-1643-43c9-b22b-e032876980c0" data-name="&lt;Group&gt;"><rect id="dbad5999-bb6f-4aa0-b16e-ea78cc607ed2" data-name="&lt;Path&gt;" x="475.161" y="112.026" width="2.8807" height="486.5986" transform="translate(-69.4201 590.4117) rotate(-60)" style="fill:#f4f2f4"/></g><g id="92a80870-01ab-4501-a904-69b271f6737a" data-name="&lt;Group&gt;"><rect id="58a1b321-410e-4862-80d9-a5ac49960864" data-name="&lt;Path&gt;" x="527.8055" y="81.6282" width="2.8804" height="486.6024" transform="translate(-16.7747 620.8041) rotate(-59.9999)" style="fill:#f4f2f4"/></g><g id="f183788d-6eb2-4a8d-ac63-3b84578ede6e" data-name="&lt;Group&gt;"><rect id="5787104a-8f39-4ce8-9700-42fd0fe82670" data-name="&lt;Path&gt;" x="580.4505" y="51.2349" width="2.8815" height="486.6016" transform="translate(35.8713 651.2022) rotate(-60.0002)" style="fill:#f4f2f4"/></g><g id="b38d7285-2178-41ce-9c2e-95d6b0bcfc32" data-name="&lt;Group&gt;"><polygon id="e4d97fb1-3fc2-40a1-9509-70c614d6bf35" data-name="&lt;Path&gt;" points="844.518 387.038 423.111 143.739 423.947 140.891 847.961 385.729 844.518 387.038" style="fill:#f4f2f4"/></g><g id="2897317c-f2bd-478b-886d-707b6b5c44e1" data-name="&lt;Group&gt;"><polygon id="254efdee-a848-4711-80a8-a1831feb437e" data-name="&lt;Path&gt;" points="424.022 630.608 423.213 627.615 844.625 384.314 847.961 385.729 424.022 630.608" style="fill:#f4f2f4"/></g><g id="6654ca82-b23d-4a7b-b7e7-8fb38529bae7" data-name="&lt;Group&gt;"><rect id="b00ed0e8-656d-459c-beb2-ba50a2b13e73" data-name="&lt;Path&gt;" x="338.6942" y="475.3771" width="486.6022" height="2.8803" transform="translate(-160.481 355.153) rotate(-30.0211)" style="fill:#f4f2f4"/></g><g id="5b9a3c73-3ef2-4897-b049-8c439e079c24" data-name="&lt;Group&gt;"><rect id="679d3701-aa78-41b4-ba55-fbf9c5f21b4e" data-name="&lt;Path&gt;" x="286.049" y="444.9825" width="486.6045" height="2.8804" transform="translate(-152.3469 324.7935) rotate(-30.0259)" style="fill:#f4f2f4"/></g><g id="040386a2-20a4-4ec7-b85b-f5d5e5f88e0d" data-name="&lt;Group&gt;"><rect id="decfe97f-0918-4a04-94e4-2f7f29135790" data-name="&lt;Path&gt;" x="233.4032" y="414.5881" width="486.6047" height="2.8803" transform="translate(-144.1936 294.324) rotate(-30.0216)" style="fill:#f4f2f4"/></g><g id="65842fbf-8b64-4abc-986c-cbc9eb53409e" data-name="&lt;Group&gt;"><rect id="0aa2bd0f-6ceb-4c12-a493-9acdf9113815" data-name="&lt;Path&gt;" x="128.1149" y="353.7993" width="486.6047" height="2.8805" transform="matrix(0.8658, -0.5004, 0.5004, 0.8658, -127.9085, 233.5036)" style="fill:#f4f2f4"/></g><g id="f0195113-01fb-4ccd-8526-a9581584d38b" data-name="&lt;Group&gt;"><rect id="670e1f52-e28b-4f08-b347-f3f8656f1a19" data-name="&lt;Path&gt;" x="75.4719" y="323.4047" width="486.6024" height="2.8805" transform="translate(-119.7701 203.106) rotate(-30.0259)" style="fill:#f4f2f4"/></g><g id="6ddab2a1-aa55-4312-9117-dec8db210299" data-name="&lt;Group&gt;"><rect id="2068c1de-b34d-4421-b077-9ea758542b32" data-name="&lt;Path&gt;" x="22.8266" y="293.0098" width="486.6048" height="2.8815" transform="translate(-111.6318 172.7027) rotate(-30.0287)" style="fill:#f4f2f4"/></g><g id="db303d49-db73-467c-a266-84021c88b47c" data-name="&lt;Group&gt;"><polygon id="e64fb4e6-7a93-41f4-8212-a288edc83229" data-name="&lt;Path&gt;" points="3.499 386.954 0 385.651 423.947 140.891 424.91 143.654 3.499 386.954" style="fill:#f4f2f4"/></g></g><g id="e7d69b8f-8e17-48bb-8ced-40457c8c7a18" data-name="&lt;Group&gt;"><g id="a13c9fa9-7fe7-4ad8-9b8a-1d7aa4b51e7c" data-name="&lt;Group&gt;"><g id="51971743-987d-454b-95e5-047f1e4859ae" data-name="&lt;Group&gt;"><g id="cfbb8647-142f-42f6-b2f4-b919948c2758" data-name="&lt;Group&gt;"><g id="ff010603-72b4-4d8e-9093-b8cb8989a7de" data-name="&lt;Group&gt;"><path id="cf2f8c22-6e6f-459f-a858-8bfdc7250edc" data-name="&lt;Path&gt;" d="M186.6024,188.9472h.0551l-36.5158-81.12h-.0437a10.5151,10.5151,0,0,0-19.9866,0h-.0432l-36.5161,81.12h.0555a51.8834,51.8834,0,1,0,92.9948,0Z" style="fill:#f9b663"/><path id="1df18a07-8ecc-451a-808e-b1aa6c7b9409" data-name="&lt;Path&gt;" d="M169.8237,153.6168h.0212l-13.8827-30.84h-.0167a3.9974,3.9974,0,0,0-7.5982,0h-.0165l-13.8829,30.84h.0211a19.7253,19.7253,0,1,0,35.3547,0Z" style="fill:#fec"/><path id="e376204d-42a9-4b38-9c5f-07eea285093d" data-name="&lt;Compound Path&gt;" d="M189.0015,190.4752h.0206l-37.4869-83.2746-.132-.2652a12.0391,12.0391,0,0,0-22.5231-.1919L92.159,188.3206l-.4075.96A52.7665,52.7665,0,0,0,86.6937,211.86a53.4119,53.4119,0,1,0,106.8237,0A52.6643,52.6643,0,0,0,189.0015,190.4752Zm-10.497-14.1239a30.3324,30.3324,0,1,1-57.5157-13.395h-.0326l21.3484-47.4247h.0256a6.1658,6.1658,0,0,1,5.8422-4.2352,6.0506,6.0506,0,0,1,2.0209.3694l28.2377,62.7314C178.4764,175.0428,178.5045,175.6934,178.5045,176.3513Z" style="fill:#e95246"/><g id="361549a4-d40a-445e-84d3-d8f5956df2d9" data-name="&lt;Group&gt;"><path id="9b1e8f52-63c8-4501-8c5f-016853efcb94" data-name="&lt;Path&gt;" d="M114.2894,246.5651a56.748,56.748,0,0,1-12.2807-13.15,5.8675,5.8675,0,0,1,2.1527-8.5462l.0089-.0042a5.86,5.86,0,0,1,7.53,1.8981,44.4624,44.4624,0,0,0,9.6111,10.3918,5.89,5.89,0,0,1,1.8721,7.2378h0A5.9008,5.9008,0,0,1,114.2894,246.5651Z" style="fill:#f9b663"/></g></g><g id="71e138d5-39e2-4258-87f8-aa3019130960" data-name="&lt;Group&gt;"><path id="3ffc7988-07de-49cb-9ab8-46590b0700a3" data-name="&lt;Path&gt;" d="M869.9407,283.9231l-36.3089-38.4957.0009,0-.0237-.0237-.0148-.0156,0,0A89.95,89.95,0,0,0,682.01,280.3793L601.2647,542.0938a6.8278,6.8278,0,0,1-4.417,4.6785,7.3289,7.3289,0,0,1-6.517-.7088,6.9379,6.9379,0,0,1-2.0329-2.7006L550.3769,464l-30.4,14.4957,37.9212,79.3645a40.1789,40.1789,0,0,0,13.5946,16.1206,40.7188,40.7188,0,0,0,21.7349,6.8916,41.3934,41.3934,0,0,0,14.82-2.3388,40.46,40.46,0,0,0,25.401-26.5106l80.7454-261.7155a56.271,56.271,0,0,1,94.8509-21.8639l.0381.039,60.8582,66.436Z" style="fill:#f9b663"/><path id="0c180416-6563-42f6-ac9c-0cdd59527f1f" data-name="&lt;Path&gt;" d="M869.9407,284.757l-35.2377-37.36.0009,0-.0234-.0234-.0148-.0156-.0006,0a89.1245,89.1245,0,0,0-55.3942-27.945,91.1363,91.1363,0,0,0-25.577,2.1824,89.0612,89.0612,0,0,0-65.7467,61.1334L607.2018,544.4428a6.8261,6.8261,0,0,1-4.4167,4.6788,7.4287,7.4287,0,0,1-5.5486-.2209,7.2236,7.2236,0,0,1-5.8347-.8678,6.9375,6.9375,0,0,1-2.0329-2.7l-36.87-77.1637-19.7335,9.4095,25.9561,54.3233a40.18,40.18,0,0,0,13.5947,16.1208c6.4569,4.3574,10.44,6.7087,18.1418,6.905,4.9773.1268,10.5544.2,15.3663-1.4973,12.28-4.3281,17.8006-16.9229,21.6625-29.4423L702.49,280.2536c5.643-18.3378,17.1218-34.5458,33.1791-45.0467a64.5661,64.5661,0,0,1,20.4769-9.1,55.7112,55.7112,0,0,1,53.722,16.3782l.0378.039,60.0349,65.537Z" style="fill:#fec"/><path id="395da14d-c1eb-4b18-bd59-86c692622d02" data-name="&lt;Path&gt;" d="M869.9407,307.0356c-20.7994-22.5691-46.3892-50.3425-61.5188-62.5438-9.1752-7.399-25.1353-18.9372-53.29-8.7786-33.8941,12.2292-41.814,52.38-41.814,52.38.0573-.1623.13-.318.1882-.48-.2623.7456-.5378,1.4843-.7726,2.2452L631.9879,551.5725a38.9393,38.9393,0,0,1-24.4471,25.5194c-.3217.1136-.6512.19-.9746.2946a33.1724,33.1724,0,0,1-12.38-3.1115A46.7453,46.7453,0,0,1,571.59,551.8465L541.417,489.7248l-1.4692-8.5477-17.64-1.3474-.2933-.6133,27.6409-13.1789,37.263,77.9814a8.273,8.273,0,0,0,2.5577,3.3107,8.8792,8.8792,0,0,0,7.88.884,8.39,8.39,0,0,0,5.3678-5.6709L683.47,280.8294a88.4233,88.4233,0,0,1,149.0154-34.3933l37.4558,39.7118v-4.4521L834.744,244.379l-1.1113,1.0481,1.0767-1.0834a91.477,91.477,0,0,0-154.16,35.5858L599.8033,541.6426a5.3008,5.3008,0,0,1-3.462,3.6873,5.7928,5.7928,0,0,1-5.1592-.5373,5.5269,5.5269,0,0,1-1.5037-2.0892l-38.581-80.7389-33.16,15.81,38.581,80.7456a41.7079,41.7079,0,0,0,14.12,16.728A42.1291,42.1291,0,0,0,593.1891,582.4c.37.0092.7367.0158,1.1065.0158a42.7924,42.7924,0,0,0,14.26-2.4406,41.97,41.97,0,0,0,26.3527-27.5027l80.7457-261.7136a54.742,54.742,0,0,1,92.301-21.2417l61.9856,67.6654Z" style="fill:#e95246"/><g id="2d2badb7-4b69-41f7-ba79-0592d9c10764" data-name="&lt;Group&gt;"><g id="1fe74336-3a0a-4374-882e-9ffadae27249" data-name="&lt;Group&gt;"><path id="40d2f466-8de0-4e34-87aa-4df1c8a11140" data-name="&lt;Path&gt;" d="M560.3837,459.7517c-.178-.3741-.3986-.7172-.6066-1.07l.0164-.0208-7.9463-13.2845-48.0489,25.5395,6.959,12.3165.7138,1.2077c5.1584,8.6427,19.2767,10.7067,32.401,4.4635C557.5542,482.3951,564.9464,469.3429,560.3837,459.7517Z" style="fill:#f9b663"/><path id="acee8c06-68c2-4fff-8868-1122469056ff" data-name="&lt;Compound Path&gt;" d="M528.65,494.0137c-8.0633,0-15.0683-3.0537-18.4915-8.7914l-.7164-1.21-7.7441-13.7092,50.7126-26.959,9.271,15.4933-.03.0342c.039.0714.0754.1446.11.22l.0019.0022c2.427,5.1016,1.9059,11.1906-1.4647,17.1439a35.5305,35.5305,0,0,1-15.7708,14.0442A37.2931,37.2931,0,0,1,528.65,494.0137ZM505.9,471.53l6.888,12.1316c4.7732,8.006,18.14,9.7094,30.4279,3.8616A32.4573,32.4573,0,0,0,557.6409,474.73c2.8653-5.0581,3.35-10.1433,1.3661-14.32-.117-.2409-.2549-.466-.3924-.6932l-.7211-1.2171.0136-.0159-6.6259-11.0758Z" style="fill:#e95246"/></g><g id="b1189c58-6be5-4d45-9b98-60e436a57099" data-name="&lt;Group&gt;"><g id="162f0736-18cd-46aa-8878-e6ac61ebec44" data-name="&lt;Group&gt;"><path id="9060970a-b039-42c6-97bf-59f240b42872" data-name="&lt;Path&gt;" d="M536.4441,476.0282c-13.6819,6.5089-28.4723,4.01-33.0355-5.5818s2.83-22.6434,16.5116-29.1523,28.4725-4.01,33.0352,5.5817S550.1259,469.52,536.4441,476.0282Z" style="fill:#f9b663"/><path id="631c1907-f20c-4fee-81e7-a9614907d6ed" data-name="&lt;Path&gt;" d="M511.8326,481.9617c6.6,5.1732,18.0928,5.6792,28.9132.532,10.8462-5.16,17.7131-14.4283,17.8312-22.8284l-7.0017-12.133.4111-.0878c-6.734-4.3783-17.5555-4.5417-27.7642.3147-11.96,5.69-19.1127,16.3791-17.6758,25.3866Z" style="fill:#fec"/><path id="289b9e39-ad97-489f-9b72-e3b716909f4d" data-name="&lt;Compound Path&gt;" d="M521.1515,481.1816a29.3784,29.3784,0,0,1-4.8994-.4c-6.7454-1.1409-11.7963-4.5777-14.2233-9.68s-1.9078-11.1877,1.465-17.1413A37.7422,37.7422,0,0,1,540.1116,436.54c6.7454,1.1411,11.7966,4.578,14.2233,9.68s1.9078,11.19-1.4625,17.1435a35.5316,35.5316,0,0,1-15.7708,14.0442h0A37.5125,37.5125,0,0,1,521.1515,481.1816Zm14.0512-41.9881a34.39,34.39,0,0,0-14.6249,3.4809,32.4753,32.4753,0,0,0-14.4255,12.7928c-2.8651,5.06-3.35,10.1458-1.3636,14.3222s6.2379,7.0092,11.9709,7.9781a32.4789,32.4789,0,0,0,19.0286-3.12h0a32.4478,32.4478,0,0,0,14.4232-12.7931c2.8676-5.0579,3.35-10.1459,1.3639-14.3219s-6.2385-7.01-11.9712-7.9785A26.4152,26.4152,0,0,0,535.2027,439.1935Z" style="fill:#e95246"/></g></g><g id="a05c7e5a-bb0d-40d2-91e5-844b709ca61c" data-name="&lt;Group&gt;"><path id="d2092f4c-52d7-4e72-b613-9ec47bec86db" data-name="&lt;Path&gt;" d="M547.4,448.9471a20.03,20.03,0,0,0-1.6514-5.1442L495.54,327.92l-40.6858,17.6282s50.8837,117.9747,51.229,118.7c3.6494,7.6721,15.48,9.6712,26.424,4.4649C541.9776,464.2088,548.4013,456.1056,547.4,448.9471Z" style="fill:#f9b663"/><path id="01265697-9f3d-4236-8752-edf724469481" data-name="&lt;Path&gt;" d="M531.6416,438.6153a20.0386,20.0386,0,0,0-1.6513-5.1442L482.7616,324.4679l-31.1273,13.4867s50.8836,117.9747,51.2287,118.7a11.4548,11.4548,0,0,0,3.9226,4.5106,29.5545,29.5545,0,0,0,9.9629-2.7835C526.2186,453.8769,532.6423,445.7737,531.6416,438.6153Z" style="fill:#fec"/><path id="6c0ae359-8533-4f2d-9b4d-2ae1a419fc48" data-name="&lt;Compound Path&gt;" d="M548.9141,448.7355l-.0092-.06a21.75,21.75,0,0,0-1.7519-5.4807l-50.21-115.8825-.6083-1.4-43.4873,18.84.6035,1.4029c5.21,12.0765,50.9034,118.0223,51.2521,118.75,1.9839,4.1741,6.1051,6.9843,11.6017,7.9118a23.7732,23.7732,0,0,0,3.97.3262,30.3149,30.3149,0,0,0,12.8892-3.0492C543.5072,465.1721,549.9839,456.3877,548.9141,448.7355Zm-17.0633,18.5993a29.3012,29.3012,0,0,1-5.5879,1.997l-32.4918-78.27-4.8941,2.5693-10.927,1.6018c-9.747-22.5914-18.7194-43.393-21.0891-48.8867L494.7462,329.93l49.6013,114.48a18.7016,18.7016,0,0,1,1.5452,4.7777C546.7422,455.428,540.8438,463.0551,531.8508,467.3348Z" style="fill:#e95246"/></g><g id="5e4112f8-43ee-4fb7-bbec-c0524c538534" data-name="&lt;Group&gt;"><path id="b4e0ac75-3386-490a-bc7c-8eea7ac140d5" data-name="&lt;Path&gt;" d="M424.4967,431.06l-36.5213,4.77,14.951-16.7466-18.7623,17.2443-3.03.3958-17.0645,11.9331-10.8532,14.1826-3.2943-6.0144-6.0068-3.3351-1.4162-16.81-14.1476,8.1684L334.92,480.58a4.881,4.881,0,0,0,2.427,3.61v.0808l21.5241,11.9462,6.7674-10.6967-1.7463-5.0955,8.285,2.0073Z" style="fill:#e95246"/><path id="0b934b91-311e-49d0-81c2-41d70f62ab3b" data-name="&lt;Compound Path&gt;" d="M359.39,498.2519,335.82,485.17v-.1584a6.5733,6.5733,0,0,1-2.4014-4.1555l-6.7663-36.7924,17.1667-9.9115,1.55,18.3971,5.68,3.1526,2.3807,4.3459,9.7646-12.6413,17.3711-12.15,2.9224-.3811,18.4067-16.9165,2.1743,2.1421-12.2165,13.6813,36.9711-4.8259-56.1791,55.16-6.4008-1.55,1.0789,3.15ZM338.8776,483.37l19.4742,10.8092,5.6043-8.8576-2.4153-7.0393,10.1711,2.4635,48.46-47.5787L381.7037,438.19l-16.565,11.5829L353.002,465.6311l-4.2084-7.6845-6.3321-3.5149-1.2834-15.2246L330.05,445.6336l6.3755,34.6709a3.3818,3.3818,0,0,0,1.6577,2.5462Z" style="fill:#e95246"/></g><g id="2bdfdd50-9d78-4d02-8309-6c995220c89c" data-name="&lt;Group&gt;"><path id="cb5cc87a-0ecc-4f70-b7c4-0cc7cccd9e84" data-name="&lt;Path&gt;" d="M349.9219,456.8249l6.5691,35.7319c1.1068,6.02,8.12,5.5825,13.8768-.866l54.1289-60.63-45.93,42.214c-5.8828,5.4068-12.0261,4.7177-12.5422-1.4069l-1.9552-23.2109Z" style="fill:#f9b663"/><path id="32184b5d-4e86-44fd-8972-6c780d4cff21" data-name="&lt;Compound Path&gt;" d="M361.3,498.3438a6.9779,6.9779,0,0,1-1.8917-.2526,6.234,6.234,0,0,1-4.42-5.26l-6.7663-36.7924,17.167-9.909,2.1582,25.6088c.1055,1.2421.5464,2.847,2.0479,3.4324,1.9792.7693,5.0991-.4111,7.9394-3.0214l45.93-42.2131,2.1741,2.1421L371.51,492.7072C368.2909,496.3117,364.5418,498.3438,361.3,498.3438Zm-9.68-40.7345,6.3758,34.6708a3.2518,3.2518,0,0,0,2.2385,2.87c1.9883.549,5.54-.613,8.9933-4.4769l33.53-37.5549-23.1568,21.2812c-3.8023,3.499-7.96,4.856-11.1145,3.6185-2.3189-.9024-3.7332-3.0422-3.9836-6.0224l-1.7541-20.81Z"/></g><path id="26e6c540-095e-4927-9d47-6d6ebbdcf989" data-name="&lt;Path&gt;" d="M459.8458,372.4461l-18.6868-30.499-45.0117,39.956a69.2416,69.2416,0,0,1-6.7476,5.32l-31.925,22.0179a31.9506,31.9506,0,0,1-13.44,5.7054l-6.9178-19.6853,3.6394-107.5849L320.5308,290.86l4.1647-25.7078-23.0049,13.2823L296.78,310.86c-6.22,41.0765-2.9595,77.9766,9.4225,106.7126l7.4135,17.2012a15.0222,15.0222,0,0,0,5.9511,6.9565l33.0822,18.5166,2.693-13.13L353.9,443.0161l21.499,5.55,11.3627-7.547a4.0888,4.0888,0,0,0,1.7126.98c5.6458,1.6694,17.6605-6.6925,21.4213-9.7528,13.6264-11.0917,60.4885-21.5107,60.9592-21.6141l1.66-.3648Z" style="fill:#e95246"/><path id="3369343b-c236-4daa-adb8-3da0de111355" data-name="&lt;Path&gt;" d="M394.818,341.621c-.3078-1.5152-.6153-3.0467-.9113-4.7365L380.17,282.7394l-20.9135-2.4381,13.1694,68.9994a66.3634,66.3634,0,0,1-.1722,23.8091l-6.6008,38.574c-1.1021,6.44-4.2084,17.38-12.6527,18.303l-5.2234.5718,15.9591,7.8523,5.68-3.7542c6.7179-5.0373,15.3277-14.3817,17.4951-24.19l8.6279-47.6292C397.4009,354.4071,396.0877,347.9071,394.818,341.621Z" style="fill:#e95246"/><g id="be81ab39-c1a2-4325-8097-00fa8f10ea02" data-name="&lt;Group&gt;"><path id="fc1bf329-2b8a-44ba-a1ab-04b65aba3c3d" data-name="&lt;Path&gt;" d="M373.4708,284.1445l12.7783,66.9474a68.1333,68.1333,0,0,1-.166,24.3605l-6.6,38.5729c-1.71,9.9918-11.024,20.376-19.0673,21.2573l3.1893,10.724,10.1762-9.3546h0c7.3475-5.5113,12.7413-17.477,14.638-26.0692l10.7558-43.3285c2.2231-10.0718,2.6484-19.4938,1.2488-27.6565L391.2724,286.22Z" style="fill:#f9b663"/><path id="ffb88429-6200-438e-818c-1480310250f5" data-name="&lt;Compound Path&gt;" d="M362.8378,448.7862,358.43,433.9635l1.8185-.2c7.3584-.806,16.14-10.7106,17.7292-19.9956l6.6006-38.5738a66.3679,66.3679,0,0,0,.1724-23.8089L371.5785,282.386l21.008,2.45,9.3445,54.5055c1.4419,8.412,1.0169,17.915-1.2628,28.2422l-10.7658,43.3656c-1.9722,8.9382-7.5765,21.2052-15.2059,26.9245Zm-.4726-12.3133,2.0064,6.7524,8.3756-7.6985c7.1219-5.3517,12.3177-16.8313,14.1795-25.2734l10.7658-43.3657c2.1833-9.9024,2.5989-19.01,1.2261-27.0323L389.96,287.6046l-14.5976-1.7012,12.389,64.9013a69.3763,69.3763,0,0,1-.1607,24.9042L380.99,414.2827C379.2951,424.1876,370.5639,434.3673,362.3652,436.4729Z"/></g><g id="348f5606-e367-4257-859f-92bb33b053a4" data-name="&lt;Group&gt;"><path id="028f090b-0586-43a7-9f2b-9f7e01262ee3" data-name="&lt;Path&gt;" d="M386.9641,251.3924,353.76,271.9366l.5988,15.3354a6.5838,6.5838,0,0,0,2.534,5.4183l-.0215.0281,21.5191,11.9437,29.9333-41.4386Z" style="fill:#e95246"/><path id="06511683-2a89-48c7-b393-855942051d9d" data-name="&lt;Compound Path&gt;" d="M378.8358,306.6565l-24.3206-13.498.271-.3259a8.5917,8.5917,0,0,1-1.9538-5.5013l-.6336-16.2252L386.92,249.6218l23.6527,13.0995Zm-20.8536-15.0708,19.9629,11.08,28.1322-38.9389-19.07-10.5649-31.686,19.6062.5646,14.4438a5.15,5.15,0,0,0,1.8852,4.2268Z" style="fill:#f9b663"/></g><g id="ac5c43a3-bb2f-404c-9db9-d34769361491" data-name="&lt;Group&gt;"><path id="89a4e730-fb2d-4ec3-9704-8509c4b06abc" data-name="&lt;Path&gt;" d="M458.1981,162.9117l-6.0725-30.8769a9.9906,9.9906,0,0,0-4.1825-6.7452l-4.0207-2.5915,1.6675-2.644L401.2255,94.9419a25.5531,25.5531,0,0,0-6.175-2.4978L339.5872,78.0666c-6.056-1.4566-14.2252,2.1387-21.3079,9.3779l-28.71,29.3446c-5.2339,5.35-7.98,12.9594-6.4,17.74l11.32,34.2576c1.5385,4.6562,1.33,10.6878-.5944,17.211L282.72,223.8755c-1.404,4.7581-.3975,8.6162,2.5537,9.79l7.0479,3.9939a10.7265,10.7265,0,0,1,1.9805,3.9213l6.7306,24.0357a7.0991,7.0991,0,0,0,3.09,4.2889l-.0181.06,45.7648,25.4623a4.1474,4.1474,0,0,0,6.0572-2.6907l11.11-48.11,9.855-15.6287,70.3776-45.2172C454.3685,179.22,459.4837,169.451,458.1981,162.9117Z" style="fill:#f9b663"/><path id="c8535d81-18f5-4c61-a115-b0ccf3c17fe8" data-name="&lt;Compound Path&gt;" d="M351.88,297.4863a5.6474,5.6474,0,0,1-2.7529-.721L302.2782,270.7l.0619-.2044A8.8893,8.8893,0,0,1,299.56,266.03l-6.7292-24.036a9.364,9.364,0,0,0-1.5243-3.1525l-6.7847-3.8458c-3.5564-1.3992-4.9133-5.9695-3.267-11.552l11.1741-37.8794c1.8232-6.177,2.039-11.9654.6085-16.2974l-11.3189-34.2576c-1.7725-5.3623,1.07-13.4739,6.7571-19.2881l28.71-29.3457c7.4617-7.6258,16.1863-11.3729,22.76-9.7946L395.4332,90.965a27.13,27.13,0,0,1,6.546,2.6459l45.7578,25.9029-1.7151,2.7194,2.7506,1.7725a11.4815,11.4815,0,0,1,4.8512,7.7339l6.0728,30.8769c1.4188,7.2172-3.8939,17.4981-11.6013,22.4507l-70.0927,45.0337-9.5347,15.122-11.05,47.86a5.7057,5.7057,0,0,1-5.5377,4.4036ZM305.9288,269.23l44.6833,24.8626a2.62,2.62,0,0,0,3.8273-1.699l11.3053-48.5819L375.78,227.8967l.285-.1838,70.3773-45.2172c6.5273-4.1937,11.4153-13.3875,10.2558-19.2893L450.6252,132.33a8.5176,8.5176,0,0,0-3.51-5.7547l-5.29-3.4119,1.6188-2.5679L400.473,96.2707a24.0425,24.0425,0,0,0-5.8065-2.3462L339.2037,79.546c-5.5127-1.3315-13.1212,2.1076-19.8323,8.9667l-28.7107,29.3456c-4.7754,4.881-7.4272,11.9927-6.0407,16.191l11.3192,34.2576c1.6483,4.99,1.4486,11.2571-.581,18.1231l-11.1741,37.8779c-1.148,3.8974-.4846,7.0875,1.6552,7.9384l7.6662,4.4493a12.262,12.262,0,0,1,2.2683,4.4727l6.73,24.0371a5.6021,5.6021,0,0,0,2.422,3.4Z" style="fill:#e95246"/></g><path id="a8c08351-3fd9-426d-ac4c-e2b65322c39d" data-name="&lt;Path&gt;" d="M348.783,217.6812l-5.2976-13.2763-48.0353-28.67a36.3558,36.3558,0,0,1-1.5558,10.2626L282.72,223.8755c-1.404,4.7581-.3975,8.6162,2.5537,9.79l7.0479,3.9939,39.6078,22.3707Z" style="fill:#f9b663"/><g id="9da94735-7a1f-412a-9145-7e5142f2cf9c" data-name="&lt;Group&gt;"><path id="346612fa-11bf-4692-988f-d619a1a2a6da" data-name="&lt;Path&gt;" d="M474.9241,374.272l-1.7788,1.3456-4.3491-11.9548L427.88,400.1223a70.9905,70.9905,0,0,1-6.8961,5.4372l-31.925,22.0168c-13.0872,9.0253-25.4333,8.0842-29.8475-2.2752l-1.6848-3.9544c-12.436-29.1847-15.4131-66.6068-8.629-108.4717l4.49-27.7139-19.5819,11.3056-4.8,31.7008c-6.1884,40.8729-2.979,77.3527,9.3147,105.8782l7.4139,17.2023c4.0574,9.4147,14.7678,11.0721,26.7691,4.1432l30.2884-17.4872,1.6229,5.008c1.768,5.4561,8.0734,5.8614,14.3807.7269,14.0653-11.45,38.74-27.2376,56.1283-14.6439,10.5174,7.6172,18.1173,13.0689,23.4233,16.85a3.6314,3.6314,0,0,0,5.4314-4.4078Z" style="fill:#f9b663"/><path id="30b9a5a5-3983-41f4-a70a-ce5ae8f87cf2" data-name="&lt;Compound Path&gt;" d="M358.6985,461.1657a17.0657,17.0657,0,0,1-5.3887-.8289,14.722,14.722,0,0,1-8.9772-8.4856l-7.4155-17.199c-12.3845-28.7381-15.64-65.6383-9.4206-106.7151l4.9089-32.4254L355.4106,282.23l-5.0049,30.89c-6.73,41.5266-3.7815,78.7434,8.5268,107.6287l1.683,3.9535a11.7074,11.7074,0,0,0,7.6019,6.9888c5.46,1.5817,12.7332-.3765,19.9721-5.3726l31.9273-22.0157a69.5777,69.5777,0,0,0,6.7456-5.3218l42.5986-37.9588,4.4129,12.1272,1.683-1.2743,29.6264,68.9583a5.1317,5.1317,0,0,1-1.5059,6.0728,5.03,5.03,0,0,1-6.2151.1838c-5.3083-3.7839-12.9146-9.2367-23.4347-16.8566-16.735-12.12-41.1821,3.94-54.2665,14.59-4.0775,3.32-8.3778,4.64-11.82,3.6322a7.4305,7.4305,0,0,1-4.98-5.0716l-1.0422-3.2121-28.6507,16.5423C368.1759,459.655,363.1687,461.1657,358.6985,461.1657ZM335.2064,297.422l-4.6882,30.9744c-6.1349,40.5095-2.9526,76.8333,9.2044,105.046l7.4158,17.1987a11.59,11.59,0,0,0,7.1334,6.7938c4.7687,1.5792,10.9724.3811,17.4674-3.3661l31.925-18.4339,2.2042,6.8074a4.3541,4.3541,0,0,0,2.9389,3.0813c2.4267.7183,5.7879-.4339,9.0251-3.07,13.762-11.2064,39.6026-28.0174,57.9861-14.6962,10.5154,7.6155,18.1125,13.0638,23.4163,16.843a2.0293,2.0293,0,0,0,2.5256-.0735,2.055,2.055,0,0,0,.6127-2.4866l-28.0837-65.3718-1.8711,1.4162-4.2889-11.7826-39.2329,34.96a72.5526,72.5526,0,0,1-7.044,5.5561l-31.9272,22.0156c-8.1208,5.5977-16.1334,7.6523-22.5574,5.7926a14.6709,14.6709,0,0,1-9.5626-8.7267l-1.6828-3.9539c-12.5358-29.4178-15.5574-67.2178-8.7337-109.3137l3.9764-24.539Z"/></g><g id="edc77e40-45a8-4a67-a618-f93810ca491d" data-name="&lt;Group&gt;"><path id="9f175fe9-831e-4c6d-9093-c17782904458" data-name="&lt;Path&gt;" d="M378.6879,283.1391l-10.7552,6.6546c-6.1989,3.8355-11.4242,1.8293-11.67-4.4813l-.5988-15.3354,33.204-20.5441.5988,15.3355C389.7125,271.0788,384.8869,279.3037,378.6879,283.1391Z" style="fill:#f9b663"/><path id="9e15cf0a-0ec0-4774-979d-9b5c08da67af" data-name="&lt;Compound Path&gt;" d="M362.03,293.2643a7.2691,7.2691,0,0,1-3.4552-.82c-2.3465-1.2466-3.71-3.7583-3.8388-7.0715l-.6339-16.2275,36.191-22.3911.7,17.9554c.2688,6.9084-4.7824,15.5733-11.5025,19.7291l-10.754,6.6535A13.0089,13.0089,0,0,1,362.03,293.2643Zm-4.8055-22.4568.5649,14.4461c.06,1.543.4935,3.5748,2.22,4.4933,1.736.923,4.3326.47,7.12-1.2536l10.7544-6.6538c5.6731-3.5081,10.2787-11.2983,10.0561-17.0106l-.4982-12.7182Z" style="fill:#e95246"/></g><path id="925c03f6-a551-45c5-b139-3d4c9b8ce1e9" data-name="&lt;Path&gt;" d="M311.5671,411.9668l3.5471-24.839L303.3411,380.24l-8.4163,11.85c-5.0559,7.1189-5.9254,15.0719-1.9824,18.1339L316.5781,428.58l11.7732,6.8883Z" style="fill:#f9b663"/><path id="13578f87-ee31-4fe2-b054-af4363d0ebff" data-name="&lt;Path&gt;" d="M496.5,317.1143l-25.6687-48.0885a56.5889,56.5889,0,0,1-5.9577-20.1122l-.046-.3939-9.7255-13.5013-57.5591,36.9831,2.1629,27.8659c.762,9.762,3.1843,18.296,7.2022,25.3651l18.6383,32.7951,33.3669,16.8775L477.74,346.8557a37.7717,37.7717,0,0,0,7.0348-5.8867C491.4215,337.2611,502.1458,327.6893,496.5,317.1143Z" style="fill:#e95246"/><g id="9e058c6c-a993-4c39-bbb2-d8d25d3bab54" data-name="&lt;Group&gt;"><path id="a8154025-59e7-429d-9c0f-30a42d9fac30" data-name="&lt;Path&gt;" d="M424.6875,256.3767l4.2549,54.6391c.7406,9.51,3.11,17.8742,7.0064,24.7295l29.7124,52.283c7.1652,12.6076,26.2174,8.8621,42.0711-8.2706h0c14.9764-16.1846,21.6338-38.4737,15.131-50.6569l-25.667-48.0882a58.1291,58.1291,0,0,1-6.1293-20.652l-5.0983-43.357Z" style="fill:#f9b663"/><path id="84026481-2fc2-447f-8ca1-e1ae11c29062" data-name="&lt;Compound Path&gt;" d="M479.0512,397.0288a20.8683,20.8683,0,0,1-2.3833-.1331,15.7476,15.7476,0,0,1-12.3357-8.1115L434.62,336.501c-4.0179-7.0691-6.44-15.6031-7.2022-25.3654l-4.3234-55.5513,64.107-41.189,5.3818,45.7879a56.6307,56.6307,0,0,0,5.96,20.1111L524.21,328.3828c6.8006,12.7354.0552,35.7568-15.3552,52.4138C499.3105,391.11,488.359,397.0288,479.0512,397.0288Zm-52.77-139.86,4.1855,53.7284c.7255,9.3122,3.0169,17.4171,6.812,24.0934l29.7116,52.2832a12.7923,12.7923,0,0,0,10.0286,6.5847c8.6627,1.0194,20.0206-4.7941,29.59-15.1371,14.5837-15.7616,21.1294-37.24,14.9051-48.9012l-25.6661-48.0881a59.6389,59.6389,0,0,1-6.3-21.1916l-4.812-40.9286Z"/></g><g id="931d32a9-97ff-45fd-bbac-a31557580aee" data-name="&lt;Group&gt;"><path id="e0a34fe5-53a8-4c40-888e-00250d61ce62" data-name="&lt;Path&gt;" d="M398.1446,296.93l-10.7552,6.6544c-6.199,3.8357-11.424,1.8293-11.67-4.4811l-.7247-10.8,33.9375-21.8045-.0089,12.06C409.1694,284.87,404.3435,293.0947,398.1446,296.93Z" style="fill:#f9b663"/><path id="79821b7a-40e2-4cd1-be5e-fc3b07f359ef" data-name="&lt;Compound Path&gt;" d="M381.4879,307.0559a7.3,7.3,0,0,1-3.4556-.8174c-2.3462-1.2489-3.71-3.7609-3.841-7.076l-.7807-11.6565,37.0519-23.8043-.0114,14.8594c.2688,6.844-4.7827,15.5112-11.5027,19.6692l-10.7541,6.6537A13.0235,13.0235,0,0,1,381.4879,307.0559Zm-4.9086-17.9521.6634,9.898c.0641,1.5863.498,3.6184,2.2248,4.5367,1.738.925,4.3368.4682,7.12-1.2536l10.7541-6.6538c5.7722-3.5722,10.2814-11.2041,10.0541-17.0126l.0067-9.32Z"/></g><path id="e989e459-6a41-40ed-b837-c32b4cf3b798" data-name="&lt;Path&gt;" d="M440.5585,117.87a14.2133,14.2133,0,0,1,4.4056,1.8641h0L400.6,94.6225a25.5356,25.5356,0,0,0-6.1747-2.4975L341.2074,78.33a.306.306,0,0,0-.2279.5623l45.9985,26.0921Z" style="fill:#f9b663"/><path id="3d4697e8-1f25-498a-bd91-fbba109cf76e" data-name="&lt;Path&gt;" d="M440.5585,123.8278a14.216,14.216,0,0,1,4.4056,1.8643h0L400.6,100.58a25.5506,25.5506,0,0,0-6.1747-2.4971L341.2074,84.287a.306.306,0,0,0-.2279.5623l45.9985,26.0918Z" style="fill:#fec"/><path id="eec9bd54-2756-4185-8e00-fd13be88afe9" data-name="&lt;Path&gt;" d="M513.7589,308.2588l-.2975-18.354,14.386-17.5769-37.9939-22.2126h0l1.1957,10.1682a58.142,58.142,0,0,0,6.1293,20.6517l.0178.0774L468.298,316.4263a22.721,22.721,0,0,0-2.085,25.7052l3.9644,6.8835a12.6023,12.6023,0,0,0,4.3178,4.4683l0,.0016.0109.0059c.0963.06.1986.1058.2966.1624l16.1584,8.8256a.9467.9467,0,0,0,1.3333-.48l10.1982-25.5325L517.1142,318.33l-4.22-7.9065Z" style="fill:#f9b663"/><path id="9c697ffd-cb5c-4736-a843-4970bf3412bb" data-name="&lt;Path&gt;" d="M396.4654,108.7878,358.3531,87.0226,348.219,84.3953c-6.056-1.4563-14.2249,2.139-21.3079,9.378l-28.71,29.3445c-5.2338,5.35-7.9792,12.9594-6.4,17.74l2.4855,7.5224,45.0072,25.4038,24.0519-48.0915Z" style="fill:#fec"/><path id="9ea374e6-f418-4a0b-92c8-2416219412b3" data-name="&lt;Path&gt;" d="M341.1441,89.0663c-.08-.0874-38.28-49.2264-38.28-49.2264A28.3755,28.3755,0,0,0,284.42,29.1423L165.878,9.3949l-9.5933,43.0958L256.4828,67.0646a28.45,28.45,0,0,1,20.6741,13.5713s26.5565,43.3016,28.0683,44.795c7.27,7.1809,21.2043,4.8618,31.1234-5.18S348.28,96.8877,341.1441,89.0663Z" style="fill:#f9b663"/><path id="0a431138-7dd2-4a4a-9b2f-3db027bc63d1" data-name="&lt;Path&gt;" d="M298.3085,44.9986a28.3753,28.3753,0,0,0-18.4453-10.6979L172.7153,16.4512l1.9067,13.7267L275.4225,46.8025c8.9089,1.3386,14.3651,5.1116,18.5144,11.696,0,0,26.9836,40.5917,28.4954,42.0851,1.2586,1.243,2.47,2.5147,3.6939,3.678,6.5722,6.2486,16.61-3.177,10.5578-9.93q-.0477-.0534-.0958-.1063C336.5082,94.1373,298.3085,44.9986,298.3085,44.9986Z" style="fill:#fec"/><path id="55f0030b-f83c-433b-bcb1-53eedd85bbaf" data-name="&lt;Compound Path&gt;" d="M342.31,88.0768c-1.2007-1.5294-37.8666-48.6937-38.2409-49.1744A30.0178,30.0178,0,0,0,284.6707,27.635L164.7012,7.65,154.434,53.766,256.2564,68.5747a27.0118,27.0118,0,0,1,19.5978,12.86c6.2519,10.1951,26.773,43.5779,28.2973,45.0841a16.7054,16.7054,0,0,0,12.0264,4.6184,23.5441,23.5441,0,0,0,3.8661-.3295,32.4879,32.4879,0,0,0,17.392-9.4821C347.8525,110.7776,349.9417,96.4958,342.31,88.0768ZM167.0569,11.14,284.1816,30.6519a26.677,26.677,0,0,1,17.4767,10.126c37.3,47.9829,38.2776,49.2273,38.3556,49.3181,3.3236,3.6425,4.4312,8.648,3.5185,13.92-6.8189,12.9822-21.6714,11.6108-28.7053,4.6635-1.5118-1.4934-26.5719-41.86-26.5719-41.86a28.45,28.45,0,0,0-20.674-13.5713L185.2034,38.549a32.2913,32.2913,0,0,1-10.035,15.1438l-17.0335-2.4775Z" style="fill:#e95246"/><path id="8fe1749f-7d86-4b15-b63a-b7c7406d2858" data-name="&lt;Path&gt;" d="M173.2982,5.0916a15.6,15.6,0,0,0-4.1995-.5632l-21.05-2.8242L137.1239,54.931,159.2064,58.08c10.7471,2.54,22.51-6.7356,26.4919-21.0728C189.7524,22.4083,184.2005,8.119,173.2982,5.0916Z" style="fill:#f9b663"/><path id="0005b86e-039f-4e45-bb57-671616c7f6e3" data-name="&lt;Path&gt;" d="M168.4587,11.1808a15.5834,15.5834,0,0,0-4.1995-.5635L143.2961,7.8049l-9.1886,44.7674L156.19,55.7215c10.2068,2.4116,21.3169-5.8431,25.82-18.96C183.1546,24.57,177.7692,13.7659,168.4587,11.1808Z" style="fill:#fec"/><path id="28881219-dfd8-4241-aa88-3c1fd2796d99" data-name="&lt;Compound Path&gt;" d="M173.7059,3.6182a16.546,16.546,0,0,0-4.4036-.6035L146.8388,0,135.3007,56.2147l23.555,3.3533a17.4208,17.4208,0,0,0,4.0065.466c10.3845-.0022,20.5737-9.1721,24.307-22.6183C191.4444,22.03,185.4037,6.8671,173.7059,3.6182Zm-24.447-.21L169.1,6.0566h.0228a14.0537,14.0537,0,0,1,3.7653.5075c7.8812,2.1883,12.6856,10.9176,12.5845,21.2-5.4609,8.9758-14.3124,14.0545-22.5885,12.0993l-20.5081-2.9247Z" style="fill:#e95246"/><g id="a887ff48-2c76-4eba-b46b-9256405976cf" data-name="&lt;Group&gt;"><path id="955f3d18-f5c2-47ea-aa61-3b6e74ebf5ce" data-name="&lt;Path&gt;" d="M162.7335,34.064c-4.0538,14.5987-16.1782,23.9792-27.08,20.9517s-16.4542-17.3162-12.4-31.915,16.1779-23.9794,27.08-20.9519S166.7876,19.465,162.7335,34.064Z" style="fill:#f9b663"/><path id="e0d5df47-1026-4f17-b5f2-8fc79136618e" data-name="&lt;Compound Path&gt;" d="M139.7962,57.1068a16.982,16.982,0,0,1-4.5518-.6177C123.5478,53.24,117.5082,38.0783,121.78,22.6919A34.0472,34.0472,0,0,1,133.2906,4.8066C138.7961.5453,144.9964-.916,150.742.6762c5.7491,1.5968,10.3042,6.0486,12.8251,12.5369a34.0253,34.0253,0,0,1,.6381,21.2592C160.4814,47.8818,150.1359,57.1068,139.7962,57.1068Zm6.3413-53.9991a18.0573,18.0573,0,0,0-10.9769,4.1154,30.9813,30.9813,0,0,0-10.4349,16.2862c-3.8215,13.7629,1.2639,27.2367,11.3359,30.0342,10.0815,2.81,21.38-6.1268,25.2005-19.8887a30.9633,30.9633,0,0,0-.5442-19.3337c-2.163-5.5679-5.9971-9.3677-10.7934-10.6993A14.0839,14.0839,0,0,0,146.1375,3.1077Z" style="fill:#e95246"/></g><path id="0724018d-1ce3-4995-92ad-af4ccf61e6ae" data-name="&lt;Path&gt;" d="M155.2005,31.9721C152.6938,41,145.1958,46.8006,138.4541,44.9287S128.279,34.22,130.7859,25.1924s10.0046-14.8285,16.7464-12.9563S157.7074,22.9442,155.2005,31.9721Z" style="fill:#f9b663"/><g id="1d7f99bf-a4f9-45c5-8e47-e7ffa1344d67" data-name="&lt;Group&gt;"><path id="64ff3e0c-1a63-4aef-b8e7-b3f93c3575c3" data-name="&lt;Path&gt;" d="M174.1538,55.9231,172.8311,53.98a32.5137,32.5137,0,0,0,11.25-15.78l2.2454.698A34.306,34.306,0,0,1,174.1538,55.9231Z" style="fill:#f9b663"/></g><path id="c0ecab97-2470-43da-b2cc-29a83bea1a79" data-name="&lt;Path&gt;" d="M150.518,39.0631l-19.7822-4.0675c1.2525,4.1756,3.9708,7.3668,7.7149,8.4068C142.6418,44.566,147.1235,42.7615,150.518,39.0631Z" style="fill:#fec"/><path id="535de490-f577-49a7-b336-22e3ab80c7f8" data-name="&lt;Compound Path&gt;" d="M156.2594,18.8681c-1.626-4.1891-4.5808-7.0671-8.3185-8.1048-7.54-2.1009-15.8991,4.1936-18.628,14.02a21.6411,21.6411,0,0,0,.4144,13.5137c1.6268,4.188,4.5816,7.066,8.3182,8.1037a11.0471,11.0471,0,0,0,2.964.4016c6.6526,0,13.2891-5.8719,15.6629-14.4219A21.616,21.616,0,0,0,156.2594,18.8681ZM138.8627,43.4553c-2.7847-.7726-5.0175-2.9974-6.2873-6.2647a17.899,17.899,0,0,1-.7684-9.3487l21.8772,3.8622C151.3689,39.8226,144.7413,45.0905,138.8627,43.4553Z" style="fill:#e95246"/><path id="632b4235-d34f-48b7-a0ea-50a776204936" data-name="&lt;Compound Path&gt;" d="M444.21,121.0632l-1.3179-.7459a13.1407,13.1407,0,0,0-2.693-.962l-53.9752-13.0421-45.9965-26.092a1.8339,1.8339,0,0,1,1.3614-3.3717l53.22,13.7952a27.1041,27.1041,0,0,1,6.5434,2.6481L444.32,117.6137a15.4276,15.4276,0,0,1,1.4717.8356Zm-56.6659-17.5143,44.7248,10.7552-32.423-18.3525a24.1126,24.1126,0,0,0-5.8043-2.3485l-44.25-11.47Z" style="fill:#e95246"/><path id="34cee1c3-ad44-4a4b-9c40-3bd8e0862066" data-name="&lt;Path&gt;" d="M291.9238,237.66l39.6076,22.371,14.6572-34.84-47.8717-28.5728a36.3629,36.3629,0,0,1-1.5558,10.2622l-8.5981,28.6491Z" style="fill:#fec"/><g id="5a144e8a-1da1-4902-843c-c53493caae4c" data-name="&lt;Group&gt;"><path id="b585080a-e2f2-48d5-b2cc-b19bce8ef2e3" data-name="&lt;Path&gt;" d="M335.5805,271.0328l-2.2908-10.01-22.7635-12.9334-.9288.8706-26.3151,28.7051c-10.4725,11.4233-17.7947,25.9744-19.648,39.0455a2.0177,2.0177,0,0,0,.6676,2.07l.0437.0531a1.2972,1.2972,0,0,0,.1312.0688l23.4709,11.9559Z" style="fill:#f9b663"/><path id="ab592e1c-9555-4642-8a93-80f9b5b9a22f" data-name="&lt;Path&gt;" d="M338.2378,283.5513l-2.2908-10.01-22.7634-12.9332-.9286.87L285.94,290.1836c-10.4725,11.4234-13.3758,17.399-15.229,30.47a2.0183,2.0183,0,0,0,.6679,2.07,1.77,1.77,0,0,0,.1743.1218l17.9343,8.812Z" style="fill:#fec"/></g><path id="847d9420-69c8-4107-bf61-0211fd16322c" data-name="&lt;Compound Path&gt;" d="M332.704,262.2208l-48.1826-27.2253c-3.5564-1.3992-4.9133-5.9695-3.267-11.552l11.1741-37.8794a34.8253,34.8253,0,0,0,1.4926-9.8289v-2.6919l50.7928,30.3144L350.426,217.68Zm-35.8282-83.8556a39.0866,39.0866,0,0,1-1.5176,8.0648l-11.1741,37.8779c-1.148,3.8974-.4846,7.0875,1.6552,7.9384l45.3172,25.5926,15.9819-40.1571-4.8813-12.23Z" style="fill:#e95246"/><path id="50760572-b0aa-4ec8-a758-e36c445ba962" data-name="&lt;Path&gt;" d="M331.1849,161.7651l11.32,34.2578c1.5385,4.656,1.33,10.6876-.5941,17.211l-11.1749,37.878c-1.4037,4.7585-.3974,8.6162,2.554,9.79l3.5806,1.4246a9.2922,9.2922,0,0,1,5.4478,6.4908l6.73,24.0358c1.6672,5.9536,7.8363,7.0857,14.6731,2.6933l131.5638-84.5291c7.0991-4.561,12.2146-14.33,10.9287-20.8695l-6.0728-30.8767a9.9866,9.9866,0,0,0-4.1822-6.7451L445.59,120.0541a14.2245,14.2245,0,0,0-4.4061-1.8646l-53.58-12.8865c-6.0563-1.4564-14.2255,2.1388-21.3082,9.3783l-28.71,29.3445C332.3511,149.3755,329.6055,156.9852,331.1849,161.7651Z" style="fill:#f9b663"/><path id="33786a33-0012-4f6e-9e9a-ab7979da5873" data-name="&lt;Path&gt;" d="M470.9756,205.3686l-61.02,39.3416c-4.98,3.21-9.2777,1.7621-9.6-3.2353L399.1553,222.86c-.3225-4.9972,3.4528-11.6509,8.4324-14.8614l61.02-39.3416c4.98-3.2105,9.2776-1.7622,9.6,3.2352l1.2007,18.6149C479.7305,195.5046,475.9552,202.1581,470.9756,205.3686Z" style="fill:#f9b663"/><path id="2be92bca-5b2b-421d-b4aa-8525d78de7d9" data-name="&lt;Path&gt;" d="M377.1447,142.9713a.3843.3843,0,0,0-.1412-.5278l-9.9445-5.6647s-2.9726-.4019-4.7467.6225l-4.4574,2.5732c-4.3633,2.5191-7.933,9.34-7.933,15.158,0,2.7213.8018,4.7242,2.08,5.8658l.0989.1022a4.026,4.026,0,0,0,1.3391.7746l8.9786,5.1935a.53.53,0,0,0,.7222-.1908Z" style="fill:#f9b663"/><g id="e17cae63-1eb8-46c8-927f-1894748f0658" data-name="&lt;Group&gt;"><path id="7bece0c4-d6a8-41a3-853d-7e1efc5cf56b" data-name="&lt;Path&gt;" d="M466.2055,186.8012l-1.0133-15.71L407.5877,208.23c-4.98,3.21-8.7549,9.8641-8.4324,14.8613l1.0135,15.71,57.604-37.1394C462.7524,198.4522,466.528,191.7984,466.2055,186.8012Z" style="fill:#f9b663"/><path id="7cc6b48f-4ea2-438a-bbc1-484b4f7b190c" data-name="&lt;Path&gt;" d="M462.0129,197.208,461,181.4975l-57.6045,37.1391c-4.98,3.2107-8.7552,9.8642-8.4327,14.8613l1.0135,15.7106L453.58,212.0694C458.56,208.8586,462.3352,202.2052,462.0129,197.208Z" style="fill:#fec"/></g><polygon id="7929b4f1-f972-4e78-a984-5dfff45844cc" data-name="&lt;Path&gt;" points="293.706 239.156 299.652 259.808 310.526 248.089 293.706 239.156" style="fill:#e95246"/><path id="c7eb7e25-3ca8-4020-8150-320bfb674841" data-name="&lt;Path&gt;" d="M343.4717,204.6856a23.1665,23.1665,0,0,0-.967-8.3975l-11.32-34.2576a11.7008,11.7008,0,0,1-.1116-5.9009c-.9437-.5105-1.5191-.803-1.5191-.803l-47.1025-26.1137a11.4982,11.4982,0,0,0,.161,5.5856l11.32,34.2576a22.1687,22.1687,0,0,1,.9987,6.9707l47.9982,28.648Z" style="fill:#e95246"/><path id="8bea155d-2f0c-4fe7-ab62-18e972947465" data-name="&lt;Path&gt;" d="M362.0349,141.5787l-4.4571,2.5735c-3.82,2.2051-7.0312,7.7072-7.7721,12.9466a6.5751,6.5751,0,0,0,1.919,3.8995l.0989.1022a4.01,4.01,0,0,0,1.3394.7743l8.9783,5.1938a.5294.5294,0,0,0,.7221-.1908l12.3659-21.11-8.4477-4.812S363.8093,140.5544,362.0349,141.5787Z" style="fill:#fec"/><path id="421df2c9-c634-4e0e-81d5-5bb20c3642f6" data-name="&lt;Compound Path&gt;" d="M378.6615,142.2834a1.91,1.91,0,0,0-.9024-1.1687L368.46,135.819l-1.1979-.554a8.3278,8.3278,0,0,0-5.7146.8128l-4.4565,2.5737c-4.7961,2.7677-8.6992,10.1617-8.6992,16.4812,0,3.0239.9205,5.5114,2.5047,6.9212l.2228.2192a5.581,5.581,0,0,0,1.6853.9988l8.8485,5.12a2.0628,2.0628,0,0,0,2.8055-.7417l14.003-23.9064.0022-.0023A1.9057,1.9057,0,0,0,378.6615,142.2834Zm-16.3378,22.9654-2.0638-1.194,2.2576-12.1344-9.074-4.5382a14.47,14.47,0,0,1,5.1767-6.0836l4.4566-2.5738a5.7681,5.7681,0,0,1,2.6334-.4947c.3353,0,.865.1454,1.0948.1635l8.4355,4.8039Z" style="fill:#e95246"/><path id="3c473d58-2a19-4293-9ee4-10d8e05d0fff" data-name="&lt;Compound Path&gt;" d="M479.733,171.7934c-.1743-2.6991-1.3614-4.7346-3.3427-5.7319-2.3443-1.1848-5.4849-.7027-8.6121,1.311l-61.0191,39.3419c-5.4782,3.531-9.4868,10.6658-9.1284,16.2436l.0045.0738c.0027.0513-.0078.107-.0045.1582l1.1823,18.3052.0128-.008.0056.0849c.1721,2.6991,1.3589,4.7343,3.338,5.733a6.1937,6.1937,0,0,0,2.8128.6373,10.948,10.948,0,0,0,5.8017-1.9482l61.0214-39.3408c5.4782-3.5322,9.4866-10.6681,9.1287-16.2448Zm-79.0478,51.0554c-.2028-4.4094,3.299-10.4778,7.7316-13.3345l55.4193-35.7307.8448,13.1165c.2846,4.42-3.2581,10.5917-7.7372,13.4774L401.54,236.1Zm69.4624-18.7645-61.0214,39.3408c-2.1582,1.3926-4.25,1.824-5.579,1.1514a3.6641,3.6641,0,0,1-1.6669-3.2007l-.1153-1.7839,56.8364-36.6453a21.41,21.41,0,0,0,7.42-8.72l8.6633,5.4194A17.35,17.35,0,0,1,470.1476,204.0843Z" style="fill:#e95246"/><path id="f196e7e8-f512-4f93-9146-05234de74f11" data-name="&lt;Compound Path&gt;" d="M334.6277,260.0258,310.3,246.2044l-28.1461,30.4277c-10.6508,11.62-18.14,26.5229-20.0321,39.8621a3.5392,3.5392,0,0,0,1.2238,3.4807l25.0189,12.8112,48.4121-60.8008.4568-.5762Zm-47.0986,68.9034-.9715-.4949,3.4609-11.9958-21.8811-11.0612a80.9181,80.9181,0,0,1,16.2715-26.6786l26.2335-28.6246.1078-.1,21.2,12.0442,1.9772,8.6373Z" style="fill:#e95246"/><path id="13cfcb8c-8b2d-41f2-ac2b-96a46f4407bc" data-name="&lt;Path&gt;" d="M303.9947,389.8155l-8.4162,11.85a25.6552,25.6552,0,0,0-3.5856,7.1574,6.1174,6.1174,0,0,0,2.0532,3.1l23.6358,18.3556,1.3363.7818-6.7975-9.5181,1.0124-7.0893-.562-.7874,2.4741-17.3263Z" style="fill:#fec"/><path id="c12c5097-36ca-4565-93d4-60742f748137" data-name="&lt;Compound Path&gt;" d="M326.1391,435.9435,315.8058,429.9l-23.7995-18.4685c-4.6633-3.6207-3.9444-12.3155,1.6711-20.2251l9.2278-12.9925,13.8673,8.114-3.6048,25.2482L328.6251,433.22A1.8853,1.8853,0,0,1,326.1391,435.9435Zm-22.3619-53.68-7.6063,10.7107c-4.4977,6.3342-5.5263,13.53-2.2913,16.0414l23.6343,18.3562,5.4506,3.1824-12.9972-18.1978,3.49-24.4264Z" style="fill:#e95246"/><g id="f1296cfa-4af9-4ebb-a093-7db123684cf0" data-name="&lt;Group&gt;"><path id="4fd0e0fa-cb61-45be-9f4b-c477553f868e" data-name="&lt;Path&gt;" d="M323.34,418.8551a145.6983,145.6983,0,0,1-8.226-31.727l-8.4165,11.85c-5.0556,7.1189-5.9251,15.0721-1.9824,18.1339l23.6363,18.3559a1.8842,1.8842,0,0,0,1.59.2549Z" style="fill:#f9b663"/><path id="5a56f1ff-7b4d-40c2-9943-f7981dffb09d" data-name="&lt;Compound Path&gt;" d="M329.3543,437.3157a3.0823,3.0823,0,0,1-1.94-.6408L303.78,418.3189c-4.6654-3.6185-3.9468-12.3154,1.6714-20.225l9.2292-12.9906,1.9452,1.8006a144.4583,144.4583,0,0,0,8.1391,31.3944l7.262,18.5579-1.7794.3629A4.4042,4.4042,0,0,1,329.3543,437.3157Zm-15.16-46.2541-6.25,8.8c-4.5,6.3368-5.5263,13.5323-2.2911,16.0417l21.3934,16.6158-5.1291-13.1053A144.9642,144.9642,0,0,1,314.194,391.0616Z" style="fill:#e95246"/></g><g id="33d20ab1-36b4-4fe2-a35c-ab548c3da084" data-name="&lt;Group&gt;"><polygon id="1c7673e7-eca0-4589-b187-eba66dbd86af" data-name="&lt;Path&gt;" points="346.367 457.115 327.742 445.854 326.652 442.513 345.276 453.774 346.367 457.115" style="fill:#f9b663"/></g><polygon id="847936b2-6749-478e-8df8-53dec4099a2e" data-name="&lt;Path&gt;" points="453.557 371.12 452.265 369.017 427.723 356.605 425.694 358.406 425.75 358.506 453.994 372.792 454.076 372.67 453.557 371.12" style="fill:#f9b663"/><path id="e82fc7cb-4604-45d9-a583-49ff75ddefd9" data-name="&lt;Path&gt;" d="M367.4584,404.9351,365.3138,416.02a25.5169,25.5169,0,0,1-3.19,9.125l1.3193,1.9463a25.1394,25.1394,0,0,0,4.0485-10.6995L370,403.1818Z" style="fill:#f9b663"/><path id="f0201379-bde4-4d31-b02e-e81f653978dc" data-name="&lt;Path&gt;" d="M515.6929,322.14l-1.3154-2.4649.8645-2.1647-.0323-2.0053-1.897-3.5535.8645-2.1647-.2975-18.3542,10.455-12.7737-32.9978-19.292v0l3.3753,11.46c.2977,2.5328.49,4.8248.7177,6.9883a48.6323,48.6323,0,0,0,2.1672,4.6476l.0175.0777L496.4,284.03a24.673,24.673,0,0,0,2.2622,6.1572l.0175.0774-28.8981,35.4137a22.6455,22.6455,0,0,0-5.0495,13.527,22.5548,22.5548,0,0,0,1.8995,4.4546l3.9647,6.8832a12.6008,12.6008,0,0,0,4.3178,4.4686l0,.0016.0109.0062c.0963.0593.1986.1055.2966.1618l16.1584,8.8259a.947.947,0,0,0,1.3333-.48l10.1982-25.5327Z" style="fill:#fec"/><path id="0abddb1b-d6a9-48c8-9b00-4bb70a1479c2" data-name="&lt;Compound Path&gt;" d="M515.2924,308.5412l-.2961-18.1011,14.6648-17.9144-.7044-1.3191L487.978,247.2491l1.5541,13.2118a60.2534,60.2534,0,0,0,5.8569,20.3479l-28.2767,34.65a24.3828,24.3828,0,0,0-2.2248,27.4341l3.9653,6.8833a14.0466,14.0466,0,0,0,4.8512,5.0144l16.5285,9.032a2.4771,2.4771,0,0,0,3.48-1.2558l10.1138-25.3194,15.114-18.7464-4.3644-8.1689Zm-.0022,9.6153L501.3033,335.507l-10.1848,25.3171-5.5664-3.04-7.1381-19.1086-13.6281-7.3628a21.2059,21.2059,0,0,1,4.6957-13.92L498.3808,281.98l.4568-.6612-.1721-.7325-.14-.3695a56.5964,56.5964,0,0,1-5.958-20.1123l-.8381-7.122L525.53,272.7429,511.9243,289.37l.3011,18.6063-1.015,2.5392Z"/><g id="34b39040-ae8d-4f80-b397-0189087e7487" data-name="&lt;Group&gt;"><path id="f4c1f1d0-120c-423e-99c9-6ba8c0d4490d" data-name="&lt;Path&gt;" d="M527.8649,272.4056l-43.3018,52.9065a22.7205,22.7205,0,0,0-2.085,25.7052l3.9644,6.8835a12.6942,12.6942,0,0,0,20.8826,1.6319L540.9945,318.08a16.213,16.213,0,0,0,1.7184-17.8565Z" style="fill:#f9b663"/><path id="af90de21-7bce-459b-9e91-73c709cb2219" data-name="&lt;Compound Path&gt;" d="M497.4461,365.7879c-.37,0-.7392-.0137-1.109-.0435a14.2209,14.2209,0,0,1-11.22-7.08l-3.9627-6.8836a24.3819,24.3819,0,0,1,2.2248-27.4339l44.1672-53.9646,1.41.825,15.104,28.2976a17.7077,17.7077,0,0,1-1.8784,19.5407l-33.67,41.4506A14.219,14.219,0,0,1,497.4461,365.7879Zm30.15-90.6411-41.85,51.1351a21.3011,21.3011,0,0,0-1.9424,23.9741l3.9628,6.8831a11.1659,11.1659,0,0,0,18.37,1.433l33.6724-41.4556a14.657,14.657,0,0,0,1.5567-16.1749Z"/></g><polygon id="33c3424c-96f7-49f1-807f-ce5152644a0f" data-name="&lt;Path&gt;" points="541.494 473.144 547.503 486.937 537.269 492.521 516.167 490.996 506.364 476.538 510.428 478.127 523.863 479.651 533.054 476.505 541.494 473.144" style="fill:#e95246"/><g id="5eeb4f77-b77c-462c-b592-c44e21a17d6c" data-name="&lt;Group&gt;"><path id="2bd61df2-e0de-47a0-95a2-0a81ec1bdc5b" data-name="&lt;Path&gt;" d="M529.95,495.3313a23.1856,23.1856,0,0,1-3.3221-.2159l.3673-2.3233c.0666.0092,7.0117,1.0517,12.6483-2.0365l1.13,2.0618A22.87,22.87,0,0,1,529.95,495.3313Z" style="fill:#f9b663"/></g><g id="5094018a-c302-4aea-8a85-5821ac908ef1" data-name="&lt;Group&gt;"><path id="52552c18-f2db-4de2-9ec0-68015d8593e5" data-name="&lt;Path&gt;" d="M372.474,164.3469l-4.4572,2.5735c-4.3635,2.5192-7.9332-.18-7.9332-5.9973h0c0-5.8176,3.57-12.6385,7.9332-15.1577l4.4572-2.5735c4.3635-2.5192,7.9332.18,7.9332,5.9973h0C380.4072,155.0069,376.8375,161.828,372.474,164.3469Z" style="fill:#f9b663"/><path id="f28bdae1-cedc-4942-9921-10fa270c7bd9" data-name="&lt;Compound Path&gt;" d="M364.8813,169.3962a5.555,5.555,0,0,1-2.81-.7448c-2.2337-1.2906-3.5174-4.1076-3.5174-7.7283,0-6.32,3.9031-13.7136,8.7-16.4812l4.4562-2.5738c2.3925-1.3809,4.7735-1.5257,6.7087-.4078,2.2339,1.2907,3.5173,4.1076,3.5173,7.73,0,6.3184-3.9031,13.7114-8.6969,16.4815l-4.4563,2.5724A7.8547,7.8547,0,0,1,364.8813,169.3962Zm10.7176-25.6225a4.9289,4.9289,0,0,0-2.36.7414l-4.4563,2.5738c-3.8872,2.2432-7.17,8.5778-7.17,13.8342,0,2.4635.7414,4.3622,1.9858,5.081a3.7134,3.7134,0,0,0,3.6553-.4077l4.4562-2.5724c3.887-2.2443,7.1679-8.58,7.1679-13.8342,0-2.4635-.7414-4.3633-1.9883-5.0821A2.5344,2.5344,0,0,0,375.5989,143.7737Z" style="fill:#e95246"/></g><g id="4739d22e-8ce5-432d-bb4a-9098d8a5cd60" data-name="&lt;Group&gt;"><path id="f606fc3b-694b-49f3-8a8b-e92218b029c5" data-name="&lt;Path&gt;" d="M342.3181,268.9378a9.2923,9.2923,0,0,0-5.4478-6.4908l-3.5806-1.4244c-.0824-.0328-.1468-.0888-.2259-.125l-26.3151,28.7048c-10.4725,11.4236-17.7944,25.9745-19.6477,39.0455-.3089,2.1788,1.2625,3.0456,3.203,1.7666L348.7477,291.9Z" style="fill:#f9b663"/><path id="193c4249-e232-4bca-a761-6a4f48a001db" data-name="&lt;Compound Path&gt;" d="M288.6106,332.543a3.0139,3.0139,0,0,1-1.6394-.466,3.4963,3.4963,0,0,1-1.3823-3.6438c1.8895-13.3371,9.3791-28.24,20.0321-39.8644l27.076-29.5326,1.2717.62,3.4673,1.3728a10.7416,10.7416,0,0,1,6.3527,7.4963l6.7317,24.036-59.3753,39.13A4.6766,4.6766,0,0,1,288.6106,332.543Zm44.844-69.81-25.579,27.9027c-10.2536,11.1855-17.4535,25.4754-19.2606,38.2273a1.1967,1.1967,0,0,0,.0346.67,4.9118,4.9118,0,0,0,.8152-.3947l57.5107-37.8992-6.13-21.8892a7.8051,7.8051,0,0,0-4.5387-5.4826Z"/></g><path id="ee3f96fd-010d-4a7e-810c-5c3eff470c79" data-name="&lt;Compound Path&gt;" d="M355.96,299.7454a9.2574,9.2574,0,0,1-3.2971-.5807,8.3734,8.3734,0,0,1-5.0857-5.9L340.845,269.23a7.8044,7.8044,0,0,0-4.5387-5.4849l-3.582-1.4212c-3.7469-1.4926-5.1013-6.0625-3.4528-11.6451l11.1741-37.878c1.8232-6.1809,2.0388-11.969.6086-16.298L329.733,162.2444c-1.77-5.3645,1.072-13.4749,6.7591-19.287l28.7106-29.3454c7.4618-7.6258,16.1866-11.3754,22.76-9.7946l53.58,12.887a15.791,15.791,0,0,1,4.8766,2.0655l50.3683,32.4725a11.48,11.48,0,0,1,4.8535,7.7336l6.0728,30.877c1.4187,7.2172-3.894,17.4986-11.6017,22.4506L364.5485,296.8318A16.2589,16.2589,0,0,1,355.96,299.7454Zm-23.3244-138.46,11.3211,34.2575c1.6461,4.9858,1.4464,11.2527-.581,18.1231L332.201,251.5447c-1.15,3.8962-.4866,7.0863,1.653,7.938l3.582,1.4224a10.75,10.75,0,0,1,6.3527,7.5007L350.52,292.44a5.3605,5.3605,0,0,0,3.23,3.8664c2.374.9068,5.7123.1584,9.1448-2.0457L494.459,209.7324c6.5276-4.1937,11.4156-13.3878,10.2561-19.2893l-6.0727-30.8769a8.5153,8.5153,0,0,0-3.5127-5.7547l-50.3684-32.4726a12.7164,12.7164,0,0,0-3.9351-1.6633l-53.58-12.887c-5.5333-1.3226-13.1465,2.1017-19.8577,8.9611L338.6779,145.095c-4.7757,4.8788-7.43,11.9916-6.0427,16.1919Z"/></g></g></g><g id="4eadec6b-82dd-4416-9ba7-ad2d05e30a51" data-name="&lt;Group&gt;"><g id="a90f0fcc-79cb-4b6e-85a2-2a8aafbfd020" data-name="&lt;Group&gt;"><path id="962f54b7-2946-4cca-97d2-3ab49544da7c" data-name="&lt;Path&gt;" d="M340.0443,89.9225l-38.28-49.2273A26.1962,26.1962,0,0,0,284.23,30.5213L186.0849,13.2568l.4841-2.7445L284.6618,27.77a28.86,28.86,0,0,1,19.2976,11.21l38.2827,49.2316Z"/></g><g id="f6c372c3-9133-474a-817e-1624eb5c2344" data-name="&lt;Group&gt;"><path id="a62790c8-f3bd-4a90-9a07-9aa011abe5a8" data-name="&lt;Path&gt;" d="M442.6251,120.0032,399.3405,95.7443a20.2564,20.2564,0,0,0-4.7623-1.92L339.0787,79.2862l.7071-2.6955,55.5,14.5381a23.0527,23.0527,0,0,1,5.4152,2.1866l43.2843,24.2588Z"/></g><g id="e7034c74-cd3a-4f60-9f7b-0ff03e24542f" data-name="&lt;Group&gt;"><path id="1f5c7fb2-eddb-4337-8fa2-12bbec16e6d5" data-name="&lt;Path&gt;" d="M537.6336,467.39l-1.73-2.1814c14.7581-11.7172,7.8551-22.7629,7.5531-23.2277l-30.5716-69.7245,2.5512-1.1152,30.4628,69.52v-.0028C545.9209,440.659,554.4017,454.0763,537.6336,467.39Z"/></g><g id="1127f143-36d0-46a8-9ed9-780a513b2c86" data-name="&lt;Group&gt;"><path id="9f2cea41-5d0b-4c03-902c-d73740792f15" data-name="&lt;Path&gt;" d="M595.04,549.0659a7.9489,7.9489,0,0,1-7.2621-4.5858l-31.73-65.6528,2.5078-1.213,31.73,65.6529a5.33,5.33,0,0,0,9.8948-.7562l80.4978-262.54,2.6657.8161-80.4981,262.54a7.9641,7.9641,0,0,1-7.14,5.7119C595.483,549.0578,595.26,549.0659,595.04,549.0659Z"/></g><g id="54026db8-4cde-4a8e-a579-c3c7d639d465" data-name="&lt;Group&gt;"><path id="9e40f4f8-8bc8-43b7-ad9e-29422b6d3aaa" data-name="&lt;Path&gt;" d="M871.5628,287.6163l-37.804-39.4845a99.1,99.1,0,0,0-33.566-23.4674c-47.8185-19.8022-85.2442,11.1026-85.6169,11.4182l-1.795-2.1271c.3835-.3278,39.1121-32.3082,88.4781-11.8639a101.8491,101.8491,0,0,1,34.5127,24.1145l37.8036,39.4845Z"/></g><g id="be351356-2724-44b8-afb6-d042afb091b5" data-name="&lt;Group&gt;"><rect id="70c4ef3f-31e9-4d2a-b45b-904b7aa22fa6" data-name="&lt;Path&gt;" x="836.9093" y="250.3578" width="2.7836" height="101.3381" transform="translate(17.2065 646.2362) rotate(-42.5559)"/></g><g id="f823d90e-66f7-465d-b60f-c730a6a5de9a" data-name="&lt;Group&gt;"><path id="3da1d4a2-9254-4d19-83c4-c05116ddca1b" data-name="&lt;Path&gt;" d="M594.0466,581.65a40.7364,40.7364,0,0,1-24.3944-7.953,44.8031,44.8031,0,0,1-13.673-16.8606l-28.0667-58.4994,2.5134-1.2021,28.0664,58.4994a42.0209,42.0209,0,0,0,12.8026,15.8162c7.9639,5.8179,21.5224,11.1977,40.9425,3.7941l.99,2.6A53.67,53.67,0,0,1,594.0466,581.65Z"/></g><g id="77873126-615a-41c8-b7e8-c3c6bd65aa13" data-name="&lt;Group&gt;"><rect id="f44c32fb-8e8a-4b35-bb74-7f0e069cea5c" data-name="&lt;Path&gt;" x="345.382" y="476.4218" width="2.788" height="27.185" transform="translate(-247.4788 575.0371) rotate(-62.8558)"/></g><g id="a73588c1-c424-446b-89c6-8a52194dad70" data-name="&lt;Group&gt;"><path id="4c622001-1ed2-4b6a-8853-0b9cb27ece43" data-name="&lt;Path&gt;" d="M419.3127,240.3338l-1.4851-2.3554L473.055,203.13a12.0977,12.0977,0,0,0,5.5325-11.5823l-2.63-22.4323,2.769-.3239,2.63,22.4323a14.9008,14.9008,0,0,1-6.8161,14.262Z"/></g><g id="dba784ee-723b-40b9-8e87-94e6138df868" data-name="&lt;Group&gt;"><path id="4ce5c398-777d-49be-b36c-5670cb996260" data-name="&lt;Path&gt;" d="M141.6907,264.9324a44.6584,44.6584,0,0,1-16.0091-2.7553l1.1068-2.5565c.2287.095,22.8445,9.5222,45.1665-8.5923,24.6588-20.0075,17.927-47.9121,17.63-49.09a123.0875,123.0875,0,0,0-5.81-15.7591l-35.59-79.301,2.54-1.14,35.59,79.301a125.6247,125.6247,0,0,1,5.9538,16.1657c.3317,1.2976,7.4662,30.8694-18.5578,51.988C162.2152,262.5227,150.6122,264.9324,141.6907,264.9324Z"/></g><g id="b995ddd8-acd9-4914-9ab4-81a5161a507a" data-name="&lt;Group&gt;"><path id="40db4126-42ce-438b-b78e-f843edd43c4c" data-name="&lt;Path&gt;" d="M91.3906,233.447c-6.5563-13.47-4.8373-28.7274-2.7894-35.62A91.6627,91.6627,0,0,1,94.11,184.3188l2.478,1.27a90.4567,90.4567,0,0,0-5.3161,13.0324c-1.802,6.0586-3.5711,20.8792,2.6233,33.607Z"/></g><g id="a864ed93-f3db-4a3b-a3a5-23bcdc5b73fd" data-name="&lt;Group&gt;"><path id="77069819-5a2e-4eda-a277-8077ae0c2de1" data-name="&lt;Path&gt;" d="M104.4338,251.594a81.2066,81.2066,0,0,1-10.2867-12.7753l2.37-1.4633a79.9635,79.9635,0,0,0,9.9071,12.2912Z"/></g></g></g><g id="54cc205b-cca6-4ca8-b046-f6e3ad7e8f5c" data-name="&lt;Group&gt;"><g id="5cd7b4ef-42d6-4425-9c90-971a909b0dcc" data-name="&lt;Group&gt;"><path id="e788a125-9d90-4e4f-b938-9f4d7c5521a2" data-name="&lt;Path&gt;" d="M432.9464,258.885a4.085,4.085,0,0,1-1.6658,3.2993c-.986.6456-1.8391.2151-1.9051-.9617a4.0841,4.0841,0,0,1,1.6661-3.2993C432.0275,257.2777,432.88,257.7083,432.9464,258.885Z"/><path id="44b9949d-7997-40cd-838c-75d7acd51265" data-name="&lt;Path&gt;" d="M440.1811,254.1488a4.0846,4.0846,0,0,1-1.6658,3.2994c-.9862.6456-1.839.2149-1.905-.9618a4.0842,4.0842,0,0,1,1.666-3.2993C439.2623,252.5415,440.1151,252.9721,440.1811,254.1488Z"/><path id="fcb34769-752d-408e-85ac-c220510e9b83" data-name="&lt;Path&gt;" d="M447.4159,249.4129a4.085,4.085,0,0,1-1.6661,3.2994c-.986.6453-1.8388.2147-1.9048-.9621a4.0857,4.0857,0,0,1,1.6658-3.2993C446.497,247.8056,447.35,248.2362,447.4159,249.4129Z"/><path id="0598480a-1ca5-440e-bdfd-404d07363707" data-name="&lt;Path&gt;" d="M454.6506,244.6768a4.0848,4.0848,0,0,1-1.6661,3.2993c-.9859.6456-1.8387.215-1.9047-.9617a4.0846,4.0846,0,0,1,1.6658-3.2994C453.7315,243.0694,454.5846,243.5,454.6506,244.6768Z"/><path id="a04ec717-b214-403d-9774-124db1704dc7" data-name="&lt;Path&gt;" d="M461.8851,239.9406a4.0847,4.0847,0,0,1-1.6658,3.2993c-.986.6456-1.8388.215-1.9048-.9617a4.085,4.085,0,0,1,1.6658-3.2993C460.9663,238.3333,461.8191,238.7639,461.8851,239.9406Z"/><path id="5dfe8668-daf7-496b-8a49-175e16171a5c" data-name="&lt;Path&gt;" d="M469.12,235.2047a4.085,4.085,0,0,1-1.6659,3.2992c-.9862.6454-1.839.2148-1.905-.9619a4.0852,4.0852,0,0,1,1.6661-3.2994C468.201,233.5974,469.0538,234.028,469.12,235.2047Z"/><path id="2e612026-0c40-4a86-a472-e5d43f140fa8" data-name="&lt;Path&gt;" d="M476.3546,230.4685a4.0851,4.0851,0,0,1-1.6658,3.2993c-.9862.6456-1.839.215-1.9051-.9617a4.0841,4.0841,0,0,1,1.6661-3.2993C475.4358,228.8612,476.2886,229.2918,476.3546,230.4685Z"/><path id="5b06d148-a23e-45aa-b669-5efc6c47f3a8" data-name="&lt;Path&gt;" d="M483.5894,225.7323a4.084,4.084,0,0,1-1.6661,3.2993c-.986.6456-1.8388.2151-1.9048-.9617a4.0851,4.0851,0,0,1,1.6658-3.2993C482.6705,224.125,483.5234,224.5556,483.5894,225.7323Z"/><path id="1d1ce2a3-8996-4303-8c73-92de826f1b2a" data-name="&lt;Path&gt;" d="M433.3822,266.6554a4.0846,4.0846,0,0,1-1.6658,3.2993c-.9862.6455-1.839.215-1.905-.9617a4.0839,4.0839,0,0,1,1.6661-3.2994C432.4634,265.048,433.3162,265.4786,433.3822,266.6554Z"/><path id="fd092f15-4045-48d3-b31b-54f1cd8bae3e" data-name="&lt;Path&gt;" d="M440.617,261.9192a4.0843,4.0843,0,0,1-1.6661,3.2993c-.9859.6456-1.8388.215-1.9048-.9617a4.085,4.085,0,0,1,1.6658-3.2993C439.6982,260.3118,440.551,260.7425,440.617,261.9192Z"/><path id="d5a81ed6-bd70-47c7-8046-6fd3bf7a1809" data-name="&lt;Path&gt;" d="M447.8518,257.1833a4.0858,4.0858,0,0,1-1.6661,3.2993c-.986.6453-1.8388.2147-1.9048-.962a4.0851,4.0851,0,0,1,1.6658-3.2993C446.9326,255.576,447.7857,256.0066,447.8518,257.1833Z"/><path id="8f9584b1-4c0c-4cf5-bb7b-49a147eb8598" data-name="&lt;Path&gt;" d="M455.0862,252.4471a4.0848,4.0848,0,0,1-1.6658,3.2993c-.9859.6456-1.8388.215-1.9048-.9617a4.0844,4.0844,0,0,1,1.6659-3.2993C454.1674,250.84,455.02,251.27,455.0862,252.4471Z"/><path id="a0362ba0-7c31-4576-a396-3935e0cff5fb" data-name="&lt;Path&gt;" d="M462.321,247.7109a4.0846,4.0846,0,0,1-1.6658,3.2993c-.9863.6456-1.8391.2151-1.9051-.9617a4.0846,4.0846,0,0,1,1.6661-3.2993C461.4022,246.1036,462.255,246.5342,462.321,247.7109Z"/><path id="9ba6b751-58e3-4433-aa6f-be6f3d8cfccc" data-name="&lt;Path&gt;" d="M469.5557,242.9748a4.0852,4.0852,0,0,1-1.6658,3.3c-.9862.6454-1.839.2147-1.905-.962a4.0853,4.0853,0,0,1,1.6658-3.2993C468.6369,241.3677,469.49,241.7983,469.5557,242.9748Z"/><path id="ae6d91c3-b0d3-461a-aca7-2f7ac9e38681" data-name="&lt;Path&gt;" d="M476.7905,238.2389a4.0846,4.0846,0,0,1-1.6661,3.2993c-.9859.6456-1.8388.215-1.9048-.9618a4.0848,4.0848,0,0,1,1.6658-3.2993C475.8717,236.6315,476.7245,237.0621,476.7905,238.2389Z"/><path id="b1f368c2-5273-46cb-b36c-b9dedc690e9c" data-name="&lt;Path&gt;" d="M484.025,233.5027a4.0839,4.0839,0,0,1-1.6658,3.2993c-.986.6456-1.8388.215-1.9048-.9617a4.0846,4.0846,0,0,1,1.6658-3.2994C483.1061,231.8954,483.9592,232.3259,484.025,233.5027Z"/><path id="29a4bf79-8131-40a1-a1d9-1e3d33372cc9" data-name="&lt;Path&gt;" d="M433.8156,274.3839a4.0848,4.0848,0,0,1-1.6658,3.2993c-.9859.6456-1.8388.2151-1.9048-.9617a4.0847,4.0847,0,0,1,1.6658-3.2993C432.8968,272.7766,433.75,273.2071,433.8156,274.3839Z"/><path id="de4e4930-1d21-49c0-84fc-389ecd4f6045" data-name="&lt;Path&gt;" d="M441.05,269.6477a4.0849,4.0849,0,0,1-1.6658,3.2994c-.9863.6456-1.8391.215-1.9051-.9618a4.0846,4.0846,0,0,1,1.6661-3.2993C440.1315,268.04,440.9844,268.471,441.05,269.6477Z"/><path id="d5fd6407-98a8-434b-9d8e-60405aaa7236" data-name="&lt;Path&gt;" d="M448.2851,264.9116a4.0854,4.0854,0,0,1-1.6658,3.3c-.9862.6453-1.839.2147-1.905-.962A4.085,4.085,0,0,1,446.38,263.95C447.3663,263.3045,448.2191,263.7351,448.2851,264.9116Z"/><path id="a5731d33-b0c2-48a0-ab1b-16dee3b98d9c" data-name="&lt;Path&gt;" d="M455.52,260.1757a4.0846,4.0846,0,0,1-1.6661,3.2993c-.986.6456-1.8388.2147-1.9048-.9617a4.0846,4.0846,0,0,1,1.6658-3.2993C454.6011,258.5683,455.4539,258.9989,455.52,260.1757Z"/><path id="17174be5-22be-4b8e-ab4f-4edf1df3736b" data-name="&lt;Path&gt;" d="M462.7544,255.44a4.0845,4.0845,0,0,1-1.6659,3.2993c-.9859.6456-1.8387.215-1.9047-.9617a4.0843,4.0843,0,0,1,1.6658-3.2993C461.8355,253.8322,462.6883,254.2628,462.7544,255.44Z"/><path id="7841f664-9a70-4651-9cce-c795ceb15cfe" data-name="&lt;Path&gt;" d="M469.9891,250.7033a4.0858,4.0858,0,0,1-1.6658,3.3c-.986.6453-1.839.2147-1.9048-.962a4.0843,4.0843,0,0,1,1.6658-3.2993C469.07,249.0963,469.9231,249.5269,469.9891,250.7033Z"/><path id="4ad6b648-9ad5-4cc7-9724-e19b4ccfb2de" data-name="&lt;Path&gt;" d="M477.2239,245.9674a4.0851,4.0851,0,0,1-1.6658,3.2993c-.9863.6456-1.8391.2148-1.9051-.9617a4.0851,4.0851,0,0,1,1.6661-3.3C476.305,244.36,477.1579,244.7907,477.2239,245.9674Z"/><path id="c47d2632-0ab5-4e73-883c-107058b47012" data-name="&lt;Path&gt;" d="M484.4586,241.2312a4.0843,4.0843,0,0,1-1.6658,3.2993c-.9862.6456-1.839.215-1.9051-.9617a4.0844,4.0844,0,0,1,1.6659-3.2993C483.54,239.6239,484.3926,240.0545,484.4586,241.2312Z"/><path id="a1ac0869-9c89-4b0a-acc4-e0fb87e7fbab" data-name="&lt;Path&gt;" d="M434.2515,282.1543a4.0848,4.0848,0,0,1-1.6658,3.2992c-.9862.6457-1.8391.2148-1.9051-.9616a4.0853,4.0853,0,0,1,1.6661-3.3C433.3327,280.547,434.1855,280.9775,434.2515,282.1543Z"/><path id="d89a8862-00bd-4947-bf6d-e7be6b3d040c" data-name="&lt;Path&gt;" d="M441.4862,277.4181a4.0841,4.0841,0,0,1-1.6658,3.2993c-.9862.6456-1.839.215-1.905-.9617a4.0844,4.0844,0,0,1,1.6658-3.2993C440.5674,275.8108,441.42,276.2414,441.4862,277.4181Z"/><path id="2f5990ef-f0fd-472c-8498-de88d0d951c7" data-name="&lt;Path&gt;" d="M448.721,272.6819a4.0851,4.0851,0,0,1-1.6661,3.3c-.9859.6453-1.8388.2147-1.9048-.962a4.0851,4.0851,0,0,1,1.6658-3.2993C447.8022,271.0746,448.655,271.5054,448.721,272.6819Z"/><path id="465b8f2b-6a98-43cd-b209-319c8e47e539" data-name="&lt;Path&gt;" d="M455.9555,267.946a4.0851,4.0851,0,0,1-1.6658,3.2993c-.986.6453-1.8388.2148-1.9048-.9617a4.0857,4.0857,0,0,1,1.6658-3.3C455.0367,266.3387,455.89,266.7693,455.9555,267.946Z"/><path id="71f3f782-8fbf-45ca-af9b-17b9653ef2e8" data-name="&lt;Path&gt;" d="M463.19,263.21a4.0844,4.0844,0,0,1-1.6658,3.2993c-.9859.6456-1.839.2151-1.9048-.9617a4.0837,4.0837,0,0,1,1.6659-3.2993C462.2714,261.6025,463.1242,262.033,463.19,263.21Z"/><path id="90bedff8-54a7-48ad-9305-5657658370ff" data-name="&lt;Path&gt;" d="M470.425,258.4736a4.0855,4.0855,0,0,1-1.6658,3.3c-.9863.6454-1.8391.2148-1.9051-.962a4.0846,4.0846,0,0,1,1.6661-3.2993C469.5062,256.8663,470.359,257.2972,470.425,258.4736Z"/><path id="0c56371d-4879-4701-af6d-ad5699a61579" data-name="&lt;Path&gt;" d="M477.66,253.7378a4.0849,4.0849,0,0,1-1.666,3.2993c-.986.6453-1.8388.2147-1.9048-.9618a4.0851,4.0851,0,0,1,1.6658-3.3C476.7409,252.13,477.5937,252.561,477.66,253.7378Z"/><path id="1f2c7c4d-a1a0-4a87-80e3-ef11bd760414" data-name="&lt;Path&gt;" d="M484.8945,249.0016a4.0843,4.0843,0,0,1-1.6661,3.2993c-.9859.6456-1.8388.215-1.9048-.9617a4.0846,4.0846,0,0,1,1.6658-3.2993C483.9757,247.3942,484.8285,247.8248,484.8945,249.0016Z"/></g><g id="6568b636-30ab-47cc-b207-f66fb40a776b" data-name="&lt;Group&gt;"><path id="f48c4df7-a9f7-425d-b00e-bb4986bded75" data-name="&lt;Path&gt;" d="M348.609,449.529a4.0842,4.0842,0,0,1-1.6661,3.2992c-.986.6457-1.8388.2151-1.9048-.9616a4.0846,4.0846,0,0,1,1.6658-3.2993C347.69,447.9216,348.5429,448.3522,348.609,449.529Z"/><path id="1636e780-a852-4188-afdc-4436dae3d3da" data-name="&lt;Path&gt;" d="M355.8434,444.7928a4.0844,4.0844,0,0,1-1.6658,3.2993c-.9859.6456-1.8387.215-1.9048-.9617a4.0848,4.0848,0,0,1,1.6659-3.2993C354.9246,443.1855,355.7774,443.6161,355.8434,444.7928Z"/><path id="a743655f-064d-4e37-882a-3ce9db3dbb65" data-name="&lt;Path&gt;" d="M363.0782,440.0569a4.0855,4.0855,0,0,1-1.6658,3.2993c-.9863.6453-1.8391.2147-1.9051-.962a4.0848,4.0848,0,0,1,1.6661-3.2993C362.1594,438.45,363.0122,438.88,363.0782,440.0569Z"/><path id="36abb9c0-a6ed-4e1a-bc22-62494bc9a09a" data-name="&lt;Path&gt;" d="M370.3129,435.3207a4.0848,4.0848,0,0,1-1.6658,3.2993c-.9862.6456-1.839.215-1.905-.9617a4.0839,4.0839,0,0,1,1.6661-3.2993C369.3941,433.7134,370.2469,434.144,370.3129,435.3207Z"/><path id="b1695e27-8fa4-4e0b-97e6-5751da97df5c" data-name="&lt;Path&gt;" d="M356.2793,452.5631a4.0843,4.0843,0,0,1-1.6658,3.2993c-.9862.6456-1.839.2151-1.9051-.9617a4.0841,4.0841,0,0,1,1.6661-3.2993C355.3605,450.9558,356.2133,451.3864,356.2793,452.5631Z"/><path id="77c33886-02df-4153-9066-34172d1bd3c3" data-name="&lt;Path&gt;" d="M363.5141,447.827a4.0855,4.0855,0,0,1-1.6658,3.3c-.9863.6454-1.8391.2148-1.9051-.962a4.085,4.085,0,0,1,1.6661-3.2993C362.5952,446.22,363.4481,446.6505,363.5141,447.827Z"/><path id="9ca64c4a-2ae1-4bc7-a365-25a18ee515b3" data-name="&lt;Path&gt;" d="M370.7488,443.0911a4.0843,4.0843,0,0,1-1.6661,3.2993c-.9859.6456-1.8387.2147-1.9047-.9618a4.0843,4.0843,0,0,1,1.6658-3.2993C369.83,441.4837,370.6828,441.9143,370.7488,443.0911Z"/><path id="67b57a75-766a-42a6-9da5-25e4f36e25ff" data-name="&lt;Path&gt;" d="M377.9833,438.3549a4.0835,4.0835,0,0,1-1.6658,3.2992c-.986.6457-1.8388.2151-1.9048-.9616a4.0846,4.0846,0,0,1,1.6658-3.2993C377.0645,436.7476,377.9176,437.1781,377.9833,438.3549Z"/><path id="da02109e-1b95-4b32-8671-a115fa258566" data-name="&lt;Path&gt;" d="M385.218,433.6187a4.0851,4.0851,0,0,1-1.6658,3.3c-.9859.6453-1.8387.2147-1.9047-.962a4.0848,4.0848,0,0,1,1.6658-3.2993C384.2992,432.0117,385.152,432.4422,385.218,433.6187Z"/><path id="38adb1c6-499f-48f0-b722-437721a71feb" data-name="&lt;Path&gt;" d="M392.4528,428.8828a4.0851,4.0851,0,0,1-1.6658,3.2993c-.9862.6456-1.8391.2147-1.9051-.9617a4.0851,4.0851,0,0,1,1.6661-3.3C391.534,427.2755,392.3868,427.706,392.4528,428.8828Z"/><path id="59b2507d-bf28-4019-b1b3-3d267b3a3bc2" data-name="&lt;Path&gt;" d="M399.6876,424.1466a4.0845,4.0845,0,0,1-1.6659,3.2993c-.9862.6456-1.839.215-1.905-.9617a4.0844,4.0844,0,0,1,1.6658-3.2993C398.7687,422.5393,399.6215,422.97,399.6876,424.1466Z"/><path id="43214a71-1428-4120-bd2c-aea2858a2cd4" data-name="&lt;Path&gt;" d="M406.9223,419.41a4.0851,4.0851,0,0,1-1.6661,3.3c-.9859.6453-1.8387.2148-1.9048-.962a4.0849,4.0849,0,0,1,1.6659-3.2993C406.0035,417.8031,406.8563,418.234,406.9223,419.41Z"/><path id="23a0ff1b-8d8b-4df7-abf1-f399734844c9" data-name="&lt;Path&gt;" d="M414.1568,414.6745a4.0854,4.0854,0,0,1-1.6658,3.2993c-.986.6454-1.8388.2148-1.9048-.9617a4.0857,4.0857,0,0,1,1.6658-3.3C413.238,413.0672,414.0908,413.4978,414.1568,414.6745Z"/><path id="2f4d0b36-0f54-4f25-875f-ad2b6566e5d0" data-name="&lt;Path&gt;" d="M421.3915,409.9384a4.0846,4.0846,0,0,1-1.6658,3.2993c-.9859.6455-1.839.215-1.9047-.9618a4.0833,4.0833,0,0,1,1.6658-3.2993C420.4727,408.331,421.3255,408.7616,421.3915,409.9384Z"/><path id="476b4647-21af-47f9-bff0-2dfaefcc53d7" data-name="&lt;Path&gt;" d="M428.6263,405.2022a4.0848,4.0848,0,0,1-1.6658,3.2993c-.9862.6456-1.8391.215-1.9051-.9617a4.0844,4.0844,0,0,1,1.6661-3.2993C427.7075,403.5948,428.56,404.0257,428.6263,405.2022Z"/><path id="62a4a013-5499-4654-8fb2-94d92f2785db" data-name="&lt;Path&gt;" d="M435.861,400.4663a4.085,4.085,0,0,1-1.6658,3.2993c-.9862.6453-1.839.2147-1.905-.9618a4.0852,4.0852,0,0,1,1.6658-3.3C434.9422,398.859,435.795,399.29,435.861,400.4663Z"/><path id="66add676-f19b-47ef-a2bd-4f83049c5aa2" data-name="&lt;Path&gt;" d="M443.0958,395.73a4.0846,4.0846,0,0,1-1.6661,3.2993c-.9859.6456-1.8388.215-1.9048-.9617a4.0846,4.0846,0,0,1,1.6658-3.2993C442.177,394.1228,443.03,394.5534,443.0958,395.73Z"/><path id="5dc618d6-d659-4f0c-a529-8d95094720b7" data-name="&lt;Path&gt;" d="M450.33,390.9939a4.0846,4.0846,0,0,1-1.6658,3.2993c-.986.6456-1.8388.215-1.9048-.9617a4.0848,4.0848,0,0,1,1.6658-3.2993C449.4114,389.3866,450.2643,389.8172,450.33,390.9939Z"/><path id="ee256aa1-4c79-489a-87d4-1b885816500b" data-name="&lt;Path&gt;" d="M457.565,386.258a4.0851,4.0851,0,0,1-1.6658,3.2993c-.9859.6454-1.839.2147-1.905-.962a4.0853,4.0853,0,0,1,1.6661-3.2993C456.6462,384.6507,457.499,385.0813,457.565,386.258Z"/><path id="02ed32cd-1bd2-40f6-b095-9cc8172fa1cc" data-name="&lt;Path&gt;" d="M363.9474,455.5555a4.0853,4.0853,0,0,1-1.6658,3.3c-.9859.6453-1.8387.2147-1.9047-.962a4.0844,4.0844,0,0,1,1.6658-3.2993C363.0286,453.9482,363.8814,454.3791,363.9474,455.5555Z"/><path id="526f7bd3-e3c3-46b1-96de-08561b5bb55b" data-name="&lt;Path&gt;" d="M371.1822,450.82a4.0851,4.0851,0,0,1-1.6658,3.2993c-.9862.6454-1.8391.2148-1.9051-.9617a4.0851,4.0851,0,0,1,1.6661-3.3C370.2634,449.2123,371.1162,449.6429,371.1822,450.82Z"/><path id="1b791875-3ec6-47bb-8ffe-39ecce9ebc8e" data-name="&lt;Path&gt;" d="M378.4169,446.0834a4.084,4.084,0,0,1-1.6658,3.2993c-.9862.6456-1.839.2151-1.905-.9617a4.0844,4.0844,0,0,1,1.6658-3.2993C377.4981,444.4761,378.3509,444.9067,378.4169,446.0834Z"/><path id="d173c401-f8bf-427d-b7d7-4fda53a59d31" data-name="&lt;Path&gt;" d="M385.6517,441.3473a4.0849,4.0849,0,0,1-1.6661,3.2995c-.9859.6454-1.8388.2148-1.9048-.9619a4.0852,4.0852,0,0,1,1.6658-3.2994C384.7329,439.74,385.5857,440.1708,385.6517,441.3473Z"/><path id="cafc4c2a-5658-43ae-ab91-3f59fa345e91" data-name="&lt;Path&gt;" d="M392.8862,436.6114a4.0852,4.0852,0,0,1-1.6658,3.2992c-.986.6454-1.8388.2148-1.9048-.9617a4.0855,4.0855,0,0,1,1.6658-3.3C391.9673,435.004,392.82,435.4346,392.8862,436.6114Z"/><path id="27bcdf1f-8902-47a2-b40e-dcd3e3172a2c" data-name="&lt;Path&gt;" d="M400.1209,431.8752a4.0844,4.0844,0,0,1-1.6658,3.2993c-.9859.6456-1.839.215-1.9048-.9617a4.0835,4.0835,0,0,1,1.6659-3.2993C399.2021,430.2679,400.0549,430.6984,400.1209,431.8752Z"/><path id="17b6af10-5b05-47d9-af25-a23f5a52798a" data-name="&lt;Path&gt;" d="M407.3557,427.139a4.0847,4.0847,0,0,1-1.6658,3.2993c-.9863.6456-1.8391.215-1.9051-.9617a4.0846,4.0846,0,0,1,1.6661-3.2993C406.4369,425.5317,407.29,425.9623,407.3557,427.139Z"/><path id="0c12f08e-acab-4320-9cfb-e086771bc4b9" data-name="&lt;Path&gt;" d="M414.59,422.4031a4.0846,4.0846,0,0,1-1.6661,3.2993c-.9859.6453-1.8387.2147-1.9047-.9617a4.0854,4.0854,0,0,1,1.6658-3.3C413.6716,420.7958,414.5244,421.2264,414.59,422.4031Z"/><path id="d23dbe7c-edff-4def-a8ee-90e81d8c7d41" data-name="&lt;Path&gt;" d="M421.8252,417.6669a4.0846,4.0846,0,0,1-1.6661,3.2993c-.9859.6456-1.8388.215-1.9048-.9617a4.0847,4.0847,0,0,1,1.6658-3.2993C420.9064,416.06,421.7592,416.49,421.8252,417.6669Z"/><path id="7c1b27b1-abf3-44e3-b7bb-dcf8fef25476" data-name="&lt;Path&gt;" d="M429.06,412.9307a4.0849,4.0849,0,0,1-1.6658,3.2994c-.986.6456-1.8388.215-1.9048-.9618a4.0848,4.0848,0,0,1,1.6658-3.2993C428.1408,411.3234,428.9937,411.754,429.06,412.9307Z"/><path id="ca6e5f33-431f-4403-b6fb-3a8ba09ddb1f" data-name="&lt;Path&gt;" d="M436.2944,408.1948a4.0856,4.0856,0,0,1-1.6658,3.2994c-.9859.6453-1.839.2147-1.905-.962a4.0855,4.0855,0,0,1,1.666-3.2994C435.3756,406.5875,436.2284,407.0181,436.2944,408.1948Z"/><path id="5c18e81b-a8de-40ae-a3f8-8a3b7f1e3759" data-name="&lt;Path&gt;" d="M443.5292,403.4587a4.0851,4.0851,0,0,1-1.6658,3.2993c-.9863.6456-1.8391.215-1.9051-.9617a4.0843,4.0843,0,0,1,1.6661-3.2994C442.61,401.8513,443.4632,402.2819,443.5292,403.4587Z"/><path id="6fad4d03-175c-42b5-af1a-c67557b50791" data-name="&lt;Path&gt;" d="M450.7639,398.7225a4.0839,4.0839,0,0,1-1.6661,3.2993c-.9859.6455-1.8387.215-1.9047-.9617a4.0847,4.0847,0,0,1,1.6658-3.2993C449.8451,397.1152,450.6979,397.5458,450.7639,398.7225Z"/><path id="a022131f-738e-45d4-9904-3d6864763a05" data-name="&lt;Path&gt;" d="M457.9987,393.9866a4.0851,4.0851,0,0,1-1.6661,3.2993c-.986.6453-1.8388.2147-1.9048-.962a4.0854,4.0854,0,0,1,1.6658-3.2993C457.08,392.3793,457.9327,392.81,457.9987,393.9866Z"/></g></g></g><g id="c9f6f785-cccd-4b17-b74f-cc918cdc88c3" data-name="&lt;Group&gt;"><g id="8ab338cb-2007-47d3-aaa5-bada75bb1a1b" data-name="&lt;Group&gt;"><path id="a6e6ceb0-b722-445e-bf07-415243b92695" data-name="&lt;Path&gt;" d="M431.0875,148.5a5.7137,5.7137,0,1,0,5.7135-5.7137A5.7135,5.7135,0,0,0,431.0875,148.5Z" style="fill:#e95245"/><g id="d0825d6f-10c0-44ac-8925-8927922ad9c3" data-name="&lt;Group&gt;"><path id="33e49e7a-f400-479b-99b1-6ca62fac8c71" data-name="&lt;Compound Path&gt;" d="M434.8977,157.6054a6.7575,6.7575,0,1,1,6.759-6.7573A6.7661,6.7661,0,0,1,434.8977,157.6054Zm0-11.4261a4.6687,4.6687,0,1,0,4.67,4.6688A4.674,4.674,0,0,0,434.8977,146.1793Z"/></g></g></g><g id="c220754a-5cb1-4cb4-9dee-3a0406383042" data-name="&lt;Group&gt;"><g id="b13a4381-230a-49c0-89d3-2a91c2e77c0f" data-name="&lt;Group&gt;"><g id="0f734b8f-a115-494f-846c-7692b685265c" data-name="&lt;Group&gt;"><path id="44c01fa7-6d06-4b27-b1e4-306327787926" data-name="&lt;Path&gt;" d="M293.049,353.571a7.0985,7.0985,0,1,1-5.64,8.3048A7.0987,7.0987,0,0,1,293.049,353.571Z" style="fill:#f8b564"/><g id="80dcd09c-b1f8-4120-b4e1-1edbc222b09e" data-name="&lt;Group&gt;"><path id="c427d635-ec19-4afd-85ef-9f05be03d5d4" data-name="&lt;Compound Path&gt;" d="M296.8006,365.8185a8.1582,8.1582,0,0,1-7.9965-6.6173,8.1411,8.1411,0,0,1,6.4708-9.5253h0a8.1424,8.1424,0,1,1,1.5257,16.1426Zm.0165-14.2a6.0984,6.0984,0,0,0-1.1506.1089h0a6.03,6.03,0,1,0,1.1506-.1089Z"/></g></g></g></g></g></g></g></g></svg>