<svg xmlns="http://www.w3.org/2000/svg" xmlns:xlink="http://www.w3.org/1999/xlink" viewBox="0 0 1541.1 467.4"><defs><path id="a" d="M90.6 237.7c-5.7-14.4-4.8-16.5 6.7-25.4 23.8-18.4 47.4-37 70.8-55.8 11-8.8 14-9.1 26.4 0 14-10.7 28.6-21.4 42.7-32.6 12-9.6 24.4-17.3 40.5-16.1 7.3.5 13 3.3 12.8 11.5-.3 8-4.7 11.9-13.3 11.9-5.3 0-11.6.8-15.7 3.7-18.8 13.1-36.9 27.1-55.4 40.8 6.1 9.9 12 18.8 17 28.1 16.8 31.4 4.9 72.4-25.6 88.7-30.9 16.6-67.8 5-86-27-2.2-3.8-4.4-8.7-9.2-4-11.6 11.4-23.5 23.2-19.2 41.9 1 4.2 2.8 8.8 5.6 12 10.3 11.6 21.1 22.8 31.8 34.1 22.2 23.5 44.4 47.1 66.7 70.6 1.5 1.6 3.3 3 5.8 5.3 2.7-2.5 5.4-4.6 7.7-7.1 34.7-36.6 71.1-71.9 103.8-110.3 42.6-50.1 52.5-108.1 29.9-170.4-12.3-34-34.3-60.2-65.4-79.4-46.5-28.6-95-30.1-141.8-6-65 33.5-95.7 102.4-84.2 173.3 1 6.1 2.3 12.1 3.8 18.1 2.7 10.7-.1 17.7-8 19.7-7.6 2-13.7-2.4-16.5-12.4-10.3-35.8-10-73.8.9-109.4 9.7-31.8 26.2-59 49.8-82.5 18-18 39.4-28.7 62.1-38.6C167.6 6.3 201.2 5 234 14.3 293.7 31.1 335.8 69 358.1 127.7c17.6 46.3 17.8 93 .5 138.9-6.8 18.2-17.8 35.3-28.8 51.5-8.5 12.4-19.9 22.9-30.4 34-27.4 28.9-54.9 57.7-82.4 86.5-4.7 4.9-8.6 10.5-13.5 15.2-7 6.8-13.9 7.1-20.5.2-26.3-27.7-52.2-55.7-78.2-83.6-11.5-12.3-23.2-24.4-34.6-36.8C55.8 318 53.8 299.6 59 280c3.5-14 11.6-26.4 23-35.2 2.9-2.2 5.6-4.6 8.6-7.1zm51 31.4c17.7 11.3 33.3 12.9 47.7 3.1s21.4-24.2 20.1-41.6c-6.2 8.7-12.1 17.8-18.9 26.2-1.6 2-5.9 2-8.9 2.9.9-3 1.1-6.3 2.7-8.8 5-7.9 10.4-15.5 15.7-23.2l-2.5-1.6-55.9 43zM283 152c-2.9 11.7-6.6 23.3-8 35.2-.4 3.4 5.5 9.9 9.5 10.8 6.6 1.5 10.1-5.4 9.4-10.6-1.6-11.9-5-23.6-7.7-35.3l-3.2-.1zm187.2 90.8c0 38.7 24.6 66.2 59.3 66.2 25.4 0 41.6-13.2 51.7-24.6l21.2 22c-18 20.3-43.9 31.9-71 31.8-55.6 0-92.2-41.9-92.2-95.1s36.3-95.6 91.1-95.6c30.2 0 53.3 12.7 69.4 30.2l-21.2 22c-10.5-12.5-24.6-23.1-50.1-23.1-33.9 0-58.2 27.8-58.2 66.2zm198.1 92.8h-31l84.8-189.4 84.8 189.4h-31l-17-34.2h-73.6l-17 34.2zm53.8-118.2l-22.3 54.3h44.5l-22.2-54.3zM879 254.5v81.1h-30.5V150.1h58.3c36.3 0 61.7 17.5 61.7 51.9 0 25.2-13.8 45-44.8 50.3l59.1 83.2h-37.1l-55.6-81.1-11.1.1zm0-27.3h27.8c15.4 0 30.5-5.3 30.5-23.9 0-18.8-15.4-24.1-30.5-24.1H879v48zm269.4 38.4h-43.7V237h73.7v69.4c-18 20.3-43.9 31.9-71 31.8-55.6 0-92.2-41.9-92.2-95.1s36.3-95.6 91.1-95.6c30.2 0 53.3 12.7 69.4 30.2l-21.2 22c-10.6-12.5-24.6-23-50.1-23-33.9 0-58.3 27.8-58.3 66.2 0 38.7 24.6 66.2 59.3 66.2 19.1 0 32.8-7.4 42.9-15.9l.1-27.6zm192.1 40.8v29.1h-110.8V150.1h105.2v29.1h-74.7v46.4h68.1v29.1h-68.1v51.7h80.3zm81.8-51.9v81.1h-30.5V150.1h58.3c36.3 0 61.7 17.5 61.7 51.9 0 25.2-13.8 45-44.8 50.3l59.1 83.2H1489l-55.6-81.1-11.1.1zm0-27.3h27.8c15.4 0 30.5-5.3 30.5-23.9 0-18.8-15.4-24.1-30.5-24.1h-27.8v48z"/></defs><clipPath id="b"><use xlink:href="#a" overflow="visible"/></clipPath><g clip-path="url(#b)"><linearGradient id="c" gradientUnits="userSpaceOnUse" x1="1538.069" y1="432.855" x2="24.069" y2="42.855" gradientTransform="matrix(1 0 0 -1 0 469.36)"><stop offset="0" stop-color="#fc6076"/><stop offset="1" stop-color="#ff9a44"/></linearGradient><path fill="url(#c)" d="M0 0h1535v470H0z"/></g></svg>