<svg id="ec10cd2e-11ac-4c4b-8ee2-c2e7d1e459f1" data-name="Layer 1" xmlns="http://www.w3.org/2000/svg" xmlns:xlink="http://www.w3.org/1999/xlink" viewBox="0 0 120.9988 153.0596"><defs><linearGradient id="18e74c6c-93b4-47e0-9d46-03e2b48bbed8" x1="-7.0975" y1="1004.1758" x2="-7.0975" y2="1167.2249" gradientTransform="matrix(0.9999, 0.0168, -0.0168, 0.9999, 85.0351, -973.5417)" gradientUnits="userSpaceOnUse"><stop offset="0" stop-color="#fc6076"/><stop offset="1" stop-color="#ff9a44"/></linearGradient></defs><title>Home</title><path d="M25.5686,77.2469c-1.8-4.9-1.5-5.6,2.4-8.6,8.2-6.1,16.3-12.3,24.4-18.5,3.8-2.9,4.8-3,9,.2,4.8-3.5,9.8-7.1,14.7-10.8,4.1-3.2,8.4-5.7,13.8-5.2,2.5.2,4.4,1.2,4.3,4-.1,2.7-1.7,4-4.6,4-1.8,0-3.9.2-5.3,1.2-6.4,4.4-12.7,9-19,13.5,2,3.4,4,6.4,5.6,9.6,5.5,10.8,1.3,24.6-9.2,30-10.6,5.5-23.1,1.3-29-9.7-.7-1.3-1.4-3-3.1-1.4-4,3.8-8.1,7.7-6.8,14.1a10.1007,10.1007,0,0,0,1.8,4.1c3.4,4,7,7.8,10.6,11.7l22.2,24.3c.5.6,1.1,1,1.9,1.8.9-.8,1.8-1.5,2.7-2.4,12-12.2,24.5-24,35.8-36.9,14.7-16.8,18.4-36.4,11.1-57.7a51.5246,51.5246,0,0,0-21.8-27.3c-15.6-10-32.1-10.8-48.1-2.8-22.3,11-33.1,34.2-29.6,58.3.3,2.1.7,4.1,1.2,6.2.8,3.6-.1,6-2.8,6.7-2.6.6-4.6-.9-5.5-4.3a65.065,65.065,0,0,1,.9-37.1,66.0248,66.0248,0,0,1,17.3-27.7c6.2-6,13.5-9.5,21.3-12.8a49.2547,49.2547,0,0,1,33.6-1.5c20.2,6,34.2,19.1,41.5,39.2a65.1413,65.1413,0,0,1-.6,47.2c-2.4,6.1-6.2,11.9-10.1,17.3-3,4.2-6.9,7.7-10.5,11.4-9.5,9.7-19,19.3-28.5,28.9-1.6,1.6-3,3.5-4.7,5.1-2.4,2.3-4.8,2.3-7-.1-8.8-9.5-17.4-19.2-26.1-28.8-3.8-4.2-7.7-8.4-11.5-12.7-4.8-5.4-5.4-11.6-3.5-18.3a22.0172,22.0172,0,0,1,8-11.8C23.5686,78.8469,24.4686,78.0469,25.5686,77.2469Zm17.1,10.9c6,3.9,11.2,4.6,16.2,1.3a14.8455,14.8455,0,0,0,7-14c-2.1,2.9-4.2,6-6.6,8.8-.6.7-2,.6-3.1.9a10.6034,10.6034,0,0,1,1-3c1.7-2.7,3.6-5.2,5.5-7.8a5.5466,5.5466,0,0,1-.8-.6C55.6686,78.5469,49.3686,83.1469,42.6686,88.1469Zm48.6-38.9c-1,4-2.4,7.9-2.9,11.9-.2,1.1,1.8,3.4,3.2,3.7,2.2.5,3.5-1.8,3.3-3.6-.5-4-1.6-8-2.4-12Z" style="fill:url(#18e74c6c-93b4-47e0-9d46-03e2b48bbed8)"/></svg>