<svg xmlns="http://www.w3.org/2000/svg" xmlns:xlink="http://www.w3.org/1999/xlink" viewBox="0 0 259.667 59.8364"><defs><linearGradient id="a" y1="29.9182" x2="259.667" y2="29.9182" gradientUnits="userSpaceOnUse"><stop offset="0" stop-color="#fb3e40"/><stop offset="0.2749" stop-color="#e3334e"/><stop offset="0.8528" stop-color="#a61671"/><stop offset="1" stop-color="#950e7a"/></linearGradient></defs><title>nav_p</title><path d="M68.439,32.5142v8.9394H64.99V20.4546h6.5391c3.7793,0,7.0195,1.98,7.0195,5.73,0,4.74-3.18,6.33-6.9589,6.33Zm0-3.39h3.15c1.59,0,3.4492-.57,3.4492-2.6406s-1.8594-2.64-3.4492-2.64h-3.15Z"/><path d="M88.269,32.2739v9.18H84.82V20.4546h6.6c4.1094,0,6.99,1.98,6.99,5.88,0,2.85-1.5606,5.1-5.07,5.6992l6.6894,9.42H95.83l-6.3008-9.18Zm0-3.09h3.15c1.74,0,3.4493-.6,3.4493-2.7,0-2.13-1.74-2.7295-3.4493-2.7295h-3.15Z"/><path d="M104.8882,30.9536c0-6.0293,3.93-10.7988,10.1406-10.7988,6.209,0,10.1387,4.7695,10.1387,10.7988s-3.93,10.8-10.1387,10.8C108.8179,41.7534,104.8882,36.9839,104.8882,30.9536Zm16.77,0c0-4.3789-2.789-7.499-6.6289-7.499s-6.6309,3.12-6.6309,7.499,2.7911,7.5,6.6309,7.5S121.6577,35.3335,121.6577,30.9536Z"/><path d="M131.439,41.4536V20.4546h11.9082v3.3h-8.459v5.3994h7.709v3.3h-7.709v9Z"/><path d="M150.3687,41.4536V20.4546h3.4492v20.999Z"/><path d="M173.0171,38.1538v3.3h-12.18V20.4546h3.4512V38.1538Z"/><path d="M192.5776,38.1538v3.3h-12.539V20.4546h11.9082v3.3h-8.459v5.25h7.709v3.3h-7.709v5.85Z"/><path d="M257.6328,2a57.9073,57.9073,0,0,1-57.8022,55.8364H2.0342A57.9073,57.9073,0,0,1,59.8364,2H257.6328m2.0342-2H59.8364A59.8366,59.8366,0,0,0,0,59.8364H199.8306A59.8362,59.8362,0,0,0,259.667,0Z" style="fill:url(#a)"/></svg>