<svg xmlns="http://www.w3.org/2000/svg" xmlns:xlink="http://www.w3.org/1999/xlink" viewBox="0 0 259.667 59.8364"><defs><linearGradient id="a" x1="62.8335" y1="30.8789" x2="196.1048" y2="30.8789" gradientUnits="userSpaceOnUse"><stop offset="0" stop-color="#fb3e40"/><stop offset="0.2749" stop-color="#e3334e"/><stop offset="0.8528" stop-color="#a61671"/><stop offset="1" stop-color="#950e7a"/></linearGradient><linearGradient id="b" x1="0" y1="29.9182" x2="259.667" y2="29.9182" xlink:href="#a"/></defs><title>nav_p_h</title><path d="M64.99,29.1245h4.59l-5.01-8.67h6.5391c3.7793,0,7.4394,1.98,7.4394,5.73,0,4.74-3.18,6.33-6.9589,6.33h-3.15v8.9394H64.99Zm8.1895-.3906a2.58,2.58,0,0,0,1.8594-2.25c0-2.13-2.2188-2.64-4.68-2.64Zm17.7305,3.54H88.6284v9.18H85.1792V29.1841H89.32l-4.5-8.73h6.6c4.1094,0,7.35,1.98,7.35,5.88A5.4327,5.4327,0,0,1,94.66,31.7036l5.459,9.75h-3.6Zm2.2187-3.33a2.6964,2.6964,0,0,0,2.1-2.46c0-2.6992-2.85-2.7295-5.01-2.7295Zm11.85,2.01c0-6.0293,3.93-10.7988,10.1407-10.7988,6.2089,0,10.1386,4.7695,10.1386,10.7988s-3.93,10.8-10.1386,10.8C108.9077,41.7534,104.978,36.9839,104.978,30.9536Zm12.3907,7.11L109.478,26.7847a8.7482,8.7482,0,0,0-.99,4.1689c0,4.38,2.791,7.5,6.6309,7.5A6.8166,6.8166,0,0,0,117.3687,38.064Zm-5.5508-13.71,8.25,11.79a8.27,8.27,0,0,0,1.68-5.19c0-4.3789-2.7891-7.499-6.6289-7.499A6.4038,6.4038,0,0,0,111.8179,24.354Zm31.6191-.6h-5.6094l6.15,8.6992h-9v9h-3.4492v-12.3h5.8789l-5.8789-8.6992H143.437Zm7.5606,17.6992V24.9243l3.4511-4.92V41.4536Zm13.92-15.51,10.92,15.51H161.4683V20.4546h3.4492Zm4.5,12.21-4.5-6.39v6.39Zm25.0508-14.3994h-5.6094l6.0293,8.55h-8.8789v5.85h9.0879v3.3H182.5581V29.0044h5.791l-5.791-8.55h11.91Z" style="fill:url(#a)"/><path d="M257.6328,2a57.9073,57.9073,0,0,1-57.8022,55.8364H2.0342A57.9073,57.9073,0,0,1,59.8364,2H257.6328m2.0342-2H59.8364A59.8366,59.8366,0,0,0,0,59.8364H199.8306A59.8362,59.8362,0,0,0,259.667,0Z" style="fill:url(#b)"/></svg>