<svg xmlns="http://www.w3.org/2000/svg" xmlns:xlink="http://www.w3.org/1999/xlink" width="259.667" height="59.8364" viewBox="0 0 259.667 59.8364"><defs><linearGradient id="a" x1="165.8694" y1="32.0757" x2="68.3694" y2="29.5757" gradientUnits="userSpaceOnUse"><stop offset="0" stop-color="#fb3e40"/><stop offset="0.2749" stop-color="#e3334e"/><stop offset="0.8528" stop-color="#a61671"/><stop offset="1" stop-color="#950e7a"/></linearGradient><linearGradient id="b" x1="259.667" y1="29.9182" x2="0" y2="29.9182" xlink:href="#a"/></defs><title>nav_s_h</title><path d="M92.5581,31.4927c-2.76-1.2891-4.6191-2.8184-4.6191-5.6094,0-3.51,2.73-5.7285,6.33-5.7285a7.002,7.002,0,0,1,5.9395,2.9082l-2.43,2.1914a4.0469,4.0469,0,0,0-3.51-1.8008,2.4318,2.4318,0,0,0-2.7011,2.25c0,1.8906,1.83,2.3692,4.2617,3.4492,2.9687,1.32,5.3379,2.9414,5.3379,6.2715,0,3.8985-2.76,6.3281-6.7793,6.3281a7.4466,7.4466,0,0,1-6.6-3.4492Zm3.15,1.4414L92.228,37.9126a4.524,4.524,0,0,0,2.16.541c1.74,0,3.24-.9609,3.24-2.9394C97.6284,34.3735,96.8784,33.5942,95.7085,32.9341Zm23.3691-2.791-8.3984,5.4609v5.85H107.228v-21h3.4512V31.6431l8.3984-5.43v-5.76h3.4493v21h-3.4493Zm9.7207.8105c0-6.0293,3.93-10.7988,10.1407-10.7988,6.2089,0,10.1386,4.7695,10.1386,10.7988s-3.93,10.7988-10.1386,10.7988C132.728,41.7524,128.7983,36.9829,128.7983,30.9536ZM141.189,38.063l-7.8907-11.2793a8.7523,8.7523,0,0,0-.99,4.17c0,4.3789,2.791,7.5,6.6309,7.5A6.8159,6.8159,0,0,0,141.189,38.063Zm-5.5508-13.709,8.25,11.7891a8.2673,8.2673,0,0,0,1.68-5.1895c0-4.3789-2.7891-7.5-6.6289-7.5A6.3949,6.3949,0,0,0,135.6382,24.354Zm19.7109,4.77h4.59l-5.01-8.67h6.5391c3.7793,0,7.4394,1.98,7.4394,5.73,0,4.74-3.18,6.33-6.959,6.33h-3.15v8.9394h-3.4492Zm8.19-.3906a2.5785,2.5785,0,0,0,1.8593-2.25c0-2.1289-2.2187-2.6387-4.68-2.6387Z" style="fill:url(#a)"/><path d="M199.8306,2a57.9073,57.9073,0,0,1,57.8022,55.8364H59.8364A57.9072,57.9072,0,0,1,2.0342,2H199.8306m0-2H0A59.8362,59.8362,0,0,0,59.8364,59.8364H259.667A59.8363,59.8363,0,0,0,199.8306,0Z" style="fill:url(#b)"/></svg>