<svg xmlns="http://www.w3.org/2000/svg" xmlns:xlink="http://www.w3.org/1999/xlink" width="259.667" height="59.8359" viewBox="0 0 259.667 59.8359"><defs><linearGradient id="a" x1="196.8335" y1="30.9541" x2="62.8326" y2="30.9541" gradientUnits="userSpaceOnUse"><stop offset="0" stop-color="#fb3e40"/><stop offset="0.2749" stop-color="#e3334e"/><stop offset="0.8528" stop-color="#a61671"/><stop offset="1" stop-color="#950e7a"/></linearGradient><linearGradient id="b" x1="259.667" y1="29.918" x2="0" y2="29.918" xlink:href="#a"/></defs><title>nav_w_h</title><path d="M96.4438,20.0044,86.6343,41.9038l-5.94-13.14-5.9394,13.14-9.6-21.4492h3.66l5.94,13.3789,5.9394-13.3789,2.67,6ZM86.6343,33.8335l2.88-6.51-4.77,2.2207Zm14.1006,2.4-2.61,5.22h-3.51l9.6-21.4492,9.6,21.4492h-3.51l-2.55-5.1894-3.6,5.1894Zm5.46-3.36-1.98-4.8-1.92,4.6807,1.86,2.9092Zm16.98-6.93,10.919,15.51H119.7241V20.4546h3.45Zm4.499,12.21-4.499-6.39v6.39Zm16.5918-12.21,10.919,15.51H140.8149V20.4546h3.45Zm4.4991,12.21-4.4991-6.39v6.39Zm25.05-14.3994h-5.6094l6.0293,8.55H165.355v5.85h9.0888v3.3h-12.539V29.0044h5.79l-5.79-8.55H173.814Zm12.69,17.6992V29.7544h-4.65v-3.3h4.65v-2.7h-5.7v-3.3h14.85v3.3h-5.7v2.7h4.65v3.3h-4.65V41.4536Z" style="fill:url(#a)"/><path d="M199.8306,2a57.9069,57.9069,0,0,1,57.8022,55.8359H59.8364A57.9068,57.9068,0,0,1,2.0342,2H199.8306m0-2H0A59.8361,59.8361,0,0,0,59.8364,59.8359H259.667A59.8362,59.8362,0,0,0,199.8306,0Z" style="fill:url(#b)"/></svg>