<svg xmlns="http://www.w3.org/2000/svg" xmlns:xlink="http://www.w3.org/1999/xlink" viewBox="0 0 259.667 59.8359"><defs><linearGradient id="a" x1="192.4741" y1="30.9541" x2="62.9094" y2="30.9541" gradientUnits="userSpaceOnUse"><stop offset="0" stop-color="#fb3e40"/><stop offset="0.2749" stop-color="#e3334e"/><stop offset="0.8528" stop-color="#a61671"/><stop offset="1" stop-color="#950e7a"/></linearGradient><linearGradient id="b" x1="259.667" y1="29.918" x2="0" y2="29.918" xlink:href="#a"/></defs><title>nav_w_h</title><path d="M95.408,20.0044,85.9232,41.9038l-5.7438-13.14-5.7428,13.14L65.1548,20.4546h3.539l5.7428,13.3789,5.7428-13.3789,2.5815,6ZM85.9232,33.8335l2.7845-6.51-4.6126,2.2207Zm13.6337,2.4-2.5239,5.22H93.6394l9.2818-21.4492,9.2818,21.4492H108.81l-2.4654-5.1894-3.48,5.1894Zm5.2792-3.36-1.9149-4.8-1.8563,4.6807,1.7987,2.9092Zm16.4174-6.93,10.5575,15.51H117.9175V20.4546h3.336Zm4.35,12.21-4.35-6.39v6.39Zm16.0425-12.21,10.5575,15.51H138.31V20.4546h3.336Zm4.35,12.21-4.35-6.39v6.39Zm24.2205-14.3994H164.793l5.83,8.55h-8.585v5.85h8.788v3.3H158.7018V29.0044H164.3l-5.5983-8.55h11.5149Zm12.27,17.6992V29.7544h-4.4965v-3.3h4.4965v-2.7h-5.5115v-3.3h14.358v3.3H185.822v2.7h4.4964v3.3H185.822V41.4536Z" style="fill:url(#a)"/><path d="M199.8306,2a57.9069,57.9069,0,0,1,57.8022,55.8359H59.8364A57.9068,57.9068,0,0,1,2.0342,2H199.8306m0-2H0A59.8361,59.8361,0,0,0,59.8364,59.8359H259.667A59.8362,59.8362,0,0,0,199.8306,0Z" style="fill:url(#b)"/></svg>