<svg xmlns="http://www.w3.org/2000/svg" xmlns:xlink="http://www.w3.org/1999/xlink" viewBox="0 0 259.667 59.8359"><defs><linearGradient id="a" x1="75.8335" y1="30.8784" x2="187.9941" y2="30.8784" gradientUnits="userSpaceOnUse"><stop offset="0" stop-color="#fb3e40"/><stop offset="0.2749" stop-color="#e3334e"/><stop offset="0.8528" stop-color="#a61671"/><stop offset="1" stop-color="#950e7a"/></linearGradient><linearGradient id="b" x1="0" y1="29.918" x2="259.667" y2="29.918" xlink:href="#a"/></defs><title>nav_a_h</title><path d="M79.8989,36.2334l-2.61,5.22h-3.51l9.6-21.4492,9.6,21.4492h-3.51l-2.55-5.1894-3.6,5.1894Zm5.46-3.36-1.9805-4.8-1.92,4.6807,1.86,2.9092Zm28.1094,2.67c0,3.6006-2.46,5.91-7.0791,5.91h-7.5V20.4541h14.9394c.06.06-4.74,8.67-4.68,8.6992A7.1491,7.1491,0,0,1,113.4683,35.543Zm-11.1289-6.3594h2.9091l3.54-5.43h-6.4492Zm3.8994,3.24h-3.8994v5.73h3.8994c1.89,0,3.66-.72,3.66-2.91C109.8989,33.083,108.1587,32.4238,106.2388,32.4238Zm13.23-1.4707c0-6.0293,3.93-10.7988,10.14-10.7988s10.14,4.77,10.14,10.7988-3.93,10.8-10.14,10.8S119.4692,36.9834,119.4692,30.9531Zm12.39,7.11-7.89-11.2793a8.7378,8.7378,0,0,0-.99,4.1689c0,4.38,2.79,7.5,6.63,7.5A6.8066,6.8066,0,0,0,131.8589,38.0635Zm-5.55-13.71,8.249,11.79a8.2709,8.2709,0,0,0,1.6807-5.19c0-4.3789-2.79-7.499-6.63-7.499A6.3975,6.3975,0,0,0,126.3091,24.3535Zm36.209-4.35v11.97c0,6.06-2.25,9.7793-8.2491,9.7793s-8.25-3.6894-8.25-9.749v-11.55h3.45v9.0293Zm-3.4493,13.4395v-6.6l-9.6,6.66c.0293,3.1494,1.8291,4.9492,4.8,4.9492C157.2681,38.4531,159.0688,36.5938,159.0688,33.4434Zm15.51,8.01V29.7539h-4.65v-3.3h4.65v-2.7h-5.7v-3.3h14.85v3.3h-5.7v2.7h4.65v3.3h-4.65V41.4531Z" style="fill:url(#a)"/><path d="M257.6328,2a57.9068,57.9068,0,0,1-57.8022,55.8359H2.0342A57.9068,57.9068,0,0,1,59.8364,2H257.6328m2.0342-2H59.8364A59.8362,59.8362,0,0,0,0,59.8359H199.8306A59.8358,59.8358,0,0,0,259.667,0Z" style="fill:url(#b)"/></svg>