<svg xmlns="http://www.w3.org/2000/svg" xmlns:xlink="http://www.w3.org/1999/xlink" viewBox="0 0 259.667 59.8359"><defs><linearGradient id="a" x1="259.667" y1="29.918" x2="0" y2="29.918" gradientUnits="userSpaceOnUse"><stop offset="0" stop-color="#fb3e40"/><stop offset="0.2749" stop-color="#e3334e"/><stop offset="0.8528" stop-color="#a61671"/><stop offset="1" stop-color="#950e7a"/></linearGradient></defs><title>nav_w</title><path d="M86.6343,33.8335l5.9394-13.3789h3.66l-9.6,21.4492-5.94-13.14-5.9394,13.14-9.6-21.4492h3.66l5.94,13.3789,5.9394-13.3789Z"/><path d="M97.9136,41.4536h-3.51l9.6-21.4492,9.6,21.4492h-3.51l-1.92-3.87h-8.34Zm6.09-13.38-2.5195,6.15h5.04Z"/><path d="M131.6938,38.1538v3.3h-12.18V20.4546h3.45V38.1538Z"/><path d="M150.894,38.1538v3.3h-12.18V20.4546h3.45V38.1538Z"/><path d="M170.4526,38.1538v3.3h-12.539V20.4546h11.9092v3.3h-8.459v5.25h7.709v3.3h-7.709v5.85Z"/><path d="M182.5132,41.4536V23.7544h-5.7v-3.3h14.85v3.3h-5.7V41.4536Z"/><path d="M199.8306,2a57.9069,57.9069,0,0,1,57.8022,55.8359H59.8364A57.9068,57.9068,0,0,1,2.0342,2H199.8306m0-2H0A59.8361,59.8361,0,0,0,59.8364,59.8359H259.667A59.8362,59.8362,0,0,0,199.8306,0Z" style="fill:url(#a)"/></svg>