<svg xmlns="http://www.w3.org/2000/svg" xmlns:xlink="http://www.w3.org/1999/xlink" viewBox="0 0 259.667 59.8364"><defs><linearGradient id="a" x1="259.667" y1="29.9182" x2="0" y2="29.9182" gradientUnits="userSpaceOnUse"><stop offset="0" stop-color="#fb3e40"/><stop offset="0.2749" stop-color="#e3334e"/><stop offset="0.8528" stop-color="#a61671"/><stop offset="1" stop-color="#950e7a"/></linearGradient></defs><title>nav_s</title><path d="M98.439,25.2544a4.0469,4.0469,0,0,0-3.51-1.8008,2.4319,2.4319,0,0,0-2.7012,2.25c0,1.8906,1.83,2.3692,4.26,3.4492,2.9707,1.32,5.34,2.9414,5.34,6.2715,0,3.8985-2.76,6.3281-6.7793,6.3281a7.282,7.282,0,0,1-7.26-4.9785l2.91-1.68a4.489,4.489,0,0,0,4.35,3.3594c1.74,0,3.24-.9609,3.24-2.9394,0-1.7715-1.77-2.6407-3.99-3.57-3.33-1.3808-5.6992-2.9394-5.6992-6.0605,0-3.51,2.73-5.7285,6.33-5.7285a7.0021,7.0021,0,0,1,5.94,2.9082Z"/><path d="M107.8882,41.4536v-21h3.4512v8.85h8.3984v-8.85h3.4492v21h-3.4492v-8.85h-8.3984v8.85Z"/><path d="M129.4585,30.9536c0-6.0293,3.93-10.7988,10.1406-10.7988,6.209,0,10.1387,4.7695,10.1387,10.7988s-3.93,10.7988-10.1387,10.7988C133.3882,41.7524,129.4585,36.9829,129.4585,30.9536Zm16.77,0c0-4.3789-2.789-7.5-6.6289-7.5s-6.6308,3.1211-6.6308,7.5,2.791,7.5,6.6308,7.5S146.228,35.3325,146.228,30.9536Z"/><path d="M159.4585,32.5142v8.9394h-3.4492v-21h6.539c3.7793,0,7.02,1.98,7.02,5.73,0,4.74-3.18,6.33-6.959,6.33Zm0-3.3907h3.15c1.59,0,3.4492-.57,3.4492-2.6406,0-2.0683-1.8594-2.6387-3.4492-2.6387h-3.15Z"/><path d="M199.8306,2a57.9073,57.9073,0,0,1,57.8022,55.8364H59.8364A57.9072,57.9072,0,0,1,2.0342,2H199.8306m0-2H0A59.8362,59.8362,0,0,0,59.8364,59.8364H259.667A59.8363,59.8363,0,0,0,199.8306,0Z" style="fill:url(#a)"/></svg>