<svg xmlns="http://www.w3.org/2000/svg" xmlns:xlink="http://www.w3.org/1999/xlink" viewBox="0 0 259.667 59.8359"><defs><linearGradient id="a" y1="29.918" x2="259.667" y2="29.918" gradientUnits="userSpaceOnUse"><stop offset="0" stop-color="#fb3e40"/><stop offset="0.2749" stop-color="#e3334e"/><stop offset="0.8528" stop-color="#a61671"/><stop offset="1" stop-color="#950e7a"/></linearGradient></defs><title>nav_a</title><path d="M77.2886,41.4531h-3.51l9.6-21.4492,9.6,21.4492h-3.51l-1.92-3.87h-8.34Zm6.09-13.38-2.5195,6.15h5.04Z"/><path d="M98.8892,41.4531V20.4541h6.72c3.99,0,6.96,1.8594,6.96,5.58a4.4051,4.4051,0,0,1-3.42,4.6191,4.7666,4.7666,0,0,1,4.3194,4.89c0,3.6006-2.46,5.91-7.0791,5.91Zm3.45-12.2695h3.27c1.74,0,3.45-.6,3.45-2.7,0-2.13-1.74-2.7295-3.45-2.7295h-3.27Zm3.8994,3.24h-3.8994v5.73h3.8994c1.89,0,3.66-.72,3.66-2.91C109.8989,33.083,108.1587,32.4238,106.2388,32.4238Z"/><path d="M119.0786,30.9531c0-6.0293,3.93-10.7988,10.14-10.7988s10.14,4.77,10.14,10.7988-3.93,10.8-10.14,10.8S119.0786,36.9834,119.0786,30.9531Zm16.7695,0c0-4.3789-2.79-7.499-6.63-7.499s-6.63,3.12-6.63,7.499,2.79,7.5,6.63,7.5S135.8481,35.333,135.8481,30.9531Z"/><path d="M158.6782,20.4541h3.4492v11.52c0,6.06-2.25,9.7793-8.249,9.7793s-8.25-3.6894-8.25-9.749v-11.55h3.45v12.959c0,3.21,1.8,5.04,4.8,5.04s4.8-1.8593,4.8-5.01Z"/><path d="M174.188,41.4531V23.7539h-5.7v-3.3h14.85v3.3h-5.7V41.4531Z"/><path d="M257.6328,2a57.9068,57.9068,0,0,1-57.8022,55.8359H2.0342A57.9068,57.9068,0,0,1,59.8364,2H257.6328m2.0342-2H59.8364A59.8362,59.8362,0,0,0,0,59.8359H199.8306A59.8358,59.8358,0,0,0,259.667,0Z" style="fill:url(#a)"/></svg>