<?xml version="1.0" encoding="utf-8"?>
<!-- Generator: Adobe Illustrator 22.1.0, SVG Export Plug-In . SVG Version: 6.00 Build 0)  -->
<svg version="1.1" id="Layer_1" xmlns="http://www.w3.org/2000/svg" xmlns:xlink="http://www.w3.org/1999/xlink" x="0px" y="0px"
	 viewBox="0 0 1920 195" style="enable-background:new 0 0 1920 195;" xml:space="preserve">
<style type="text/css">
	.st0{fill:#EEEEEE;}
	.st1{fill:url(#SVGID_1_);}
	.st2{fill:url(#SVGID_2_);}
	.st3{fill:url(#SVGID_3_);}
</style>
<title>navbar</title>
<path class="st0" d="M1920,12H0v109h893.6l58.2,70.4c3.5,4.3,9.8,4.9,14.1,1.3c0.4-0.3,0.7-0.7,1.1-1l63.5-70.7H1920V12z"/>
<linearGradient id="SVGID_1_" gradientUnits="userSpaceOnUse" x1="959" y1="189.95" x2="-1" y2="189.95" gradientTransform="matrix(1 0 0 -1 0 196)">
	<stop  offset="2.165098e-07" style="stop-color:#FC6076"/>
	<stop  offset="1" style="stop-color:#FF9A44"/>
</linearGradient>
<rect x="-1" class="st1" width="960" height="12.1"/>
<linearGradient id="SVGID_2_" gradientUnits="userSpaceOnUse" x1="12245" y1="189.95" x2="11285" y2="189.95" gradientTransform="matrix(-1 0 0 -1 13204 196)">
	<stop  offset="2.165098e-07" style="stop-color:#FC6076"/>
	<stop  offset="1" style="stop-color:#FF9A44"/>
</linearGradient>
<polygon class="st2" points="959,0 1919,0 1919,12.1 959,12.1 "/>
<g>
	
		<linearGradient id="SVGID_3_" gradientUnits="userSpaceOnUse" x1="878.4308" y1="114.3889" x2="878.4308" y2="277.438" gradientTransform="matrix(0.9999 1.676957e-02 -1.676957e-02 0.9999 85.1786 -77.6387)">
		<stop  offset="2.165098e-07" style="stop-color:#FC6076"/>
		<stop  offset="1" style="stop-color:#FF9A44"/>
	</linearGradient>
	<path class="st3" d="M926,98.3c-1.8-4.9-1.5-5.6,2.4-8.6c8.2-6.1,16.3-12.3,24.4-18.5c3.8-2.9,4.8-3,9,0.2
		c4.8-3.5,9.8-7.1,14.7-10.8c4.1-3.2,8.4-5.7,13.8-5.2c2.5,0.2,4.4,1.2,4.3,4c-0.1,2.7-1.7,4-4.6,4c-1.8,0-3.9,0.2-5.3,1.2
		c-6.4,4.4-12.7,9-19,13.5c2,3.4,4,6.4,5.6,9.6c5.5,10.8,1.3,24.6-9.2,30c-10.6,5.5-23.1,1.3-29-9.7c-0.7-1.3-1.4-3-3.1-1.4
		c-4,3.8-8.1,7.7-6.8,14.1c0.3,1.4,0.9,3,1.8,4.1c3.4,4,7,7.8,10.6,11.7c7.4,8.1,14.8,16.2,22.2,24.3c0.5,0.6,1.1,1,1.9,1.8
		c0.9-0.8,1.8-1.5,2.7-2.4c12-12.2,24.5-24,35.8-36.9c14.7-16.8,18.4-36.4,11.1-57.7c-4-11.6-11.3-20.6-21.8-27.3
		c-15.6-10-32.1-10.8-48.1-2.8c-22.3,11-33.1,34.2-29.6,58.3c0.3,2.1,0.7,4.1,1.2,6.2c0.8,3.6-0.1,6-2.8,6.7
		c-2.6,0.6-4.6-0.9-5.5-4.3c-3.3-12.5-3-24.9,0.9-37.1c3.4-10.7,9.2-19.8,17.3-27.7c6.2-6,13.5-9.5,21.3-12.8
		c11.1-4.6,22.5-4.8,33.6-1.5c20.2,6,34.2,19.1,41.5,39.2c5.7,15.8,5.5,31.7-0.6,47.2c-2.4,6.1-6.2,11.9-10.1,17.3
		c-3,4.2-6.9,7.7-10.5,11.4c-9.5,9.7-19,19.3-28.5,28.9c-1.6,1.6-3,3.5-4.7,5.1c-2.4,2.3-4.8,2.3-7-0.1
		c-8.8-9.5-17.4-19.2-26.1-28.8c-3.8-4.2-7.7-8.4-11.5-12.7c-4.8-5.4-5.4-11.6-3.5-18.3c1.4-4.8,4-8.8,8-11.8
		C924,99.9,924.9,99.1,926,98.3z M943.1,109.2c6,3.9,11.2,4.6,16.2,1.3c4.9-3.2,7.4-8.1,7-14c-2.1,2.9-4.2,6-6.6,8.8
		c-0.6,0.7-2,0.6-3.1,0.9c0.3-1,0.4-2.1,1-3c1.7-2.7,3.6-5.2,5.5-7.8c-0.3-0.2-0.6-0.4-0.8-0.6C956.1,99.6,949.8,104.2,943.1,109.2z
		 M991.7,70.3c-1,4-2.4,7.9-2.9,11.9c-0.2,1.1,1.8,3.4,3.2,3.7c2.2,0.5,3.5-1.8,3.3-3.6c-0.5-4-1.6-8-2.4-12
		C992.5,70.3,992.1,70.3,991.7,70.3z"/>
</g>
</svg>
