<?xml version="1.0" encoding="utf-8"?>
<!-- Generator: Adobe Illustrator 22.1.0, SVG Export Plug-In . SVG Version: 6.00 Build 0)  -->
<svg version="1.1" id="Layer_1" xmlns="http://www.w3.org/2000/svg" xmlns:xlink="http://www.w3.org/1999/xlink" x="0px" y="0px"
	 viewBox="0 0 693.8 368.4" style="enable-background:new 0 0 693.8 368.4;" xml:space="preserve">
<style type="text/css">
	.st0{fill:#304153;}
	.st1{fill:#222C36;}
	.st2{fill:#252E3E;}
	.st3{fill:#FC6037;}
	.st4{fill:#FFBB26;}
	.st5{fill:#3D4C66;}
	.st6{fill:#FFFFFF;}
</style>
<title>Outlet</title>
<rect x="119.1" y="111.4" class="st0" width="12.3" height="247.8"/>
<rect x="131.4" y="111.4" class="st1" width="12.3" height="247.8"/>
<rect x="330.4" y="111.4" class="st0" width="12.3" height="247.8"/>
<rect x="342.7" y="111.4" class="st1" width="12.3" height="247.8"/>
<rect x="389" y="111.4" class="st0" width="12.3" height="247.8"/>
<rect x="401.2" y="111.4" class="st1" width="12.3" height="247.8"/>
<rect x="600.2" y="111.4" class="st0" width="12.3" height="247.8"/>
<rect x="612.5" y="111.4" class="st1" width="12.3" height="247.8"/>
<path class="st1" d="M678.2,106.4v6.7H348.8V80.5h303.5C666.6,80.5,678.1,92.1,678.2,106.4z"/>
<path class="st0" d="M348.8,80.5v32.6H19.4v-6.7c0-14.3,11.6-25.9,25.9-25.9H348.8z"/>
<rect x="0.7" y="359.2" class="st0" width="691.9" height="8.7"/>
<rect x="224.1" y="338.5" class="st2" width="71.6" height="5.1"/>
<rect x="216.8" y="345.9" class="st3" width="86.1" height="13.5"/>
<path class="st3" d="M291.4,208.4h-63c-6.4,0-11.6,5.2-11.6,11.6V230h-4.6c-3,0-5.4,2.4-5.4,5.3c0,0,0,0,0,0v2.3
	c-3.1,1.4-5,4.5-5.1,7.9v5.6c0,16.5-9.8,31.1-18.4,43.9c-6.3,9.3-11.7,17.3-12.4,24.8c-0.8,5.8,1,11.6,4.8,16.1
	c3.6,3.9,8.7,6.1,13.9,6c11.2,0,18.8-8.7,18.8-21.7v-56.9h8.3v72.9h86.1V220C302.9,213.6,297.8,208.4,291.4,208.4z M201.8,320.2
	c0,7.2-3.2,14.9-12,14.9c-3.4,0.1-6.6-1.3-8.9-3.7c-2.5-3-3.7-7-3.1-10.9c0.6-5.8,5.6-13.2,11.3-21.8c4.3-6.3,9-13.4,12.8-21.2
	L201.8,320.2z"/>
<path class="st4" d="M289.5,251.7c0,4.4-3.6,7.9-7.9,7.9c0,0,0,0,0,0h-43.2c-4.4,0-7.9-3.6-7.9-7.9v-22.9c0-4.4,3.6-7.9,7.9-7.9
	h43.2c4.4,0,7.9,3.6,7.9,7.9c0,0,0,0,0,0L289.5,251.7z"/>
<path class="st5" d="M216.8,230h-4.6c-3,0-5.4,2.4-5.4,5.3c0,0,0,0,0,0v2.3c-3.1,1.4-5,4.5-5.1,7.9v5.6c0,16.5-9.8,31.1-18.4,43.9
	c-6.3,9.3-11.7,17.3-12.4,24.8c-0.8,5.8,1,11.6,4.8,16.1c3.6,3.9,8.7,6.1,13.9,6c11.2,0,18.8-8.7,18.8-21.7v-56.9h8.3L216.8,230z
	 M201.8,320.2c0,7.2-3.2,14.9-12,14.9c-3.4,0.1-6.6-1.3-8.9-3.7c-2.5-3-3.7-7-3.1-10.9c0.6-5.8,5.6-13.2,11.3-21.8
	c4.3-6.3,9-13.4,12.8-21.2L201.8,320.2z"/>
<path class="st6" d="M272.8,224.8c2.1,0,3.8,0.6,3.8,1.4v1.8c0,0.8-1.7,1.4-3.8,1.4h-34.1c-2.1,0-3.8-0.6-3.8-1.4v-1.8
	c0-0.8,1.7-1.4,3.8-1.4L272.8,224.8z"/>
<rect x="494.1" y="338.5" class="st2" width="71.6" height="5.1"/>
<rect x="486.8" y="345.9" class="st3" width="86.1" height="13.5"/>
<path class="st3" d="M561.4,208.4h-63c-6.4,0-11.6,5.2-11.6,11.6V230h-4.6c-3,0-5.4,2.4-5.4,5.3c0,0,0,0,0,0v2.3
	c-3.1,1.4-5,4.5-5.1,7.9v5.6c0,16.5-9.8,31.1-18.4,43.9c-6.3,9.3-11.7,17.3-12.4,24.8c-0.8,5.8,1,11.6,4.8,16.1
	c3.6,3.9,8.7,6.1,13.9,6c11.2,0,18.8-8.7,18.8-21.7v-56.9h8.3v72.9h86.1V220C572.9,213.6,567.8,208.4,561.4,208.4z M471.8,320.2
	c0,7.2-3.2,14.9-12,14.9c-3.4,0.1-6.6-1.3-8.9-3.7c-2.5-3-3.7-7-3.1-10.9c0.6-5.8,5.6-13.2,11.3-21.8c4.3-6.3,9-13.4,12.8-21.2
	L471.8,320.2z"/>
<path class="st4" d="M559.5,251.7c0,4.4-3.6,7.9-7.9,7.9c0,0,0,0,0,0h-43.2c-4.4,0-7.9-3.6-7.9-7.9v-22.9c0-4.4,3.6-7.9,7.9-7.9
	h43.2c4.4,0,7.9,3.6,7.9,7.9c0,0,0,0,0,0V251.7z"/>
<path class="st5" d="M486.8,230h-4.6c-3,0-5.4,2.4-5.4,5.3c0,0,0,0,0,0v2.3c-3.1,1.4-5,4.5-5.1,7.9v5.6c0,16.5-9.8,31.1-18.4,43.9
	c-6.3,9.3-11.7,17.3-12.4,24.8c-0.8,5.8,1,11.6,4.8,16.1c3.6,3.9,8.7,6.1,13.9,6c11.2,0,18.8-8.7,18.8-21.7v-56.9h8.3L486.8,230z
	 M471.8,320.2c0,7.2-3.2,14.9-12,14.9c-3.4,0.1-6.6-1.3-8.9-3.7c-2.5-3-3.7-7-3.1-10.9c0.6-5.8,5.6-13.2,11.3-21.8
	c4.3-6.3,9-13.4,12.8-21.2L471.8,320.2z"/>
<path class="st6" d="M542.8,224.8c2.1,0,3.8,0.6,3.8,1.4v1.8c0,0.8-1.7,1.4-3.8,1.4h-34.1c-2.1,0-3.8-0.6-3.8-1.4v-1.8
	c0-0.8,1.7-1.4,3.8-1.4L542.8,224.8z"/>
<g>
	
		<ellipse transform="matrix(0.9732 -0.2298 0.2298 0.9732 -11.1361 16.2532)" class="st6" cx="64.2" cy="55.9" rx="18.7" ry="18.7"/>
	<path class="st3" d="M59.6,128.3C25.7,79.1,19.4,74,19.4,55.9c0-24.8,20.1-44.9,44.9-44.9s44.9,20.1,44.9,44.9
		c0,18.1-6.3,23.1-40.3,72.4C66.6,131.5,61.8,131.5,59.6,128.3L59.6,128.3z M64.2,74.6c10.3,0,18.7-8.4,18.7-18.7
		s-8.4-18.7-18.7-18.7s-18.7,8.4-18.7,18.7S53.9,74.6,64.2,74.6z"/>
</g>
</svg>
