<svg xmlns="http://www.w3.org/2000/svg" xmlns:xlink="http://www.w3.org/1999/xlink" viewBox="0 0 58.6115 50.58"><defs><linearGradient id="3b10775b-cd3b-4dd4-a204-854276130fb8" x1="5.7133" y1="29.3984" x2="57.5883" y2="29.3984" gradientUnits="userSpaceOnUse"><stop offset="0" stop-color="#ff7bac"/><stop offset="1" stop-color="#ff7bac"/></linearGradient></defs><title>piggybank</title><g id="75d33393-4cf1-4926-a098-079be148a32a" data-name="Layer 2"><g id="43c63567-0a58-48b4-83f5-05c83e505776" data-name="icon"><path d="M34.8206,3.7734a4.831,4.831,0,0,1,.66,4.43,6.677,6.677,0,0,1-6.35,4.56,6.7988,6.7988,0,0,1-1.49-.16,5.5756,5.5756,0,0,1-3.98-2.99,5.2413,5.2413,0,0,1,.17-4.73c1.36-2.65,3.56-3.29,6.44-3.43h.11A5.4717,5.4717,0,0,1,34.8206,3.7734Zm-.79,3.11a3.5049,3.5049,0,0,0-1.02-2.6,4.2725,4.2725,0,0,0-3.1-1.36h-.01c-2.02.1-4.54.87-5.03,3.94a3.3676,3.3676,0,0,0,.81,2.75,4.6971,4.6971,0,0,0,3.49,1.63h.01A4.69,4.69,0,0,0,34.0306,6.8834Z" transform="translate(-0.2481 -0.2534)" style="fill:#fcee21"/><path d="M32.2906,5.3334a2.5422,2.5422,0,0,1,.35,2.32,3.4308,3.4308,0,0,1-3.39,2.37c-.09,0-.19,0-.29-.01a3.3307,3.3307,0,0,1-2.49-1.37,2.2372,2.2372,0,0,1-.31-2.02c.52-1.65,1.64-2.4,3.75-2.5h.06A2.9149,2.9149,0,0,1,32.2906,5.3334Z" transform="translate(-0.2481 -0.2534)" style="fill:#ff0"/><path d="M58.5106,26.2134c.83,1-.01,3.62-.56,5.35-.12.39-.22.72-.28.95-.45,1.76-1.2,3.39-3.6,3.39a12.3828,12.3828,0,0,1-4.69,3.9c-.77.45-1.57.91-2.37,1.48-2.69,1.9-2.82,5.03-2.95,8.06l-.02.5a.5931.5931,0,0,1-.6.59.6661.6661,0,0,1-.42-.16,24.3094,24.3094,0,0,1-1.87-1.82c-.06-.06-.15-.14-.24-.22-.09-.09-.2-.18-.29-.27a6.6422,6.6422,0,0,1-.5.54c-.06.06-.11.12-.14.15a15.1555,15.1555,0,0,1-1.33,1.33.6015.6015,0,0,1-.41.17.65.65,0,0,1-.61-.58,34.1326,34.1326,0,0,0-1.16-5.2,31.9554,31.9554,0,0,1-8.4,1.02,47.19,47.19,0,0,1-10.63-1.26c-.19.68-.41,1.36-.63,2.04a21.1165,21.1165,0,0,0-1.03,4.07.6366.6366,0,0,1-.61.59.6015.6015,0,0,1-.41-.17,10.3672,10.3672,0,0,1-.77-1.02,7.067,7.067,0,0,0-1.53-1.81,7.5057,7.5057,0,0,1-.75.62,6.2039,6.2039,0,0,0-1.52,1.59.5866.5866,0,0,1-.51.28.6267.6267,0,0,1-.45-.18.5577.5577,0,0,1-.16-.41c.03-3.6-1.14-7.14-2.27-10.56-1.6-4.86-3.25-9.89-1.45-15.11a15.6357,15.6357,0,0,1,1.72-3.51,5.73,5.73,0,0,1-2.54-2.36,5.4413,5.4413,0,0,1-.57.03,4.0314,4.0314,0,0,1-3.63-1.94.5335.5335,0,0,1,0-.57.6439.6439,0,0,1,.55-.33.5536.5536,0,0,1,.49.3,2.818,2.818,0,0,0,2.56,1.36.4869.4869,0,0,0,.12-.01,4.5561,4.5561,0,0,1-.11-2.16,2.9574,2.9574,0,0,1,2.72-2.33,2.1067,2.1067,0,0,1,1.74.92,2.003,2.003,0,0,1,.37,1.76,4.7777,4.7777,0,0,1-2.73,2.59l-.27.09a3.9458,3.9458,0,0,0,1.92,1.63c.02.01.05.03.07.04,3.99-5.24,10.61-7.38,15.55-8.25a5.444,5.444,0,0,1-1.41-4.63c.74-4.04,3.56-6.21,8.36-6.44h.13a7.0487,7.0487,0,0,1,5.27,2.58,5.5411,5.5411,0,0,1,1.27,4.64,8.1567,8.1567,0,0,1-1.86,3.82,32.3345,32.3345,0,0,1,4.51,1.04l.43.13a30.9989,30.9989,0,0,1,3.24-3.02l.12-.11a2.5184,2.5184,0,0,1,1.53-.78,1.4962,1.4962,0,0,1,.6.14c2.43,1.04,2.08,4.55,1.64,6.61a10.9793,10.9793,0,0,1,5.71,5.76,10.3443,10.3443,0,0,1,.41,1.47c.35,1.52.75,3.24,2.44,3.52a1.21,1.21,0,0,0,.19.01,4.1989,4.1989,0,0,0,.8-.12,3.9254,3.9254,0,0,1,.89-.14A1.1627,1.1627,0,0,1,58.5106,26.2134Zm-1.16,2.27a4.7107,4.7107,0,0,0,.23-1.13.8381.8381,0,0,0-.66-.19c-.22,0-.46.03-.67.05-.19.02-.36.04-.5.04l-.19-.01a3.2856,3.2856,0,0,1-1.92-.53c-.85-.65-1.12-1.99-1.35-3.17-.09-.43-.17-.83-.27-1.16a10.0193,10.0193,0,0,0-5.86-6.22.4844.4844,0,0,1-.29-.63c.23-.96.58-4.29-.24-5.34a.7353.7353,0,0,0-.6-.31,1.578,1.578,0,0,0-.78.28,18.1882,18.1882,0,0,0-3.63,3.39l-.1.07a.5087.5087,0,0,1-.31.12.4146.4146,0,0,1-.16-.03c-.4-.11-.77-.21-1.14-.32a21.4778,21.4778,0,0,0-5.04-1.03,7.8514,7.8514,0,0,1-4.82,1.58q-.375,0-.75-.03a7.6292,7.6292,0,0,1-3.9-1.57c-5.07.8-16.81,3.79-18.51,14.5-.68,4.29.72,8.43,2.08,12.45a37.7261,37.7261,0,0,1,2.24,8.9c.34-.32.71-.61,1.07-.9.29-.24.59-.48.88-.74a.7365.7365,0,0,1,.45-.17.5057.5057,0,0,1,.4.18c.31.38.6.77.89,1.17s.59.79.9,1.18c.22-1.02.54-2.02.85-3,.28-.86.56-1.75.77-2.65a.6059.6059,0,0,1,.59-.44.7719.7719,0,0,1,.15.02,46.6557,46.6557,0,0,0,10.93,1.35,30.5848,30.5848,0,0,0,8.64-1.12.3887.3887,0,0,1,.15-.02.6091.6091,0,0,1,.58.44,39.9817,39.9817,0,0,1,1.17,4.81c.21-.22.41-.45.61-.68.3-.36.61-.71.94-1.05a.5758.5758,0,0,1,.41-.18.7045.7045,0,0,1,.43.17,18.6112,18.6112,0,0,1,1.4,1.41l.48.51c.11-2.37.34-4.64,1.69-6.51a8.6855,8.6855,0,0,1,3.66-2.71,11.4721,11.4721,0,0,0,4.99-4.25.5212.5212,0,0,1,.48-.3c.1,0,.16.01.22.01,2.35,0,2.8-2.77,3.17-4.99.06-.37.12-.72.18-1.03C57.3006,28.6734,57.3206,28.5934,57.3506,28.4834Zm-21.87-20.28a4.831,4.831,0,0,0-.66-4.43,5.4717,5.4717,0,0,0-4.44-2.32h-.11c-2.88.14-5.08.78-6.44,3.43a5.2413,5.2413,0,0,0-.17,4.73,5.5756,5.5756,0,0,0,3.98,2.99,6.7988,6.7988,0,0,0,1.49.16A6.677,6.677,0,0,0,35.4806,8.2034Zm-28.26,7.38a1.1249,1.1249,0,0,0,.28-1.19,1.0048,1.0048,0,0,0-.93-.55,1.3787,1.3787,0,0,0-.96.41,2.3113,2.3113,0,0,0-.4,2.37c.02.06.04.11.06.16,0,.01.01.02.01.03A4.2157,4.2157,0,0,0,7.2206,15.5834Z" transform="translate(-0.2481 -0.2534)" style="fill:#333"/><path d="M57.5806,27.3534a4.7107,4.7107,0,0,1-.23,1.13c-.03.11-.05.19-.06.22-.06.31-.12.66-.18,1.03-.37,2.22-.82,4.99-3.17,4.99-.06,0-.12-.01-.22-.01a.5212.5212,0,0,0-.48.3,11.4721,11.4721,0,0,1-4.99,4.25,8.6855,8.6855,0,0,0-3.66,2.71c-1.35,1.87-1.58,4.14-1.69,6.51l-.48-.51a18.6112,18.6112,0,0,0-1.4-1.41.7045.7045,0,0,0-.43-.17.5758.5758,0,0,0-.41.18c-.33.34-.64.69-.94,1.05-.2.23-.4.46-.61.68a39.9817,39.9817,0,0,0-1.17-4.81.6091.6091,0,0,0-.58-.44.3887.3887,0,0,0-.15.02,30.5848,30.5848,0,0,1-8.64,1.12,46.6557,46.6557,0,0,1-10.93-1.35.7719.7719,0,0,0-.15-.02.6059.6059,0,0,0-.59.44c-.21.9-.49,1.79-.77,2.65-.31.98-.63,1.98-.85,3-.31-.39-.61-.78-.9-1.18s-.58-.79-.89-1.17a.5057.5057,0,0,0-.4-.18.7365.7365,0,0,0-.45.17c-.29.26-.59.5-.88.74-.36.29-.73.58-1.07.9a37.7261,37.7261,0,0,0-2.24-8.9c-1.36-4.02-2.76-8.16-2.08-12.45,1.7-10.71,13.44-13.7,18.51-14.5a7.6292,7.6292,0,0,0,3.9,1.57q.375.03.75.03a7.8514,7.8514,0,0,0,4.82-1.58,21.4778,21.4778,0,0,1,5.04,1.03c.37.11.74.21,1.14.32a.4146.4146,0,0,0,.16.03.5087.5087,0,0,0,.31-.12l.1-.07a18.1882,18.1882,0,0,1,3.63-3.39,1.578,1.578,0,0,1,.78-.28.7353.7353,0,0,1,.6.31c.82,1.05.47,4.38.24,5.34a.4844.4844,0,0,0,.29.63,10.0193,10.0193,0,0,1,5.86,6.22c.1.33.18.73.27,1.16.23,1.18.5,2.52,1.35,3.17a3.2856,3.2856,0,0,0,1.92.53l.19.01c.14,0,.31-.02.5-.04.21-.02.45-.05.67-.05A.8381.8381,0,0,1,57.5806,27.3534Zm-9.01-2.44a.5822.5822,0,0,0,.15-.5,2.5178,2.5178,0,0,0-2.35-2.34,2.4523,2.4523,0,0,0-2.21,2.43.5062.5062,0,0,0,.12.42.5643.5643,0,0,0,.43.17.6362.6362,0,0,0,.65-.57c.06-.6.45-1.25,1.04-1.25a.7613.7613,0,0,1,.21.03c.65.15.87.85.95,1.4a.4845.4845,0,0,0,.5.45A.6708.6708,0,0,0,48.5706,24.9134Zm-9.52-7.47a1.3592,1.3592,0,0,0-.3-1.16c-1.23-1.51-5.83-1.59-7.79-1.63-.28,0-.5-.01-.71-.02-.42-.01-1.24-.05-2.25-.05-3.56,0-7.86.41-8.15,2.37a1.3411,1.3411,0,0,0,.26,1.01,2.0959,2.0959,0,0,0,1.39.72,8.7027,8.7027,0,0,0,.89.04,22.6589,22.6589,0,0,0,3.02-.29,23.67,23.67,0,0,1,2.73-.29h.48c1.58,0,3.16.15,4.69.3,1.08.1,2.2.21,3.31.27.12,0,.26.01.39.01C37.7906,18.7234,38.8406,18.5834,39.0506,17.4434Zm-26.65,4.7a.6359.6359,0,0,0,.14-.41.5716.5716,0,0,0-.58-.6.5807.5807,0,0,0-.44.19.6649.6649,0,0,0-.15.41.5739.5739,0,0,0,.59.6A.5479.5479,0,0,0,12.4006,22.1434Zm-1.5,2.32a.5556.5556,0,0,0,.01-.57.6728.6728,0,0,0-.56-.32.5552.5552,0,0,0-.49.29,11.1448,11.1448,0,0,0-.95,8.97.6.6,0,0,0,.58.42.6494.6494,0,0,0,.51-.25.5485.5485,0,0,0,.07-.5A9.8507,9.8507,0,0,1,10.9006,24.4634Z" transform="translate(-0.2481 -0.2534)" style="fill:url(#3b10775b-cd3b-4dd4-a204-854276130fb8)"/><path d="M48.7206,24.4134a.5822.5822,0,0,1-.15.5.6708.6708,0,0,1-.51.24.4845.4845,0,0,1-.5-.45c-.08-.55-.3-1.25-.95-1.4a.7613.7613,0,0,0-.21-.03c-.59,0-.98.65-1.04,1.25a.6362.6362,0,0,1-.65.57.5643.5643,0,0,1-.43-.17.5062.5062,0,0,1-.12-.42,2.4523,2.4523,0,0,1,2.21-2.43A2.5178,2.5178,0,0,1,48.7206,24.4134Z" transform="translate(-0.2481 -0.2534)" style="fill:#333"/><path d="M38.7506,16.2834a1.3592,1.3592,0,0,1,.3,1.16c-.21,1.14-1.26,1.28-2.04,1.28-.13,0-.27-.01-.39-.01-1.11-.06-2.23-.17-3.31-.27-1.53-.15-3.11-.3-4.69-.3h-.48a23.67,23.67,0,0,0-2.73.29,22.6589,22.6589,0,0,1-3.02.29,8.7027,8.7027,0,0,1-.89-.04,2.0959,2.0959,0,0,1-1.39-.72,1.3411,1.3411,0,0,1-.26-1.01c.29-1.96,4.59-2.37,8.15-2.37,1.01,0,1.83.04,2.25.05.21.01.43.02.71.02C32.9206,14.6934,37.5206,14.7734,38.7506,16.2834Zm-1.95,1.26c.19-.12.41-.3.38-.46-.04-.23-.51-.57-2.51-.91l-.11-.02a27.3565,27.3565,0,0,0-3.49-.28l-.78-.04c-.44-.01-.87-.02-1.31-.02a29.4215,29.4215,0,0,0-4.63.36c-.11.02-.28.03-.48.05-.7.07-2,.21-2.28.59-.13.19-.18.34-.14.42.03.07.17.18.67.18a10.1558,10.1558,0,0,0,1.68-.2c.2-.03.36-.06.46-.07,1.33-.14,2.68-.17,3.87-.2h.73c1.26,0,2.56.06,3.99.19.18.02.5.08.9.16a16.4712,16.4712,0,0,0,2.49.34A1.1677,1.1677,0,0,0,36.8006,17.5434Z" transform="translate(-0.2481 -0.2534)" style="fill:#333"/><path d="M33.0106,4.2834a3.5049,3.5049,0,0,1,1.02,2.6,4.69,4.69,0,0,1-4.85,4.36h-.01a4.6971,4.6971,0,0,1-3.49-1.63,3.3676,3.3676,0,0,1-.81-2.75c.49-3.07,3.01-3.84,5.03-3.94h.01A4.2725,4.2725,0,0,1,33.0106,4.2834Zm-.37,3.37a2.5422,2.5422,0,0,0-.35-2.32,2.9149,2.9149,0,0,0-2.32-1.21h-.06c-2.11.1-3.23.85-3.75,2.5a2.2372,2.2372,0,0,0,.31,2.02,3.3307,3.3307,0,0,0,2.49,1.37c.1.01.2.01.29.01A3.4308,3.4308,0,0,0,32.6406,7.6534Z" transform="translate(-0.2481 -0.2534)" style="fill:#333"/><path d="M12.5406,21.7334a.6359.6359,0,0,1-.14.41.5479.5479,0,0,1-.44.19.5739.5739,0,0,1-.59-.6.6649.6649,0,0,1,.15-.41.5807.5807,0,0,1,.44-.19A.5716.5716,0,0,1,12.5406,21.7334Z" transform="translate(-0.2481 -0.2534)" style="fill:#333"/><path d="M10.9106,23.8934a.5556.5556,0,0,1-.01.57,9.8507,9.8507,0,0,0-.83,8.04.5485.5485,0,0,1-.07.5.6494.6494,0,0,1-.51.25.6.6,0,0,1-.58-.42,11.1448,11.1448,0,0,1,.95-8.97.5552.5552,0,0,1,.49-.29A.6728.6728,0,0,1,10.9106,23.8934Z" transform="translate(-0.2481 -0.2534)" style="fill:#333"/></g></g></svg>