<svg xmlns="http://www.w3.org/2000/svg" viewBox="0 0 48.7039 55.6826"><title>FuelPump</title><rect x="19.6321" y="47.9824" width="26.3926" height="1.8663" style="fill:#252e3e"/><rect x="16.9529" y="50.7061" width="31.751" height="4.9765" style="fill:#fc6037"/><path d="M44.4387,0h-23.22a4.2662,4.2662,0,0,0-4.2656,4.2657v3.707H15.2542a1.9725,1.9725,0,0,0-1.9737,1.9717v.8486a3.215,3.215,0,0,0-1.8657,2.9092v2.0556c0,6.0889-3.603,11.4512-6.7827,16.1827C2.3255,35.3731.3328,38.3369.0481,41.1016a7.5428,7.5428,0,0,0,1.7832,5.9238,6.805,6.805,0,0,0,5.1406,2.2c4.1455,0,6.9312-3.2139,6.9312-7.9961V20.26h3.05V47.1524h31.751V4.2657A4.2661,4.2661,0,0,0,44.4387,0ZM11.4148,41.23c0,2.6641-1.1675,5.5088-4.4429,5.5088a4.29,4.29,0,0,1-3.2929-1.38,5.0931,5.0931,0,0,1-1.1558-4.0029c.2207-2.1484,2.0523-4.8721,4.1733-8.0273a64.4778,64.4778,0,0,0,4.7183-7.8243Z" style="fill:#fc6037"/><path d="M24.8557,4.5791H40.8a2.9282,2.9282,0,0,1,2.9282,2.9282v8.4448a2.9268,2.9268,0,0,1-2.9268,2.9268H24.8577A2.9287,2.9287,0,0,1,21.929,15.95V7.5058A2.9267,2.9267,0,0,1,24.8557,4.5791Z" style="fill:#ffb848"/><path d="M16.9529,7.9727H15.2542a1.9725,1.9725,0,0,0-1.9737,1.9717v.8486a3.215,3.215,0,0,0-1.8657,2.9092v2.0556c0,6.0889-3.603,11.4512-6.7827,16.1827C2.3255,35.3731.3328,38.3369.0481,41.1016a7.5428,7.5428,0,0,0,1.7832,5.9238,6.805,6.805,0,0,0,5.1406,2.2c4.1455,0,6.9312-3.2139,6.9312-7.9961V20.26h3.05ZM11.4148,41.23c0,2.6641-1.1675,5.5088-4.4429,5.5088a4.29,4.29,0,0,1-3.2929-1.38,5.0931,5.0931,0,0,1-1.1558-4.0029c.2207-2.1484,2.0523-4.8721,4.1733-8.0273a64.4778,64.4778,0,0,0,4.7183-7.8243Z" style="fill:#3d4c66"/><path d="M37.5852,6.0552c.7735,0,1.4014.2256,1.4014.5029V7.229c0,.2774-.6279.503-1.4014.503H24.9973c-.7744,0-1.4023-.2256-1.4023-.503V6.5581c0-.2773.6279-.5029,1.4023-.5029Z" style="fill:#fff"/></svg>