<?xml version="1.0" encoding="utf-8"?>
<!-- Generator: Adobe Illustrator 22.1.0, SVG Export Plug-In . SVG Version: 6.00 Build 0)  -->
<svg version="1.1" id="Layer_1" xmlns="http://www.w3.org/2000/svg" xmlns:xlink="http://www.w3.org/1999/xlink" x="0px" y="0px"
	 viewBox="0 0 48.7 55.7" style="enable-background:new 0 0 48.7 55.7;" xml:space="preserve">
<style type="text/css">
	.st0{fill:#2D2D2D;}
	.st1{fill:#8A8A8A;}
	.st2{fill:#C1C1C1;}
	.st3{fill:#4A4A4A;}
	.st4{fill:#FFFFFF;}
	.st5{fill:#FC6037;}
</style>
<title>pump_off</title>
<rect x="19.6" y="48" class="st0" width="26.4" height="1.9"/>
<rect x="17" y="50.7" class="st1" width="31.8" height="5"/>
<path class="st1" d="M44.4,0H21.2C18.9,0,17,1.9,17,4.3V8h-1.7c-1.1,0-2,0.9-2,2c0,0,0,0,0,0v0.8c-1.1,0.5-1.9,1.7-1.9,2.9v2.1
	c0,6.1-3.6,11.5-6.8,16.2c-2.3,3.4-4.3,6.4-4.6,9.2c-0.3,2.1,0.4,4.3,1.8,5.9C3.2,48.5,5,49.3,7,49.2c4.1,0,6.9-3.2,6.9-8v-21H17
	v26.9h31.8V4.3C48.7,1.9,46.8,0,44.4,0z M11.4,41.2c0,2.7-1.2,5.5-4.4,5.5c-1.2,0-2.4-0.5-3.3-1.4c-0.9-1.1-1.4-2.6-1.2-4
	c0.2-2.1,2.1-4.9,4.2-8c1.8-2.5,3.3-5.1,4.7-7.8L11.4,41.2z"/>
<path class="st2" d="M24.9,4.6h15.9c1.6,0,2.9,1.3,2.9,2.9v0V16c0,1.6-1.3,2.9-2.9,2.9H24.9c-1.6,0-2.9-1.3-2.9-2.9c0,0,0,0,0,0V7.5
	C21.9,5.9,23.2,4.6,24.9,4.6z"/>
<path class="st3" d="M17,8h-1.7c-1.1,0-2,0.9-2,2c0,0,0,0,0,0v0.8c-1.1,0.5-1.9,1.7-1.9,2.9v2.1c0,6.1-3.6,11.5-6.8,16.2
	c-2.3,3.4-4.3,6.4-4.6,9.2c-0.3,2.1,0.4,4.3,1.8,5.9C3.2,48.5,5,49.3,7,49.2c4.1,0,6.9-3.2,6.9-8v-21H17L17,8z M11.4,41.2
	c0,2.7-1.2,5.5-4.4,5.5c-1.2,0-2.4-0.5-3.3-1.4c-0.9-1.1-1.4-2.6-1.2-4c0.2-2.1,2.1-4.9,4.2-8c1.8-2.5,3.3-5.1,4.7-7.8L11.4,41.2z"
	/>
<path class="st4" d="M37.6,6.1c0.8,0,1.4,0.2,1.4,0.5v0.7c0,0.3-0.6,0.5-1.4,0.5H25c-0.8,0-1.4-0.2-1.4-0.5V6.6
	c0-0.3,0.6-0.5,1.4-0.5H37.6z"/>
<path class="st5" d="M32.2,19.8l-7.8,13.5c-0.2,0.4-0.1,0.8,0.3,1.1c0.1,0.1,0.3,0.1,0.4,0.1h15.6c0.4,0,0.8-0.3,0.8-0.8
	c0-0.1,0-0.3-0.1-0.4l-7.8-13.5c-0.2-0.4-0.7-0.5-1.1-0.3C32.3,19.5,32.2,19.6,32.2,19.8z"/>
<path class="st4" d="M32.1,31.2c0-0.4,0.3-0.7,0.7-0.7c0,0,0,0,0,0c0.4,0,0.7,0.4,0.7,0.8c0,0.4-0.3,0.7-0.7,0.7
	C32.4,32,32.1,31.7,32.1,31.2C32.1,31.3,32.1,31.3,32.1,31.2z M32.4,29.5l-0.2-5.8h1.2l-0.2,5.8H32.4z"/>
</svg>
