<svg xmlns="http://www.w3.org/2000/svg" viewBox="0 0 420 107"><title>stf</title><polygon points="377.204 106.745 119.645 106.745 162.175 0.214 419.733 0.214 377.204 106.745" style="fill:#ef8614"/><polygon points="149.575 0.213 107.054 106.745 119.965 106.745 162.486 0.213 149.575 0.213" style="fill:#b75c09"/><polygon points="147.749 0.213 42.166 0.213 -0.355 106.745 105.228 106.745 107.054 106.745 149.575 0.213 147.749 0.213" style="fill:#f4f4f4"/><path d="M74.5121,53.479A14.0717,14.0717,0,1,0,60.44,39.4073,14.0707,14.0707,0,0,0,74.5121,53.479Zm10.5318,3.5839L79.789,78.1046,76.2711,63.1534,79.789,56.997H69.2352l3.518,6.1564-3.518,14.9512L63.98,57.0629A14.75,14.75,0,0,0,49.8866,71.7723v4.5733a5.2782,5.2782,0,0,0,5.2769,5.2769H93.8607a5.2782,5.2782,0,0,0,5.2769-5.2769V71.7723A14.75,14.75,0,0,0,85.0439,57.0629Z" style="fill:#ef8614"/><path d="M194.7754,42.584a13.2233,13.2233,0,0,0-3.7354-.585,6.7426,6.7426,0,0,0-4.208,1.1924,4.0495,4.0495,0,0,0,.27,6.57,23.5908,23.5908,0,0,0,5.1973,2.542,23.1985,23.1985,0,0,1,4.2529,1.958,8.6735,8.6735,0,0,1,2.88,2.9248,8.9418,8.9418,0,0,1,1.1475,4.7471,8.8274,8.8274,0,0,1-1.3047,4.7256,9.0213,9.0213,0,0,1-3.7129,3.3291,12.3793,12.3793,0,0,1-5.6475,1.2158,17.5942,17.5942,0,0,1-5.8046-.9678,19.7426,19.7426,0,0,1-4.9053-2.4521l1.9345-3.4658a15.7647,15.7647,0,0,0,4.0049,2.1377,12.4863,12.4863,0,0,0,4.3653.8779,7.8416,7.8416,0,0,0,4.5673-1.3506,4.5455,4.5455,0,0,0,1.9581-4.0049,4.36,4.36,0,0,0-1.6426-3.5771,17.82,17.82,0,0,0-4.6123-2.4981,37.1349,37.1349,0,0,1-4.5674-2.0244,9.6582,9.6582,0,0,1-3.1279-2.7226,7.0113,7.0113,0,0,1-1.3047-4.3428,7.8584,7.8584,0,0,1,2.6767-6.1875,10.654,10.654,0,0,1,6.9532-2.4971,19.1329,19.1329,0,0,1,9.7646,2.6094l-1.665,3.375A19.51,19.51,0,0,0,194.7754,42.584Z" style="fill:#f4f4f4"/><path d="M212.8643,44.0234v8.2354h5.0849v3.33h-5.0849V70.8438h-4.2295V55.5889h-3.42v-3.33h3.42V44.0234Z" style="fill:#f4f4f4"/><path d="M242.1582,52.2139v18.63h-4.1846v-3.06a9.6622,9.6622,0,0,1-2.88,2.4072,8.3334,8.3334,0,0,1-4.2754,1.1025,9.97,9.97,0,0,1-4.792-1.1474,8.34,8.34,0,0,1-3.375-3.3526,11.7748,11.7748,0,0,1,.0449-10.5976,9.0627,9.0627,0,0,1,3.4648-3.51,9.6336,9.6336,0,0,1,4.8379-1.2373,8.0051,8.0051,0,0,1,4.14,1.0342,8.4373,8.4373,0,0,1,2.8349,2.7l.3155-2.97Zm-6.2773,14.332a5.7057,5.7057,0,0,0,2.0927-3.4873V59.3691a5.7433,5.7433,0,0,0-2.25-3.2177,6.5076,6.5076,0,0,0-3.915-1.2373,6.1017,6.1017,0,0,0-3.082.8095,5.9535,5.9535,0,0,0-2.25,2.2725,6.5629,6.5629,0,0,0-.833,3.3076,6.5508,6.5508,0,0,0,3.15,5.6475,5.9377,5.9377,0,0,0,3.1495.8779A6.2021,6.2021,0,0,0,235.8809,66.5459Z" style="fill:#f4f4f4"/><path d="M250.9785,55.9492h-3.1943v-3.78h3.1943v-7.83a9.2972,9.2972,0,0,1,1.8447-6.21,6.7089,6.7089,0,0,1,5.4-2.16,8.4182,8.4182,0,0,1,2.1153.2929,6.9746,6.9746,0,0,1,1.9795.8321l-1.8,3.06a2.4661,2.4661,0,0,0-1.89-.72,3.0334,3.0334,0,0,0-2.5879,1.17,6.384,6.384,0,0,0-.8769,3.78v7.7851h5.9394v3.78h-5.9394V70.8438h-4.1856Zm13.5449,0h-3.1943v-3.78h3.1943v-7.83a9.2973,9.2973,0,0,1,1.8457-6.21,6.7054,6.7054,0,0,1,5.3995-2.16,8.412,8.412,0,0,1,2.1152.2929,6.9624,6.9624,0,0,1,1.9795.8321l-1.8,3.06a2.4661,2.4661,0,0,0-1.89-.72,3.0334,3.0334,0,0,0-2.5879,1.17,6.384,6.384,0,0,0-.8769,3.78v7.7851h5.9394v3.78H268.709V70.8438h-4.1856Z" style="fill:#f4f4f4"/></svg>