<svg xmlns="http://www.w3.org/2000/svg" xmlns:xlink="http://www.w3.org/1999/xlink" viewBox="0 0 357.0839 301.9715"><defs><clipPath id="4548aa08-dab3-40e4-b256-aa8928eef461"><polygon id="4fda3e77-1545-443e-92b3-6bcf3e049ef8" data-name="SVGID" points="74.155 82.458 179.254 105.809 206.506 41.617 78.048 10.61 74.155 82.458" style="fill:none"/></clipPath><clipPath id="1449bb2e-085e-457f-b8ed-2fe07083904a"><path id="5e08e688-64d8-4581-9d3d-92cd76bb53c6" data-name="SVGID" d="M89.0247,150.3707c-.5218-2.2745-.3418-2.5736,1.5339-3.6145q5.8392-3.24,11.6294-6.5691c1.8017-1.0332,2.2609-1.0069,3.887.65,2.2966-1.2448,4.6735-2.4766,6.9938-3.808,1.9667-1.1286,3.9627-1.9723,6.3034-1.4082,1.0552.2543,1.8477.8071,1.6284,2.0291-.2134,1.1891-.9469,1.6632-2.2144,1.4493a4.1815,4.1815,0,0,0-2.3863.1658c-3.0453,1.4934-6.02,3.13-9.0245,4.7175.673,1.6272,1.3569,3.0883,1.8888,4.6021,1.79,5.0925-.856,10.8882-5.6913,12.574-4.9045,1.71-10.08-.919-12.0479-6.13-.2348-.6217-.46-1.402-1.2694-.8169-1.9588,1.4154-3.9614,2.8734-3.7431,5.76a4.328,4.328,0,0,0,.5634,1.9277c1.2564,1.9839,2.6083,3.9065,3.9291,5.8489q4.1279,6.07,8.2635,12.1351c.1909.28.4226.531.7394.925.4476-.3.8878-.557,1.2871-.8679,5.9057-4.599,12.0187-8.9551,17.6548-13.8715,7.3526-6.4137,10.0669-14.7943,8.1066-24.6218a23.4155,23.4155,0,0,0-7.8835-13.4193c-6.21-5.4012-13.3062-6.81-20.7123-4.3718-10.2884,3.3877-16.2941,12.89-16.1558,23.7184.0118.9274.0783,1.8575.1688,2.7822.1615,1.6509-.3966,2.6266-1.6149,2.7394-1.16.1074-1.9612-.6915-2.1577-2.25a29.1076,29.1076,0,0,1,2.5245-16.26,28.3206,28.3206,0,0,1,9.0951-11.0292,27.9165,27.9165,0,0,1,9.9765-4.2215,21.28,21.28,0,0,1,14.6744,1.5163,27.4,27.4,0,0,1,15.7691,19.915,29.0209,29.0209,0,0,1-2.9559,20.6858,36.6708,36.6708,0,0,1-5.356,6.9542,42.118,42.118,0,0,1-5.2072,4.308c-4.6539,3.6326-9.3336,7.2313-13.9937,10.8558-.7921.6161-1.4994,1.3478-2.3141,1.9286a1.892,1.892,0,0,1-3.0148-.4739c-3.2554-4.7632-6.4466-9.5712-9.668-14.3582-1.4208-2.1113-2.8715-4.2022-4.2825-6.32a8.2167,8.2167,0,0,1-.479-8.2527,9.4852,9.4852,0,0,1,4.146-4.6793C88.0728,150.9593,88.5151,150.6769,89.0247,150.3707Zm13.46,4.2735c.9031-1.0545,1.8723-2.05,2.8159-3.0691l-.328-.3024L95.824,156.29c2.3585,2.1191,4.6047,2.74,6.94,1.6384a6.5085,6.5085,0,0,0,3.8564-5.6914c-1.0965,1.1482-2.1687,2.3524-3.3439,3.4424-.2836.263-.9085.1479-1.3764.2067a5.1368,5.1368,0,0,1,.5846-1.2418M119.16,142.34a44.5568,44.5568,0,0,0-1.95,5.0389,2.3018,2.3018,0,0,0,1.1578,1.8432c.9314.3829,1.608-.5491,1.6166-1.354.02-1.8113-.2266-3.63-.3647-5.4455Z" style="fill:#98cafd"/></clipPath></defs><title>wallet_icon</title><g id="2891a789-cf54-4210-b05b-b94274a49c0b" data-name="Layer 2"><g id="6e113c3e-ae37-478e-99e9-7aab5690e295" data-name="Layer 1"><path d="M229.1713,90.018l-2.4874-.2638V207.1585l-2.2958-.41L221.092,220.489s13.5862-.3681,13.5862-11.9019V99.8736C234.6782,92.4632,231.1794,90.4627,229.1713,90.018Z" style="fill:#0080e3"/><path d="M221.8083,90.2766,87.5791,60.8875v.0182a28.5229,28.5229,0,0,0-7.932-1.126c-15.7565,0-28.5295,6.4554-28.5295,22.2119a28.5257,28.5257,0,0,0,36.4615,27.4032v72.4209a10.7765,10.7765,0,0,0,8.54,10.5417L217.3366,220.25a10.7762,10.7762,0,0,0,13.0122-10.5417v-108.89A10.7764,10.7764,0,0,0,221.8083,90.2766Z" style="fill:#094fbd"/><path d="M195.1638,109.3931l-.6851-.2019V224.944l-2.2958-.4045-3.2961,13.5475s13.5862-.3629,13.5862-11.7345V119.1682A10.191,10.191,0,0,0,195.1638,109.3931Z" style="fill:#0080e3"/><path d="M189.7591,110.4017,60.1686,81.6686,56.1113,66.3431c-4.8765,7.62-4.9937,13.4059-4.9937,13.4059V197.9429a10.7763,10.7763,0,0,0,8.54,10.5417l125.63,29.3639A10.7764,10.7764,0,0,0,198.3,227.3067V120.9434A10.7765,10.7765,0,0,0,189.7591,110.4017Z" style="fill:#0052ff"/><path d="M229.1713,90.018,87.4108,58.8326a48.5847,48.5847,0,0,0-16.6392-.6354c-6.2337.89-11.436,3.3139-14.66,8.1459-3.1081,4.6581-2.5479,8.3289-1.53,10.5882,3.777,8.388,19.6943,10.9126,21.9425,11.23L193.43,114.1342s4.654.8339,4.87,8.1038c0,0,3.2-10.9214-3.3251-12.8868a2.5281,2.5281,0,0,0-.4959-.16L77.4849,83.1982c-.0591-.0136-.1208-.0233-.1813-.032-3.9744-.5442-15.831-3.24-18.1136-8.31-.2678-.5935-1.081-2.4,1.1265-5.7081,2.4148-3.62,6.3782-5.2636,11.1694-5.9484a43.6785,43.6785,0,0,1,14.8994.5812L226.6839,94.6664h0l.0013,0,.13.0266a4.0766,4.0766,0,0,1,2.9606,2.6605c.5514,1.607.6172-1.1224.6033-3.0239a2.5217,2.5217,0,0,0-1.2077-4.3119Z" style="fill:#0080e3"/><path d="M210.4026,159.4935l-46.24-11.2455a16.7033,16.7033,0,0,0-10.1588.9492l-.0223-.0175-.3733.188c-.4014.1824-.7925.38-1.1774.5929l-6.2351,3.14,1.035,1.2836a16.72,16.72,0,0,0-3.5488,10.3353v1.024a16.8638,16.8638,0,0,0,13.2469,16.4713l46.3649,11.29,2.7154,3.3731c-.027.0195,4.0477-2.0119,5.4887-2.73.1134-.0519.2226-.1064.332-.1655l.1712-.0855.0009-.0248a5.4844,5.4844,0,0,0,2.74-4.74V164.89A5.525,5.525,0,0,0,210.4026,159.4935Z" style="fill:#094fbd"/><path d="M201.5746,197.8155l-51.1032-12.3134a16.8636,16.8636,0,0,1-13.2469-16.4713v-1.0241a16.8636,16.8636,0,0,1,20.48-16.4714l46.24,11.2456a5.5249,5.5249,0,0,1,4.34,5.3965V192.419A5.525,5.525,0,0,1,201.5746,197.8155Z" style="fill:#2a74eb"/><path d="M162.4676,169.1589a7.993,7.993,0,1,1-7.993-7.9931A7.993,7.993,0,0,1,162.4676,169.1589Z" style="fill:#094fbd"/><g style="clip-path:url(#4548aa08-dab3-40e4-b256-aa8928eef461)"><path d="M176.3528,71.6378c-1.1758-12.4854-7.1963-23.1642-15.6758-29.7794a34.5345,34.5345,0,0,0-8.925-5.07,33.1224,33.1224,0,0,0-3.4582-1.0973,29.7384,29.7384,0,0,0-8.3914-.9483l-.0208-.0106-.3129.0273c-.6147.02-1.2285.0338-1.8483.0922s-1.2339.1366-1.8425.2309l-8.6831.76.1755,1.8642c-13.6221,6.46-22.4221,22.5867-20.7358,40.4952,1.2579,13.3587,8.0682,24.6583,17.503,31.1107a34.0052,34.0052,0,0,0,4.7525,2.7378,33.5058,33.5058,0,0,0,3.3865,1.3789c.7534.2585,1.5174.4855,2.2888.6866l.1754,1.8625,15.5789-1.467.5285-.5826C167.128,109.2728,178.2286,91.5586,176.3528,71.6378Z" style="fill:#f99d00"/><path d="M165.827,72.629c2.0834,22.1254-11.837,41.5377-31.0863,43.35a30.2377,30.2377,0,0,1-3.2087.1324,30.9862,30.9862,0,0,1-9.7813-1.69,33.47,33.47,0,0,1-3.3866-1.3789,34.0188,34.0188,0,0,1-4.7523-2.7378c-9.4349-6.4524-16.2451-17.752-17.503-31.1108-2.0835-22.1257,11.8368-41.538,31.086-43.35a30.9358,30.9358,0,0,1,10.5732.8394,33.1091,33.1091,0,0,1,3.4584,1.0972,34.5359,34.5359,0,0,1,8.9249,5.07C158.6306,49.4648,164.6514,60.1436,165.827,72.629Z" style="fill:#fc0"/><g style="opacity:0.31"><path d="M128.3661,48.2678c-13.2611,1.2487-22.8834,14.6637-21.448,29.9066s13.3929,26.6288,26.654,25.38,22.88-14.6667,21.445-29.9093S141.6272,47.019,128.3661,48.2678Z" style="fill:#fff"/></g><path d="M108.389,78.3407c-1.542-16.3757,8.7573-30.7381,23.0038-32.0795.1454-.0137.288-.0046.433-.0155a22.6639,22.6639,0,0,0-3.65.0154c-14.2464,1.3414-24.5456,15.7037-23.0037,32.0794,1.5262,16.2082,14.0839,28.2919,28.1547,27.2366C120.6076,104.729,109.7976,93.3,108.389,78.3407Z" style="fill:#e28b00"/><path d="M156.7636,73.4824c-1.4088-14.96-12.2185-26.3887-24.9378-27.2367-.145.0109-.2876.0018-.433.0155C117.1463,47.6026,106.847,61.965,108.389,78.3407c1.4086,14.9594,12.2186,26.3883,24.9376,27.2364.1451-.011.2878-.0018.4332-.0155C148.0064,104.22,158.3054,89.8577,156.7636,73.4824Z" style="fill:#f99d00"/><path d="M133.903,87.0027l.1355,3.9454-4.7575.1633-.13-3.7676a19.1046,19.1046,0,0,1-8.756-2.1909L122.75,78.951a15.5943,15.5943,0,0,0,7.8715,2.0075c2.2607-.0776,3.0533-.603,3.024-1.456-.1074-3.1282-13.0775-.1562-13.396-9.434-.1379-4.0168,2.5129-7.4885,8.0174-8.4959l-.133-3.8746,4.7575-.1633.1306,3.8032a16.9721,16.9721,0,0,1,6.9191,1.8269l-2.1867,6.16a14.0022,14.0022,0,0,0-6.6426-1.6225c-2.3277.08-3.0453.8162-3.016,1.6694.1025,2.9859,13.074.0492,13.3888,9.22C141.6164,82.4315,139.0989,85.8634,133.903,87.0027Z" style="fill:#ffd400"/></g><path d="M250.7637,170.3384l.0508,10.0026,35.3122,20.5213,70.9572-40.9673-.0508-10.0025-35.3122-20.5213" style="fill:#094fbd"/><path d="M313.59,138.3712c4.45,2.5857,11.6856,2.5842,16.1614,0l11.7708,6.84c-4.4759,2.5841-4.5023,6.7756-.0526,9.3613l-47.2647,27.2882c-4.4469-2.584-11.68-2.5842-16.1586-.0017l-11.7707-6.84c4.473-2.5858,4.4965-6.7756.05-9.36Zm.8416,27.8652c5.8539-3.38,5.8846-8.8622.069-12.2418s-15.2809-3.38-21.1346,0c-5.8566,3.3812-5.8846,8.8623-.0689,12.242s15.2781,3.3814,21.1345,0" style="fill:#98cafd"/><path d="M357.0333,149.8925,286.0758,190.86l-35.3121-20.5212,70.9572-40.9672ZM278.0457,181.86c4.4787-2.5825,11.7119-2.5823,16.1588.0017l47.2647-27.2882c-4.45-2.5857-4.4233-6.7772.0526-9.3613l-11.7708-6.84c-4.4758,2.584-11.7119,2.5855-16.1614,0L266.325,165.66c4.4467,2.5842,4.4232,6.7739-.05,9.36l11.7705,6.84" style="fill:#2061c4"/><polygon points="281.376 152.647 316.688 173.168 327.498 166.928 292.186 146.406 281.376 152.647" style="fill:#ebeffa"/><polygon points="316.72 173.179 316.771 183.181 327.58 176.94 327.529 166.938 316.72 173.179" style="fill:#d3d7de"/><polygon points="286.076 190.86 286.076 200.862 250.815 180.341 250.815 170.338 286.076 190.86" style="fill:#084aa6"/><path d="M244.6314,156.6814l.0507,10.0026,35.3123,20.5211,70.9572-40.9671-.0508-10.0027-35.3122-20.5212" style="fill:#094fbd"/><path d="M307.4572,124.7141c4.45,2.5858,11.6857,2.5842,16.1615,0l11.7708,6.84c-4.4758,2.5843-4.5023,6.7756-.0526,9.3613l-47.2648,27.2883c-4.4467-2.5841-11.68-2.5841-16.1587-.0016l-11.7707-6.84c4.473-2.5857,4.4967-6.7754.05-9.36Zm.8417,27.8653c5.8538-3.38,5.8846-8.8624.069-12.242s-15.2811-3.38-21.1348,0c-5.8565,3.3812-5.8845,8.8622-.0689,12.242s15.2782,3.3813,21.1347,0" style="fill:#98cafd"/><path d="M350.9008,136.2353l-70.9573,40.9672-35.3121-20.5211,70.9572-40.9673Zm-78.9874,31.9672c4.4787-2.5825,11.712-2.5825,16.1587.0018l47.2646-27.2883c-4.4495-2.5859-4.4232-6.7772.0528-9.3615l-11.7708-6.84c-4.4759,2.5841-11.712,2.5857-16.1615,0l-47.2647,27.2883c4.4469,2.5841,4.4232,6.7738-.05,9.3595l11.7707,6.84" style="fill:#2061c4"/><polygon points="275.244 138.99 310.556 159.511 321.365 153.27 286.053 132.749 275.244 138.99" style="fill:#ebeffa"/><polygon points="310.588 159.521 310.638 169.524 321.448 163.283 321.397 153.281 310.588 159.521" style="fill:#d3d7de"/><polygon points="279.944 177.202 279.944 187.205 244.682 166.684 244.682 156.681 279.944 177.202" style="fill:#084aa6"/><g style="isolation:isolate"><path d="M202.648,262.6215c-5.0094,2.9112-8.13,6.5-9.3658,10.2588q.0125-4.3959.025-8.7914c1.2354-3.7587,4.3564-7.3477,9.3657-10.2588,13.3588-7.7632,35.0848-7.7634,48.5309,0,6.72,3.88,10.0978,8.966,10.1254,14.0526q-.0123,4.3961-.0249,8.7916c-.0275-5.0866-3.4052-10.1729-10.1255-14.0527C237.7328,254.8582,216.0067,254.8583,202.648,262.6215Z" style="fill:#fcce00"/><path d="M193.2822,272.88a11.9175,11.9175,0,0,0-.6071,3.6984l.025-8.7915a11.9105,11.9105,0,0,1,.6071-3.6983q-.0061,2.1978-.0126,4.3955c-.0009.3453-.0022.8054-.0032,1.1505q-.0023.84-.0046,1.6807c-.001.318-.0022.7422-.0031,1.06A3.5819,3.5819,0,0,1,193.2822,272.88Z" style="fill:#fcce00"/><path d="M261.3294,267.9783l-.025,8.7916c-.0143,5.0542-3.3363,10.1015-9.9735,13.9588-13.3588,7.7632-35.0848,7.7633-48.5247.0038-6.7662-3.9066-10.1455-9.034-10.1311-14.1535l.025-8.7915c-.0146,5.12,3.3648,10.247,10.1311,14.1535,13.44,7.76,35.1659,7.7594,48.5245-.0038C257.993,278.08,261.3151,273.0327,261.3294,267.9783Z" style="fill:#fdc801"/><path d="M261.3044,276.7709c0-.0323,0-.0645,0-.0968q.0122-4.3959.0248-8.7916c0,.0324,0,.0646,0,.0968C261.3219,270.6169,261.312,274.1335,261.3044,276.7709Z" style="fill:#fcce00"/><path d="M251.2038,253.83c13.44,7.76,13.5107,20.3439.1519,28.1073s-35.0846,7.7633-48.5245.0038c-13.4461-7.7632-13.5169-20.3476-.1583-28.1109S237.7577,246.0667,251.2038,253.83Z" style="fill:#f99d00"/><path d="M202.6729,258.7324c13.3588-7.7634,35.0848-7.7634,48.5309,0,5.6668,3.2717,8.947,7.4017,9.8557,11.6659,1.2581-5.8887-2.0251-12.0472-9.8557-16.5681-13.4461-7.7632-35.1721-7.763-48.5309,0-7.7252,4.4893-10.9495,10.5906-9.7031,16.44C193.8711,266.0518,197.0982,261.972,202.6729,258.7324Z" style="fill:#e28b00"/><path d="M270.6917,268.0052l-.0248,8.7914c-.0182,6.4332-4.2466,12.8573-12.6943,17.7667-16.9972,9.8775-44.6506,9.8776-61.7587,0-8.613-4.9729-12.9143-11.5-12.8956-18.0163l.0248-8.7914c-.0185,6.5164,4.2828,13.0434,12.8956,18.0161,17.1083,9.8775,44.7619,9.8773,61.7588,0C266.4451,280.8624,270.6736,274.4384,270.6917,268.0052Z" style="fill:#f99d00"/><path d="M257.8023,249.9952c17.1081,9.8773,17.1984,25.8954.1952,35.7765-16.9969,9.8776-44.65,9.8778-61.7588,0-17.1143-9.8811-17.2044-25.8989-.2075-35.7765C213.0344,240.1143,240.6879,240.1143,257.8023,249.9952Zm-54.9711,31.9457c13.44,7.76,35.1659,7.76,48.5245-.0037s13.288-20.3479-.1519-28.1073c-13.4461-7.7632-35.1721-7.763-48.5309,0s-13.2878,20.3477.1583,28.1108" style="fill:#fc0"/></g><path d="M229.2743,277.7158l-.3787,2.781-5.0626-.69.3618-2.6556a28.6889,28.6889,0,0,1-8.9877-3.0107l3.3159-3.9375a23.401,23.401,0,0,0,8.0746,2.7331c2.4055.3276,3.315.0944,3.3969-.5069.3-2.2048-13.8359-2.3185-12.9452-8.8577.3857-2.8312,3.6541-4.81,9.62-4.5844l.372-2.731,5.0625.69-.3652,2.6808a25.4132,25.4132,0,0,1,7.0893,2.4459l-3.1323,3.937a21.1806,21.1806,0,0,0-6.8235-2.2565c-2.4768-.3373-3.3346.0562-3.4167.6575-.2867,2.1046,13.8462,2.2432,12.9656,8.7072C238.0522,275.8238,234.9306,277.7974,229.2743,277.7158Z" style="fill:#fc0"/><g style="isolation:isolate"><path d="M22.7586,236.8464c-4.7162,2.7407-7.6545,6.12-8.8177,9.6583q.0116-4.1385.0235-8.277c1.1631-3.5386,4.1014-6.9176,8.8175-9.6583,12.5769-7.3088,33.0313-7.309,45.69,0,6.3269,3.6527,9.5069,8.4414,9.5329,13.23l-.0235,8.277c-.026-4.7889-3.206-9.5775-9.5329-13.23C55.79,229.5375,35.3354,229.5375,22.7586,236.8464Z" style="fill:#fcce00"/><path d="M13.9409,246.5047a11.22,11.22,0,0,0-.5716,3.4819l.0235-8.2769a11.218,11.218,0,0,1,.5716-3.482q-.006,2.0693-.0118,4.1384l-.0029,1.0831-.0045,1.5823c-.001.2994-.0021.6987-.0029.9983A3.3746,3.3746,0,0,1,13.9409,246.5047Z" style="fill:#fcce00"/><path d="M78.0053,241.89l-.0234,8.277c-.0134,4.7585-3.1411,9.51-9.39,13.1418-12.5768,7.3088-33.0313,7.309-45.6844.0036-6.37-3.6778-9.5518-8.5052-9.5382-13.3251l.0235-8.2769c-.0137,4.82,3.1678,9.6471,9.5381,13.3251,12.6534,7.3054,33.1077,7.3052,45.6845-.0037C74.8642,251.4,77.9918,246.6481,78.0053,241.89Z" style="fill:#fdc801"/><path d="M77.9819,250.1675v-.0911l.0235-8.277c0,.0305,0,.0607,0,.0912C77.9983,244.3737,77.9889,247.6845,77.9819,250.1675Z" style="fill:#fcce00"/><path d="M68.4724,228.5692c12.6533,7.3054,12.72,19.1533.143,26.4622s-33.0311,7.3091-45.6845.0037c-12.6591-7.3088-12.7257-19.1568-.149-26.4657S55.8132,221.26,68.4724,228.5692Z" style="fill:#98cafd"/><path d="M22.7819,233.1848c12.5769-7.3089,33.0313-7.309,45.69,0,5.3352,3.08,8.4233,6.9685,9.2788,10.9832,1.1845-5.5441-1.9066-11.3421-9.2788-15.5985-12.6592-7.3088-33.1136-7.3086-45.69,0-7.273,4.2267-10.3086,9.9708-9.1351,15.4776C14.4953,240.0758,17.5335,236.2349,22.7819,233.1848Z" style="fill:#2061c4"/><path d="M86.82,241.9148l-.0235,8.2769c-.0171,6.0568-3.9981,12.1049-11.9513,16.7267-16.0023,9.2995-42.0372,9.2995-58.144,0C8.5922,262.237,4.5427,256.0922,4.56,249.957l.0234-8.2769c-.0175,6.135,4.0322,12.28,12.1409,16.9617,16.1069,9.2994,42.1418,9.2991,58.1441,0C82.8217,254.02,86.8026,247.9715,86.82,241.9148Z" style="fill:#f99d00"/><path d="M74.6846,224.9591c16.1069,9.2992,16.1919,24.38.1839,33.6824-16.0023,9.2994-42.0372,9.3-58.1441,0C.6117,249.3392.5269,234.2588,16.529,224.9592,32.537,215.6564,58.572,215.6563,74.6846,224.9591ZM22.9309,255.0349c12.6534,7.3054,33.1077,7.3054,45.6845-.0035s12.51-19.1568-.143-26.4622c-12.6592-7.3088-33.1136-7.3086-45.69,0s-12.51,19.1569.149,26.4655" style="fill:#fc0"/></g><path d="M47.8264,251.0573l-.3566,2.618-4.7662-.6492.3406-2.5a27.0081,27.0081,0,0,1-8.4616-2.8346l3.1217-3.7071a22.029,22.029,0,0,0,7.602,2.5732c2.2648.3086,3.121.089,3.1981-.4772.2827-2.0757-13.0261-2.1829-12.1874-8.3392.3631-2.6656,3.44-4.5288,9.0567-4.3161l.35-2.5713,4.7661.6494-.3437,2.5238a23.9206,23.9206,0,0,1,6.6743,2.3027l-2.9489,3.7065a19.9434,19.9434,0,0,0-6.4242-2.1244c-2.3318-.3175-3.1394.053-3.2166.6191-.27,1.9813,13.0356,2.1118,12.2067,8.1975C56.0906,249.2758,53.1515,251.134,47.8264,251.0573Z" style="fill:#2061c4"/><g style="isolation:isolate"><path d="M25.3992,226.0391c-4.7161,2.7407-7.6544,6.12-8.8176,9.6583q.0115-4.1386.0235-8.277c1.1631-3.5386,4.1014-6.9175,8.8175-9.6584,12.577-7.3088,33.0313-7.3089,45.6905,0,6.3269,3.6528,9.5069,8.4413,9.5329,13.23l-.0235,8.277c-.026-4.789-3.206-9.5775-9.5329-13.23C58.4306,218.73,37.9761,218.73,25.3992,226.0391Z" style="fill:#fcce00"/><path d="M16.5816,235.6974a11.22,11.22,0,0,0-.5716,3.4819l.0235-8.2769a11.218,11.218,0,0,1,.5716-3.482q-.006,2.0693-.0118,4.1384l-.0029,1.0831-.0045,1.5823c-.001.2994-.0021.6987-.0029.9982A3.376,3.376,0,0,1,16.5816,235.6974Z" style="fill:#fcce00"/><path d="M80.6461,231.0822l-.0235,8.2771c-.0134,4.7585-3.1411,9.51-9.39,13.1418-12.5768,7.3088-33.0311,7.3089-45.6844.0035-6.37-3.6778-9.5518-8.5052-9.5382-13.325l.0235-8.2769c-.0136,4.82,3.1678,9.6471,9.5382,13.325,12.6533,7.3054,33.1076,7.3053,45.6844-.0037C77.5049,240.5926,80.6325,235.8407,80.6461,231.0822Z" style="fill:#fdc801"/><path d="M80.6226,239.36v-.091l.0235-8.277v.0911C80.639,233.5664,80.63,236.8771,80.6226,239.36Z" style="fill:#fcce00"/><path d="M71.1131,217.7619c12.6533,7.3054,12.72,19.1534.143,26.4621s-33.0311,7.3091-45.6844.0037c-12.6592-7.3087-12.7258-19.1568-.1491-26.4657S58.4539,210.4531,71.1131,217.7619Z" style="fill:#f99d00"/><path d="M25.4226,222.3775c12.577-7.3089,33.0313-7.3091,45.6905,0,5.3352,3.08,8.4233,6.9686,9.279,10.9832,1.1843-5.5441-1.9068-11.3422-9.279-15.5985-12.6592-7.3088-33.1135-7.3087-45.69,0-7.273,4.2266-10.3086,9.9707-9.1351,15.4776C17.1359,229.2685,20.1742,225.4275,25.4226,222.3775Z" style="fill:#e28b00"/><path d="M89.4605,231.1075l-.0235,8.2769c-.0172,6.0568-3.9981,12.1048-11.9513,16.7268-16.0023,9.2994-42.0371,9.2994-58.144,0C11.2329,251.43,7.1834,245.2848,7.2008,239.15l.0234-8.2769c-.0175,6.1351,4.0322,12.28,12.1409,16.9617,16.1069,9.2994,42.142,9.2991,58.1441,0C85.4624,243.2123,89.4433,237.1641,89.4605,231.1075Z" style="fill:#f99d00"/><path d="M77.3253,214.1517c16.1069,9.2993,16.1919,24.38.1839,33.6825-16.0021,9.2994-42.0372,9.3-58.1441,0-16.1127-9.3027-16.1975-24.3831-.1954-33.6826C35.1777,204.8491,61.2127,204.849,77.3253,214.1517Zm-51.7536,30.076c12.6533,7.3053,33.1076,7.3053,45.6844-.0037s12.51-19.1567-.143-26.4621c-12.6592-7.3088-33.1135-7.3087-45.69,0s-12.51,19.157.1491,26.4657" style="fill:#fc0"/></g><path d="M50.4671,240.25l-.3566,2.6181-4.7662-.6492.3406-2.5a27.0143,27.0143,0,0,1-8.4616-2.8345l3.1217-3.7072a22.03,22.03,0,0,0,7.602,2.5732c2.2649.3085,3.121.0889,3.1981-.4772.2827-2.0757-13.0259-2.1829-12.1874-8.3393.3631-2.6655,3.44-4.5287,9.0567-4.3161l.35-2.5712,4.7661.6494L52.787,223.22a23.9206,23.9206,0,0,1,6.6743,2.3027l-2.9489,3.7066a19.9388,19.9388,0,0,0-6.4242-2.1245c-2.3318-.3176-3.1394.0529-3.2166.6191-.27,1.9813,13.0357,2.1117,12.2067,8.1975C58.7313,238.4684,55.7924,240.3266,50.4671,240.25Z" style="fill:#2061c4"/><g style="isolation:isolate"><path d="M18.1985,212.3787c-4.7161,2.7407-7.6545,6.12-8.8176,9.6583l.0235-8.2769c1.1631-3.5386,4.1015-6.9176,8.8176-9.6583,12.5769-7.309,33.0313-7.309,45.69,0,6.327,3.6527,9.5069,8.4413,9.5329,13.23l-.0235,8.2769c-.026-4.7888-3.2059-9.5775-9.5329-13.23C51.23,205.07,30.7754,205.07,18.1985,212.3787Z" style="fill:#fcce00"/><path d="M9.3809,222.037a11.2149,11.2149,0,0,0-.5715,3.482l.0234-8.2769a11.2151,11.2151,0,0,1,.5716-3.482q-.0059,2.0694-.0117,4.1383c-.001.325-.0022.7583-.0031,1.0832l-.0044,1.5822c-.0009.3-.0021.6988-.0029.9984A3.3883,3.3883,0,0,1,9.3809,222.037Z" style="fill:#fcce00"/><path d="M73.4454,217.422l-.0235,8.2769c-.0135,4.7585-3.1411,9.51-9.39,13.1418-12.5768,7.3089-33.0313,7.3089-45.6845.0037-6.37-3.678-9.5518-8.5052-9.5381-13.3251l.0234-8.277c-.0136,4.82,3.1679,9.6472,9.5382,13.325,12.6532,7.3054,33.1075,7.3053,45.6844-.0035C70.3043,226.9324,73.4319,222.1805,73.4454,217.422Z" style="fill:#fdc801"/><path d="M73.4219,225.7c0-.03,0-.0607,0-.0912l.0235-8.2769,0,.0911C73.4383,219.906,73.429,223.2167,73.4219,225.7Z" style="fill:#fcce00"/><path d="M63.9123,204.1016c12.6533,7.3054,12.72,19.1533.1431,26.4622s-33.0312,7.3089-45.6844.0035c-12.6592-7.3087-12.7259-19.1566-.149-26.4655S51.2533,196.7928,63.9123,204.1016Z" style="fill:#98cafd"/><path d="M18.222,208.7171c12.5769-7.3089,33.0313-7.3089,45.69,0,5.3352,3.08,8.4234,6.9684,9.279,10.983,1.1843-5.5441-1.9066-11.3421-9.279-15.5984-12.659-7.3088-33.1134-7.3088-45.69,0-7.2732,4.2266-10.3087,9.9709-9.1352,15.4778C9.9353,215.6081,12.9734,211.7672,18.222,208.7171Z" style="fill:#2061c4"/><path d="M82.26,217.4472l-.0233,8.2769c-.0173,6.0567-3.9982,12.1047-11.9515,16.7267-16.0021,9.2994-42.037,9.3-58.1439,0C4.0321,237.7694-.0174,231.6244,0,225.49l.0235-8.2769c-.0175,6.1349,4.032,12.28,12.1409,16.9616,16.1067,9.2993,42.1418,9.2991,58.1439,0C78.2617,229.5519,82.2426,223.5039,82.26,217.4472Z" style="fill:#f99d00"/><path d="M70.1247,200.4913c16.1068,9.2993,16.1918,24.38.1837,33.6826-16.0021,9.2994-42.0372,9.3-58.1439,0-16.1128-9.3028-16.1977-24.3832-.1956-33.6826C27.977,191.1889,54.0119,191.1887,70.1247,200.4913ZM18.371,230.5673c12.6532,7.3054,33.1075,7.3053,45.6844-.0035s12.51-19.1569-.1431-26.4622c-12.659-7.3088-33.1134-7.3088-45.69,0s-12.51,19.1568.149,26.4655" style="fill:#fc0"/></g><path d="M43.2664,226.59l-.3566,2.6183-4.7663-.6492.3407-2.5a27.0046,27.0046,0,0,1-8.4616-2.8346l3.1217-3.707a22.03,22.03,0,0,0,7.602,2.5731c2.2648.3084,3.1209.0888,3.1981-.4772.2827-2.0757-13.026-2.1828-12.1875-8.3394.3631-2.6653,3.44-4.5286,9.0567-4.316l.35-2.5711,4.7662.6492-.3439,2.5238a23.9275,23.9275,0,0,1,6.6745,2.3028l-2.9491,3.7065a19.9412,19.9412,0,0,0-6.424-2.1243c-2.332-.3178-3.14.0527-3.2167.6189-.27,1.9814,13.0357,2.1119,12.2066,8.1977C51.5305,224.8082,48.5916,226.6664,43.2664,226.59Z" style="fill:#2061c4"/><g style="isolation:isolate"><path d="M18.7256,199.811c-4.7161,2.7407-7.6544,6.12-8.8175,9.6583q.0116-4.1387.0234-8.277c1.1632-3.5386,4.1015-6.9176,8.8176-9.6584,12.5769-7.3088,33.0313-7.3089,45.69,0,6.3269,3.6527,9.5068,8.4414,9.5328,13.23l-.0235,8.277c-.0258-4.789-3.2057-9.5775-9.5327-13.23C51.7569,192.502,31.3025,192.502,18.7256,199.811Z" style="fill:#fcce00"/><path d="M9.9081,209.4693a11.2169,11.2169,0,0,0-.5716,3.4819l.0235-8.2769a11.2151,11.2151,0,0,1,.5716-3.482q-.0058,2.0693-.0118,4.1384c-.0009.3248-.002.7581-.0031,1.0831l-.0044,1.5823c-.0009.2994-.0019.6987-.0028.9982A3.3911,3.3911,0,0,1,9.9081,209.4693Z" style="fill:#fcce00"/><path d="M73.9725,204.8541l-.0235,8.2771c-.0135,4.7585-3.1411,9.51-9.39,13.1418-12.5769,7.3088-33.0313,7.3089-45.6845.0035-6.37-3.6778-9.5519-8.5052-9.5382-13.325l.0235-8.2769c-.0137,4.82,3.1679,9.6471,9.5381,13.325,12.6532,7.3054,33.1077,7.3053,45.6846-.0036C70.8314,214.3645,73.959,209.6127,73.9725,204.8541Z" style="fill:#fdc801"/><path d="M73.949,213.1321c0-.03,0-.0608,0-.0911q.0115-4.1385.0233-8.277c0,.03,0,.0607,0,.0912C73.9655,207.3382,73.9561,210.649,73.949,213.1321Z" style="fill:#fcce00"/><path d="M64.4395,191.5338c12.6534,7.3054,12.72,19.1532.1432,26.4622S31.5513,225.305,18.8981,218c-12.659-7.3087-12.7257-19.1567-.149-26.4657S51.78,184.225,64.4395,191.5338Z" style="fill:#f99d00"/><path d="M18.7491,196.1494c12.5769-7.3089,33.0313-7.3091,45.69,0,5.3351,3.08,8.4235,6.9685,9.279,10.9832,1.1844-5.5443-1.9067-11.3421-9.279-15.5985-12.6591-7.3088-33.1135-7.3087-45.69,0-7.2731,4.2266-10.3086,9.9707-9.135,15.4776C10.4625,203.04,13.5007,199.1994,18.7491,196.1494Z" style="fill:#e28b00"/><path d="M82.787,204.8794l-.0235,8.2769c-.0171,6.0568-3.998,12.1047-11.9514,16.7267-16.0022,9.2995-42.0371,9.2995-58.144,0C4.5592,225.2016.51,219.0567.5272,212.9216l.0235-8.2769c-.0175,6.135,4.0322,12.28,12.1409,16.9617,16.1069,9.2994,42.1418,9.2991,58.1441,0C78.789,216.9841,82.77,210.936,82.787,204.8794Z" style="fill:#f99d00"/><path d="M70.6519,187.9236c16.1067,9.2993,16.1917,24.38.1838,33.6825-16.0023,9.2994-42.0372,9.3-58.1441,0-16.1127-9.3027-16.1975-24.3831-.1954-33.6826C28.5041,178.621,54.5391,178.6209,70.6519,187.9236ZM18.8981,218c12.6532,7.3054,33.1077,7.3054,45.6846-.0035s12.51-19.1568-.1432-26.4622c-12.6591-7.3088-33.1135-7.3087-45.69,0s-12.51,19.157.149,26.4656" style="fill:#fc0"/></g><path d="M43.7936,214.0218,43.437,216.64l-4.7662-.6492.34-2.5A27.0116,27.0116,0,0,1,30.55,210.656l3.1219-3.7071a22.0271,22.0271,0,0,0,7.6018,2.5732c2.2649.3085,3.121.0889,3.1981-.4772.2829-2.0757-13.026-2.1829-12.1873-8.3393.3631-2.6655,3.44-4.5287,9.0566-4.316l.35-2.5713,4.7662.6494-.3437,2.5238a23.9235,23.9235,0,0,1,6.6744,2.3027l-2.9492,3.7065a19.9384,19.9384,0,0,0-6.424-2.1244c-2.3318-.3176-3.14.0529-3.2166.6191-.27,1.9813,13.0356,2.1118,12.2067,8.1975C52.0577,212.24,49.1188,214.0985,43.7936,214.0218Z" style="fill:#fc0"/><path d="M124.5248,0l1.34,3.4863A8.1163,8.1163,0,0,0,130.5288,8.15l3.4863,1.34-3.4863,1.34a8.1166,8.1166,0,0,0-4.6636,4.6639l-1.34,3.4862-1.34-3.4862a8.1168,8.1168,0,0,0-4.6636-4.6639l-3.4862-1.34,3.4862-1.34a8.1166,8.1166,0,0,0,4.6636-4.6636Z" style="fill:#98cafd"/><path d="M18.5242,37.2082l.9657,2.5123a5.85,5.85,0,0,0,3.3607,3.3606l2.5123.9658-2.5123.9656A5.85,5.85,0,0,0,19.49,48.3734l-.9657,2.5123-.9659-2.5123a5.85,5.85,0,0,0-3.3607-3.3609l-2.5124-.9656,2.5124-.9658a5.8494,5.8494,0,0,0,3.3607-3.3606Z" style="fill:#98cafd"/><path d="M214.73,30.7729l.8984,2.337a5.4413,5.4413,0,0,0,3.1264,3.1265l2.337.8983-2.337.8984a5.4411,5.4411,0,0,0-3.1264,3.1266l-.8984,2.337-.8986-2.337a5.4407,5.4407,0,0,0-3.1263-3.1266l-2.3369-.8984,2.3369-.8983a5.4408,5.4408,0,0,0,3.1263-3.1265Z" style="fill:#98cafd"/><path d="M20.5124,122.9364l.73,1.8974a4.4179,4.4179,0,0,0,2.5381,2.5381l1.8974.7293-1.8974.7294a4.4165,4.4165,0,0,0-2.5381,2.5383l-.73,1.8972-.7294-1.8972a4.4174,4.4174,0,0,0-2.5383-2.5383l-1.8972-.7294,1.8972-.7293a4.4188,4.4188,0,0,0,2.5383-2.5381Z" style="fill:#98cafd"/><path d="M262.3129,84.8312l.7293,1.8974a4.4171,4.4171,0,0,0,2.5381,2.5381l1.8974.7294-1.8974.73a4.4174,4.4174,0,0,0-2.5381,2.5383l-.7293,1.8973-.73-1.8973a4.4164,4.4164,0,0,0-2.5382-2.5383l-1.8973-.73,1.8973-.7294a4.4161,4.4161,0,0,0,2.5382-2.5381Z" style="fill:#98cafd"/><path id="f3e68cdc-8534-4732-b0b2-b0bc1e0b8b15" data-name="SVGID" d="M89.0247,150.3707c-.5218-2.2745-.3418-2.5736,1.5339-3.6145q5.8392-3.24,11.6294-6.5691c1.8017-1.0332,2.2609-1.0069,3.887.65,2.2966-1.2448,4.6735-2.4766,6.9938-3.808,1.9667-1.1286,3.9627-1.9723,6.3034-1.4082,1.0552.2543,1.8477.8071,1.6284,2.0291-.2134,1.1891-.9469,1.6632-2.2144,1.4493a4.1815,4.1815,0,0,0-2.3863.1658c-3.0453,1.4934-6.02,3.13-9.0245,4.7175.673,1.6272,1.3569,3.0883,1.8888,4.6021,1.79,5.0925-.856,10.8882-5.6913,12.574-4.9045,1.71-10.08-.919-12.0479-6.13-.2348-.6217-.46-1.402-1.2694-.8169-1.9588,1.4154-3.9614,2.8734-3.7431,5.76a4.328,4.328,0,0,0,.5634,1.9277c1.2564,1.9839,2.6083,3.9065,3.9291,5.8489q4.1279,6.07,8.2635,12.1351c.1909.28.4226.531.7394.925.4476-.3.8878-.557,1.2871-.8679,5.9057-4.599,12.0187-8.9551,17.6548-13.8715,7.3526-6.4137,10.0669-14.7943,8.1066-24.6218a23.4155,23.4155,0,0,0-7.8835-13.4193c-6.21-5.4012-13.3062-6.81-20.7123-4.3718-10.2884,3.3877-16.2941,12.89-16.1558,23.7184.0118.9274.0783,1.8575.1688,2.7822.1615,1.6509-.3966,2.6266-1.6149,2.7394-1.16.1074-1.9612-.6915-2.1577-2.25a29.1076,29.1076,0,0,1,2.5245-16.26,28.3206,28.3206,0,0,1,9.0951-11.0292,27.9165,27.9165,0,0,1,9.9765-4.2215,21.28,21.28,0,0,1,14.6744,1.5163,27.4,27.4,0,0,1,15.7691,19.915,29.0209,29.0209,0,0,1-2.9559,20.6858,36.6708,36.6708,0,0,1-5.356,6.9542,42.118,42.118,0,0,1-5.2072,4.308c-4.6539,3.6326-9.3336,7.2313-13.9937,10.8558-.7921.6161-1.4994,1.3478-2.3141,1.9286a1.892,1.892,0,0,1-3.0148-.4739c-3.2554-4.7632-6.4466-9.5712-9.668-14.3582-1.4208-2.1113-2.8715-4.2022-4.2825-6.32a8.2167,8.2167,0,0,1-.479-8.2527,9.4852,9.4852,0,0,1,4.146-4.6793C88.0728,150.9593,88.5151,150.6769,89.0247,150.3707Zm13.46,4.2735c.9031-1.0545,1.8723-2.05,2.8159-3.0691l-.328-.3024L95.824,156.29c2.3585,2.1191,4.6047,2.74,6.94,1.6384a6.5085,6.5085,0,0,0,3.8564-5.6914c-1.0965,1.1482-2.1687,2.3524-3.3439,3.4424-.2836.263-.9085.1479-1.3764.2067a5.1368,5.1368,0,0,1,.5846-1.2418M119.16,142.34a44.5568,44.5568,0,0,0-1.95,5.0389,2.3018,2.3018,0,0,0,1.1578,1.8432c.9314.3829,1.608-.5491,1.6166-1.354.02-1.8113-.2266-3.63-.3647-5.4455Z" style="fill:#98cafd"/><g style="clip-path:url(#1449bb2e-085e-457f-b8ed-2fe07083904a)"><polygon points="131.614 191.984 71.499 181.95 81.618 112.907 141.732 122.941 131.614 191.984" style="fill:#98cafd"/></g></g></g></svg>