<?xml version="1.0" encoding="utf-8"?>
<!-- Generator: Adobe Illustrator 22.1.0, SVG Export Plug-In . SVG Version: 6.00 Build 0)  -->
<svg version="1.1" id="Layer_1" xmlns="http://www.w3.org/2000/svg" xmlns:xlink="http://www.w3.org/1999/xlink" x="0px" y="0px"
	 viewBox="0 0 54.6 54.3" style="enable-background:new 0 0 54.6 54.3;" xml:space="preserve">
<style type="text/css">
	.st0{fill:#333333;}
</style>
<title>wallet</title>
<g id="_x34_f849fc9-a6d1-4c1c-9ea3-cee3b70dddb0">
	<g id="_x34_2ad8345-754d-4195-b9e5-2c4d7797420b">
		<path class="st0" d="M54.6,34.3c0-2.7-0.2-4.8-3-5.4c0-0.5,0-0.9,0-1.4c0.1-2.7,0.1-5.5-1.5-7.2L50,20.3l0.1-0.1
			c0-0.6,0-1.2,0-1.9c0-0.8,0-1.6,0.1-2.5c0.2-1.4,0.1-2.9-0.5-4.2c-1.1-2.1-3.5-2.3-5.9-2.3l-1.2,0c-1.3-2-2.5-4-3.8-6
			c-0.1-0.2-0.3-0.5-0.5-0.8c-0.6-1-1.2-2.3-2.2-2.6C36,0,35.8,0,35.7,0c-0.6,0.1-1.1,0.3-1.5,0.6c-0.1,0.1-0.2,0.2-0.4,0.2
			c-1.2,0.7-2.4,1.4-3.5,2.1l-0.5,0.3c-0.1-0.1-0.1-0.3-0.2-0.4C28.9,1.6,28,0,26.8,0c-0.8,0.1-1.5,0.4-2.1,0.9
			c-0.2,0.1-0.4,0.3-0.6,0.4c-1.5,0.9-3,1.8-4.5,2.7c-3.1,1.8-6.1,3.7-9.1,5.5c-0.1,0-0.1,0-0.2,0l-0.3,0c-0.4,0-0.8,0-1.2,0
			c-0.4,0-0.9,0-1.3,0c-2.2,0-4.4,0.2-5.9,1.8c-0.9,1-1.4,2.4-1.4,3.8c-0.2,3.1-0.2,6.1,0,9.2c0.1,1.1,0.1,2.2,0.1,3.3
			c0.1,2,0,4.1,0,6.1c-0.1,4.8-0.2,9.8,1,14.7c0.8,3.2,1.6,4.4,4.7,5.1c2.2,0.5,4.4,0.7,6.6,0.6c0.8,0,1.6,0,2.3,0l0.2,0
			c0.8,0,1.6,0,2.5,0c2.8,0,5.7,0.1,8.4,0.1c2.8,0.1,5.6,0.1,8.4,0.1c2,0,3.8,0,5.5-0.1c0.5,0,1,0,1.5,0c3-0.1,6.1-0.1,8.3-2.4
			c1.6-1.6,1.5-4.4,1.5-6.8c0-0.9,0-1.7,0-2.4c0.1,0,0.2,0,0.3,0c0.1,0,0.3,0,0.4,0c0.4,0,0.8-0.1,1.2-0.3c1.5-1.1,1.5-5,1.5-7.2
			C54.6,34.8,54.6,34.6,54.6,34.3z M30.1,53.2c-2.1,0-4.2-0.1-6.2-0.2c-2.4-0.1-4.8-0.2-7.2-0.2h-0.1c-0.7,0-1.4,0-2.1,0
			c-0.7,0-1.3,0-2,0c-2.1,0-4.1-0.2-6.2-0.6c-1.4-0.3-2.6-1.2-3.2-2.4C3.3,49.9,3.5,50,3.7,50c0.3,0,0.6-0.2,0.6-0.6c0,0,0,0,0,0
			c0-0.3-0.2-0.6-0.5-0.6c0,0,0,0,0,0c-0.3,0-0.6-0.1-0.9-0.3c-0.1-0.1-0.2-0.1-0.3-0.1c-0.1-0.5-0.3-1-0.4-1.6
			c-0.5-2.4-0.7-4.8-0.8-7.2c0-1.7,0-3.5,0.1-5.2c0.1-1.8,0.1-3.8,0.1-5.6c0-1.2-0.1-2.3-0.2-3.5c-0.1-1-0.1-2.1-0.1-3.1
			c0.1,0.1,0.2,0.1,0.3,0.1c0.1,0,0.2,0.1,0.3,0.1c0.3,0,0.5-0.2,0.6-0.5c0.1-0.2-0.1-0.5-0.3-0.6c-0.3-0.2-0.6-0.3-0.9-0.5
			c0-1.1,0-2,0-2.9c0.9,0.9,2.4,1.3,4.6,1.3c0.3,0,0.5,0,0.8,0C8.8,19,10.7,19,12.4,19c1.9,0,3.7,0.1,5.4,0.2
			c1.5,0.1,3.1,0.1,4.9,0.1c2,0,3.9-0.1,5.9-0.1s3.9-0.1,5.9-0.1c0.8,0,1.5,0,2.3,0c2.1,0.1,4,0.1,5.7,0.2c0.3,0,0.7,0,1,0.1
			c1.9,0.1,4,0.2,5.4,1.3c1.8,1.5,1.7,4.3,1.6,6.9c0,0.5,0,0.9,0,1.3l-0.4,0c-1.2,0-2.4,0.1-3.6,0.1c-1,0-1.9,0.1-2.9,0.1
			c-2.2,0-3.9,0.1-5.4,1.9c-1.6,1.9-2.2,4.5-1.8,6.9c0.3,1.6,1.3,2.9,2.7,3.6c2.1,0.9,4.5,1.3,6.8,1.1l0.7,0l0.9,0v0
			c0,0.3,0.3,0.6,0.6,0.6c0.3,0,0.6-0.3,0.6-0.6v-0.1l1.4,0c-0.1,1-0.1,2-0.2,3c0,0.9-0.1,1.9-0.1,2.8c-0.3,3.3-2.6,4.1-5.9,4.4
			c-3.2,0.3-6.6,0.4-10.9,0.4C31.9,53.2,31,53.2,30.1,53.2z M26.3,1.6c1.1,0,1.8,1.1,2.4,2.2l0,0.1C22.4,7.6,16,11.5,9.8,15.3
			l-0.1,0.1c-1.3,0-2.6-0.1-4-0.2c-0.7,0-1.4-0.1-2-0.2c4.6-2.8,8.6-5.3,12.3-7.5c2.2-1.3,4.4-2.6,6.6-3.9c0.3-0.2,0.6-0.4,1-0.7
			c0.7-0.6,1.5-1,2.3-1.3C26,1.6,26.1,1.6,26.3,1.6z M46.4,13.8c0,0.1,0,0.2,0.1,0.3c0,0.1,0,0.2,0.1,0.3c0,0.3,0.1,0.7,0,1
			c0,0-0.1,0-0.1,0c0,0-0.1,0-0.1,0c-0.2-0.4-1.1-1.8-1.1-1.8C45.6,13.7,46,13.7,46.4,13.8z M49,16.1c-0.1,0.5-0.1,1-0.1,1.4
			c0,0.4,0,0.8,0,1.2c0,0.2,0,0.4,0,0.5c-0.3-0.2-0.6-0.3-0.9-0.4c0-0.2,0-0.4,0-0.6c0.1-0.8,0.2-1.8-0.3-2.4c0.1-0.6,0.1-1.1,0-1.7
			c0-0.5-0.2-1-0.5-1.4c-0.3-0.2-0.8-0.3-1.2-0.3l-0.1,0c-0.3,0-0.7,0-1,0c-0.1,0-0.3,0-0.4,0.1l-1.2-1.9c2.7,0,5.6,0.1,5.8,3.5
			C49.1,14.8,49.1,15.5,49,16.1z M20.7,15.5c1.3-0.7,2.7-1.5,4.2-2.3c0.5-0.3,1-0.6,1.5-0.9c0.4-0.3,0.8-0.5,1.2-0.8
			c0.2-0.1,0.4-0.2,0.5-0.3c0.2-0.1,0.3-0.2,0.4-0.2c0.1,0,0.2,0,0.3,0.1l0.5,0.2c1.1,0.5,2.3,0.8,3.5,0.9c0.9,0,1.7-0.2,2.5-0.6
			c0.9,1.4,1.9,2.7,3,4l-2.3,0c-2.6,0-5.3,0-7.9,0C25.6,15.5,23.2,15.5,20.7,15.5L20.7,15.5z M6.6,16.5c2.5,0.1,5.2,0.2,8.5,0.2
			c1.9,0,3.8,0,5.7,0c2.7,0,5.3,0,8,0l3.7,0c1.5,0,3,0,4.5,0c1.4,0,2.8,0,4.1,0c1.4,0,2.7,0,4.1,0.1c1.6,0,1.6,0.4,1.6,1.8
			c-2.1-0.4-4.2-0.6-6.3-0.5c-0.6,0-1.3,0-1.9,0c-2.1-0.1-4-0.1-5.7-0.1c-0.9,0-1.8,0-2.7,0c-1.1,0-2.1,0-3.2,0
			c-2.2,0-4.5,0-6.7-0.1s-4.5-0.1-6.7-0.1c-0.7,0-1.3,0-2,0c-0.6,0-1.4,0.1-2.2,0.1c-1,0.1-2,0.2-3.1,0.2c-1.2,0.1-2.4-0.2-3.4-0.7
			c-0.6-0.3-1.1-0.9-1.3-1.5c1.2,0.5,2.5,0.7,3.7,0.6l0.5,0C6.1,16.5,6.4,16.5,6.6,16.5L6.6,16.5z M49.7,41.4L49.7,41.4
			c-0.5,0-1.1,0-1.7,0.1c-0.9,0-1.9,0.1-2.9,0.1c-2.6,0-6.3-0.3-7.5-3.1c-0.6-1.4-0.5-3,0.1-4.4c0.9-2.4,2.4-3.6,4.8-3.7
			c0.8,0,1.7-0.1,2.5-0.1c1.5-0.1,3.1-0.2,4.6-0.2c0.6,0,1.1,0,1.6,0c2.6,0.6,2.3,4.1,2.1,6.4l0,0.5l0,0.4c-0.1,1.4-0.2,3.4-1.6,4
			c-0.2,0.1-0.5,0.1-0.7,0.1c-0.2,0-0.5,0-0.7,0C50.1,41.4,49.9,41.4,49.7,41.4L49.7,41.4z M35.2,1.3L35.2,1.3
			c1.3,0.2,2.6,2.5,3.5,4.1c0.2,0.4,0.4,0.8,0.6,1c1.8,2.8,3.6,5.7,5.6,9c-0.2,0-0.4,0-0.7,0c-0.4,0-0.7,0-1,0h0c-0.8,0-1.5,0-2.3,0
			l-1.1,0l-0.1,0l0-0.1L39.4,15C38.1,13.6,37,12,36,10.4c-0.1-0.2-0.3-0.3-0.5-0.3c-0.1,0-0.2,0-0.3,0.1c-0.9,0.5-1.9,0.8-3,0.8
			c-1.2,0-2.3-0.5-3.1-1.4c-0.1-0.1-0.3-0.2-0.4-0.2c-0.1,0-0.2,0-0.3,0.1c-3.2,2.1-6.5,4.1-10,5.9c-0.1,0-0.2,0.1-0.1,0.1l-0.6,0
			c-1.6,0-3.2,0-4.8,0l-1,0c6.4-4,12.4-7.6,18.3-11.1l2.5-1.5c0.2-0.1,0.4-0.3,0.7-0.5C33.9,1.9,34.5,1.6,35.2,1.3L35.2,1.3
			L35.2,1.3z M4.5,10.9c1-0.2,2-0.3,3-0.3c0.4,0,0.7,0,1.1,0l-1.9,1.1L6,12.2c-1.4,0.1-2.8,0.4-4.1,0.8C2.5,12,3.4,11.3,4.5,10.9z
			 M2.1,14.1c0.1-0.2,0.4-0.4,1.8-0.6l-1.6,1C2,14.4,2,14.2,2.1,14.1L2.1,14.1z"/>
		<path class="st0" d="M43.9,32.5c-0.1-0.1-0.1-0.1-0.2-0.1c-0.1,0-0.1,0-0.2,0c0,0,0,0-0.1,0c-0.2,0-0.3,0-0.5,0
			c-1.7,0-3.3,1-3.8,2.7c-0.7,1.8,0.2,3.8,2,4.5c0,0,0.1,0,0.1,0c0.4,0.2,0.9,0.2,1.3,0.2c1.6,0,2.9-1.1,3.4-2.6
			c0.4-0.9,0.4-1.9,0-2.9C45.6,33.5,44.9,32.8,43.9,32.5z M42.6,38.6c-0.3,0-0.7-0.1-1-0.2c-1-0.3-1.7-1.4-1.4-2.4
			c0.2-1.4,1.4-2.4,2.8-2.5c0.1,0,0.3,0,0.4,0c0.7,0.2,1.3,0.7,1.6,1.4c0.3,0.7,0.2,1.6-0.2,2.3C44.4,38,43.5,38.6,42.6,38.6z"/>
		<path class="st0" d="M7.2,21.7c0-0.3-0.2-0.5-0.5-0.5c0,0,0,0,0,0l-1.9,0.1c-0.3,0-0.6,0.3-0.6,0.6c0,0,0,0,0,0
			c0,0.3,0.2,0.5,0.5,0.5c0,0,0,0,0,0l1.9-0.1C6.9,22.3,7.2,22,7.2,21.7C7.2,21.7,7.2,21.7,7.2,21.7z"/>
		<path class="st0" d="M12.6,21.6c0-0.3-0.2-0.5-0.5-0.5c0,0,0,0,0,0l-2.2,0.2c-0.3,0-0.6,0.3-0.6,0.7c0,0.3,0.2,0.5,0.5,0.5
			c0,0,0,0,0,0l2.3-0.2C12.3,22.2,12.6,21.9,12.6,21.6z"/>
		<path class="st0" d="M17.2,21.9c0-0.3-0.2-0.6-0.6-0.6c0,0,0,0,0,0c-0.2,0-0.4,0-0.6,0c-0.3,0-0.6,0-0.9,0c-0.3,0-0.6,0.3-0.6,0.6
			c0,0,0,0,0,0c0,0.3,0.2,0.6,0.5,0.6c0,0,0,0,0,0h0c0.3,0,0.6,0,0.9,0c0.2,0,0.6,0,0.6,0C17,22.5,17.2,22.2,17.2,21.9
			C17.2,21.9,17.2,21.9,17.2,21.9z"/>
		<path class="st0" d="M22.7,21.8c0-0.3-0.2-0.6-0.5-0.6c0,0,0,0,0,0h0c-0.6,0-1.2,0-1.7,0h-0.1c-0.3,0-0.6,0.3-0.6,0.6
			c0,0.3,0.3,0.6,0.6,0.6h0.1c0.6,0,1.2,0,1.8,0C22.4,22.5,22.7,22.2,22.7,21.8C22.7,21.8,22.7,21.8,22.7,21.8z"/>
		<path class="st0" d="M27.9,22c0-0.3-0.2-0.6-0.6-0.7c-0.6-0.1-1.2-0.1-1.8-0.1l-0.2,0c-0.3,0-0.6,0.3-0.6,0.6c0,0,0,0,0,0
			c0,0.3,0.2,0.6,0.5,0.6c0,0,0,0,0,0l0.2,0c0.6,0,1.2,0,1.8,0.1l0.1,0C27.7,22.6,27.9,22.3,27.9,22C27.9,22,27.9,22,27.9,22z"/>
		<path class="st0" d="M32.6,22.5L32.6,22.5c0.3,0,0.6-0.2,0.6-0.5c0,0,0,0,0,0c0-0.3-0.2-0.6-0.6-0.6c0,0,0,0,0,0
			c-0.2,0-0.4,0-0.6,0c-0.2,0-0.5,0-0.7,0c-0.2,0-0.4,0-0.7,0.1c-0.3,0.1-0.5,0.3-0.4,0.6c0,0.3,0.3,0.5,0.6,0.6c0.1,0,0.1,0,0.2,0
			c0.1,0,0.3,0,0.4,0c0.2,0,0.4,0,0.7,0.1C32.3,22.5,32.4,22.5,32.6,22.5z"/>
		<path class="st0" d="M35.6,22.4c0.3,0,0.7,0,1,0c0.5,0,1.1,0,1.6,0c0.3,0,0.6-0.3,0.6-0.6c0,0,0,0,0,0c0-0.3-0.2-0.6-0.5-0.6
			c0,0,0,0,0,0h0c-0.5,0-1.1,0-1.6,0c-0.3,0-0.7,0-1,0c-0.3,0-0.6,0.2-0.6,0.5c0,0,0,0,0,0C35,22.1,35.3,22.3,35.6,22.4
			C35.6,22.4,35.6,22.4,35.6,22.4z"/>
		<path class="st0" d="M41.5,22.3L41.5,22.3c0.2,0,0.4,0,0.6,0c0.5,0,0.9,0,1.4,0.1l0.1,0c0.3,0,0.5-0.2,0.5-0.5c0,0,0,0,0,0
			c0-0.3-0.2-0.6-0.6-0.7c-0.5,0-1-0.1-1.4-0.1c-0.2,0-0.4,0-0.6,0c-0.3,0-0.6,0.3-0.6,0.6c0,0,0,0,0,0
			C40.9,22.1,41.2,22.3,41.5,22.3C41.5,22.3,41.5,22.3,41.5,22.3z"/>
		<path class="st0" d="M46.7,24.1c0.1,0.2,0.3,0.3,0.5,0.3c0.2,0,0.4-0.1,0.6-0.3c0.1-0.2,0.1-0.4,0-0.6c-0.3-0.5-0.6-1-1-1.4
			c-0.1-0.1-0.3-0.2-0.4-0.2c-0.3,0-0.5,0.2-0.6,0.4c-0.1,0.2,0,0.5,0.1,0.6C46.2,23.3,46.4,23.6,46.7,24.1z"/>
		<path class="st0" d="M47.3,26c-0.2,0-0.3,0.1-0.4,0.2c-0.1,0.1-0.2,0.3-0.1,0.4l0.1,1.7c0,0.3,0.3,0.6,0.7,0.6
			c0.1,0,0.3-0.1,0.4-0.2c0.1-0.1,0.2-0.3,0.1-0.4l-0.1-1.7C47.9,26.2,47.6,26,47.3,26C47.3,26,47.3,26,47.3,26z"/>
		<path class="st0" d="M8.4,49.6L7,49.5c-0.3,0-0.5,0.2-0.6,0.5c0,0,0,0,0,0c0,0.3,0.2,0.6,0.6,0.6c0,0,0,0,0,0l1.5,0.1
			c0.3,0,0.5-0.2,0.6-0.5c0,0,0,0,0,0C9.1,49.9,8.8,49.6,8.4,49.6C8.5,49.6,8.5,49.6,8.4,49.6z"/>
		<path class="st0" d="M14,49.5l-2.6-0.1c-0.3,0-0.6,0.2-0.6,0.5c0,0,0,0,0,0c0,0.3,0.2,0.6,0.6,0.6c0,0,0,0,0,0l2.6,0.1
			c0.3,0,0.6-0.2,0.6-0.5c0,0,0,0,0,0C14.6,49.8,14.3,49.5,14,49.5C14,49.5,14,49.5,14,49.5z"/>
		<path class="st0" d="M19.5,49.4L19.5,49.4c-0.4,0-0.8,0.1-1.2,0.1c-0.3,0-0.7,0-1.1-0.1c-0.3,0-0.5,0.2-0.5,0.5c0,0,0,0,0,0
			c0,0.3,0.2,0.6,0.6,0.7c0.3,0,0.7,0,1,0h0c0.4,0,0.8,0,1.2-0.1c0.3,0,0.6-0.4,0.6-0.7C20.1,49.6,19.8,49.4,19.5,49.4
			C19.5,49.4,19.5,49.4,19.5,49.4z"/>
		<path class="st0" d="M24.5,49.4l-1.6,0.1c-0.3,0-0.6,0.3-0.6,0.6c0,0,0,0,0,0c0,0.3,0.2,0.6,0.5,0.6c0,0,0,0,0,0l1.7-0.1
			c0.3,0,0.6-0.3,0.6-0.6c0,0,0,0,0,0C25.1,49.6,24.8,49.4,24.5,49.4C24.5,49.3,24.5,49.3,24.5,49.4z"/>
		<path class="st0" d="M29.9,49.5l-1.8,0c-0.3,0-0.6,0.3-0.6,0.6c0,0.3,0.3,0.6,0.6,0.6l0,0l1.8,0c0.3,0,0.6-0.3,0.6-0.6
			C30.5,49.8,30.3,49.5,29.9,49.5L29.9,49.5z"/>
		<path class="st0" d="M35.1,49.4c0,0-0.1,0-0.1,0c-0.5,0.1-1.1,0.2-1.6,0.2c-0.3,0-0.6,0-0.9-0.1c-0.3,0-0.5,0.2-0.5,0.5
			c0,0,0,0,0,0c0,0.3,0.2,0.7,0.6,0.7c0.3,0,0.6,0,0.9,0c0.6,0,1.3-0.1,1.9-0.2c0.3-0.1,0.5-0.3,0.4-0.6
			C35.7,49.7,35.4,49.4,35.1,49.4z"/>
		<path class="st0" d="M39.8,49.5L39.8,49.5c-0.1,0-0.2,0-0.4,0c-0.3,0-0.6,0-0.9,0c-0.3,0-0.6,0-0.9,0c-0.1,0-0.3,0-0.4,0
			c-0.3,0-0.6,0.3-0.6,0.7c0,0.3,0.2,0.5,0.5,0.5c0,0,0,0,0,0h0c0.1,0,0.2,0,0.4,0c0.3,0,0.6,0,0.9,0c0.3,0,0.6,0,0.9,0
			c0.1,0,0.3,0,0.4,0c0.3,0,0.6-0.3,0.6-0.7C40.4,49.7,40.1,49.5,39.8,49.5C39.8,49.5,39.8,49.5,39.8,49.5z"/>
		<path class="st0" d="M44,50.4L44,50.4l0.1,0.1c0.3,0,0.6-0.2,0.6-0.5c0,0,0,0,0,0c0-0.3-0.3-0.6-0.6-0.6c0,0,0,0-0.1,0
			c-0.3,0-0.6,0-0.9,0.1c-0.3,0.1-0.6,0.1-0.9,0.1v0.1h0L42,49.5c-0.3,0-0.6,0.2-0.6,0.5c0,0,0,0,0,0c0,0.3,0.2,0.6,0.6,0.6
			c0,0,0,0,0,0l0.1,0c0.3,0,0.6,0,0.9-0.1C43.4,50.6,43.7,50.5,44,50.4L44,50.4z"/>
		<path class="st0" d="M45.9,50.2L45.9,50.2c0.9,0,1.6-0.5,2.1-1.2c0.1-0.2,0.1-0.4,0-0.6c-0.1-0.2-0.3-0.3-0.6-0.3
			c-0.2,0-0.4,0.1-0.5,0.3c-0.2,0.4-0.6,0.6-1,0.6c-0.3,0-0.6,0.3-0.6,0.7c0,0,0,0,0,0C45.4,49.9,45.6,50.2,45.9,50.2
			C45.9,50.2,45.9,50.2,45.9,50.2z"/>
		<path class="st0" d="M47.6,46.7c0.3,0,0.6-0.2,0.7-0.6l0.2-1.4c0-0.1,0-0.3-0.1-0.4c-0.1-0.1-0.3-0.2-0.4-0.2
			c-0.3,0-0.6,0.2-0.7,0.6L47,46.2c0,0.1,0,0.3,0.1,0.4C47.3,46.7,47.4,46.7,47.6,46.7z"/>
		<path class="st0" d="M51.3,32.6c0.2,0.4,0.3,0.8,0.3,1.3c0,0.2,0,0.4,0.1,0.6c0,0.3,0.3,0.4,0.5,0.4c0.2,0,0.4-0.1,0.5-0.2
			c0.1-0.1,0.2-0.3,0.1-0.5c0-0.2-0.1-0.4-0.1-0.6c0-0.7-0.2-1.4-0.7-1.9c-0.6-0.6-1.4-0.9-2.3-0.8c-0.2,0-0.3,0-0.5,0
			c-0.3,0-0.6,0.3-0.6,0.6c0,0,0,0,0,0c0,0.3,0.2,0.6,0.5,0.6c0,0,0,0,0,0l0.1,0c0.2,0,0.3,0,0.5,0C50.4,32,51,32.2,51.3,32.6z"/>
		<path class="st0" d="M52,35.7c-0.3,0-0.6,0.2-0.6,0.6c0,0,0,0,0,0.1c0,0.3,0.2,0.6,0.6,0.6c0,0,0,0,0,0c0.1,0,0.3,0,0.4-0.1
			c0.1-0.1,0.2-0.3,0.2-0.5C52.6,36,52.4,35.7,52,35.7C52,35.7,52,35.7,52,35.7z"/>
		<path class="st0" d="M30.6,6.9c-0.1-0.2-0.3-0.3-0.5-0.3c-0.2,0-0.5,0.1-0.6,0.3c-0.1,0.2-0.1,0.4,0,0.6c0.5,0.7,0.9,1.5,1.4,2.2
			c0.1,0.2,0.3,0.3,0.5,0.3c0.2,0,0.4-0.1,0.6-0.3c0.1-0.2,0.1-0.4,0-0.6C31.6,8.3,31.1,7.6,30.6,6.9z"/>
		<path class="st0" d="M32.8,4.8c-0.2,0-0.5,0.1-0.7,0.2l0.1,0.1l0,0l-0.2,0c-0.7,0.6-0.7,1.4-0.1,2.3c0.4,0.5,0.9,1.2,1.6,1.2
			c0.2,0,0.4-0.1,0.6-0.2c0.3-0.2,0.6-0.4,0.7-0.8c0.1-0.6,0-1.2-0.3-1.6C34.2,5.7,33.6,4.8,32.8,4.8z M32.7,6.5
			c-0.2-0.3-0.2-0.3,0-0.5c0,0,0.1,0,0.1,0c0.2,0,0.5,0.4,0.6,0.7c0.1,0.1,0.2,0.3,0.2,0.5c0,0.1,0,0.2-0.1,0.3
			c-0.1,0-0.1,0-0.2-0.1C33.1,7.1,32.9,6.8,32.7,6.5z"/>
		<path class="st0" d="M34.7,3.5C34,4.1,34,4.9,34.6,5.9c0.3,0.5,0.9,1.2,1.6,1.2c0.2,0,0.4-0.1,0.6-0.2c0.3-0.2,0.6-0.4,0.7-0.8
			c0.1-0.6,0-1.2-0.3-1.6c-0.2-0.4-0.9-1.3-1.7-1.3c-0.2,0-0.5,0.1-0.7,0.2L34.7,3.5z M35.4,4.5C35.5,4.5,35.5,4.5,35.4,4.5
			c0.3,0,0.6,0.4,0.7,0.6c0.1,0.1,0.2,0.3,0.2,0.5c0,0.1,0,0.2-0.1,0.3c-0.1,0-0.1,0-0.2-0.1c-0.3-0.2-0.5-0.5-0.6-0.8
			C35.3,4.6,35.3,4.6,35.4,4.5L35.4,4.5z"/>
	</g>
</g>
</svg>
